<svg width="219" height="65" viewBox="0 0 219 65" fill="none" xmlns="http://www.w3.org/2000/svg">
<g id="Group">
<g id="Group_2">
<path id="Vector" d="M216.99 14.8771C216.99 14.4104 216.99 13.9407 216.983 13.474C216.938 12.4512 216.869 11.43 216.648 10.4204C216.445 9.39766 216.085 8.44662 215.535 7.51752C214.981 6.60159 214.269 5.7676 213.413 5.04481C212.563 4.32055 211.58 3.71627 210.506 3.2466C209.403 2.774 208.279 2.46967 207.078 2.29117C205.895 2.10974 204.688 2.04828 203.487 2.02195C202.937 2.01609 202.377 2.00585 201.83 2.00293C201.184 2 200.527 2 199.881 2H19.1297C18.4712 2 17.8196 2 17.1646 2.00293C16.6147 2.00585 16.0665 2.01609 15.5114 2.02195C14.3185 2.04828 13.1067 2.1112 11.9138 2.29117C10.7088 2.46967 9.59176 2.774 8.49713 3.2466C7.42146 3.71627 6.43542 4.32055 5.5873 5.04481C4.72883 5.76906 4.01516 6.60306 3.47215 7.51752C2.91191 8.44662 2.55852 9.3962 2.34994 10.4204C2.13446 11.43 2.06033 12.4512 2.02931 13.474C2.01034 13.9407 2.01034 14.4104 2 14.8771V50.1243C2.01034 50.5998 2.01034 51.0578 2.02931 51.5333C2.06033 52.5531 2.13446 53.5773 2.34994 54.5869C2.56025 55.6053 2.91363 56.5636 3.47215 57.4898C4.01689 58.3999 4.72883 59.2339 5.5873 59.9523C6.43715 60.678 7.42318 61.2867 8.49713 61.7505C9.59176 62.226 10.7071 62.5274 11.9138 62.7088C13.1067 62.8917 14.3185 62.9517 15.5114 62.981C16.0682 62.9912 16.6147 62.9971 17.1646 62.9971C17.8196 63 18.4712 63 19.1297 63H199.879C200.525 63 201.182 63 201.829 62.9971C202.375 62.9971 202.935 62.9912 203.485 62.981C204.687 62.9517 205.893 62.8917 207.076 62.7088C208.277 62.5274 209.401 62.226 210.505 61.7505C211.58 61.2867 212.563 60.678 213.411 59.9523C214.266 59.2339 214.98 58.3999 215.533 57.4898C216.083 56.5636 216.443 55.6053 216.647 54.5869C216.866 53.5773 216.936 52.5546 216.981 51.5333C216.988 51.0578 216.988 50.5998 216.988 50.1243C217 49.5713 217 49.0196 217 48.4593V16.5437C217 15.9847 217 15.4317 216.988 14.8786" fill="white"/>
<path id="Vector_2" d="M216.99 14.8771C216.99 14.4104 216.99 13.9407 216.983 13.474C216.938 12.4512 216.869 11.43 216.648 10.4204C216.445 9.39766 216.085 8.44662 215.535 7.51752C214.981 6.60159 214.269 5.7676 213.413 5.04481C212.563 4.32055 211.58 3.71627 210.506 3.2466C209.403 2.774 208.279 2.46967 207.078 2.29117C205.895 2.10974 204.688 2.04828 203.487 2.02195C202.937 2.01609 202.377 2.00585 201.83 2.00293C201.184 2 200.527 2 199.881 2H19.1297C18.4712 2 17.8196 2 17.1646 2.00293C16.6147 2.00585 16.0665 2.01609 15.5114 2.02195C14.3185 2.04828 13.1067 2.1112 11.9138 2.29117C10.7088 2.46967 9.59176 2.774 8.49713 3.2466C7.42146 3.71627 6.43542 4.32055 5.5873 5.04481C4.72883 5.76906 4.01516 6.60306 3.47215 7.51752C2.91191 8.44662 2.55852 9.3962 2.34994 10.4204C2.13446 11.43 2.06033 12.4512 2.02931 13.474C2.01034 13.9407 2.01034 14.4104 2 14.8771V50.1243C2.01034 50.5998 2.01034 51.0578 2.02931 51.5333C2.06033 52.5531 2.13446 53.5773 2.34994 54.5869C2.56025 55.6053 2.91363 56.5636 3.47215 57.4898C4.01689 58.3999 4.72883 59.2339 5.5873 59.9523C6.43715 60.678 7.42318 61.2867 8.49713 61.7505C9.59176 62.226 10.7071 62.5274 11.9138 62.7088C13.1067 62.8917 14.3185 62.9517 15.5114 62.981C16.0682 62.9912 16.6147 62.9971 17.1646 62.9971C17.8196 63 18.4712 63 19.1297 63H199.879C200.525 63 201.182 63 201.829 62.9971C202.375 62.9971 202.935 62.9912 203.485 62.981C204.687 62.9517 205.893 62.8917 207.076 62.7088C208.277 62.5274 209.401 62.226 210.505 61.7505C211.58 61.2867 212.563 60.678 213.411 59.9523C214.266 59.2339 214.98 58.3999 215.533 57.4898C216.083 56.5636 216.443 55.6053 216.647 54.5869C216.866 53.5773 216.936 52.5546 216.981 51.5333C216.988 51.0578 216.988 50.5998 216.988 50.1243C217 49.5712 217 49.0196 217 48.4593V16.5437C217 15.9847 217 15.4317 216.988 14.8786" stroke="white" stroke-width="3" stroke-miterlimit="10"/>
</g>
<path id="Vector_3" d="M46.9111 32.3296C46.8628 27.9694 51.1189 25.8478 51.3137 25.7483C48.9055 22.765 45.1683 22.3568 43.8581 22.3246C40.719 22.0436 37.6782 23.9194 36.0819 23.9194C34.4857 23.9194 31.9878 22.3538 29.3383 22.3963C25.9251 22.4416 22.7326 24.1184 20.9794 26.7242C17.3663 32.034 20.0641 39.837 23.5238 44.1298C25.2545 46.2309 27.28 48.5822 29.9261 48.4959C32.5188 48.4066 33.4858 47.0942 36.6146 47.0942C39.7434 47.0942 40.6225 48.4959 43.3255 48.4446C46.106 48.4066 47.8557 46.3333 49.5278 44.2118C51.5292 41.8034 52.3325 39.4302 52.3653 39.3088C52.298 39.2897 46.9645 37.5588 46.9111 32.3296Z" fill="black"/>
<path id="Vector_4" d="M41.8085 19.5007C43.2014 18.0214 44.1564 16.0096 43.8926 13.9656C41.8757 14.0431 39.3503 15.1507 37.9006 16.5978C36.6129 17.8722 35.4631 19.9645 35.763 21.9266C38.0281 22.0699 40.3536 20.9579 41.8102 19.4992" fill="black"/>
<path id="Vector_5" d="M78.0038 43.3878H69.4984L67.4557 48.5059H63.8512L71.9083 29.5698H75.6525L83.7063 48.5059H80.0414L78.0021 43.3878H78.0038ZM70.3793 41.0248H77.1195L73.7994 32.72H73.7046L70.381 41.0248H70.3793Z" fill="black"/>
<path id="Vector_6" d="M101.105 41.6044C101.105 45.8943 98.4019 48.6509 94.3165 48.6509C91.9979 48.6509 90.1568 47.7701 89.1949 46.2352H89.1225V53.074H85.7835V34.6998H89.0157V36.9969H89.076C90.0051 35.5148 91.9824 34.5564 94.2544 34.5564C98.3864 34.5564 101.105 37.3261 101.105 41.6058M97.6728 41.6044C97.6728 38.8068 95.9713 36.9691 93.3718 36.9691C90.7723 36.9691 89.107 38.8478 89.107 41.6044C89.107 44.3609 90.824 46.2484 93.3718 46.2484C95.9196 46.2484 97.6728 44.4238 97.6728 41.6044Z" fill="black"/>
<path id="Vector_7" d="M119.009 41.6044C119.009 45.8943 116.306 48.6509 112.22 48.6509C109.902 48.6509 108.061 47.7701 107.099 46.2352H107.026V53.074H103.687V34.6998H106.919V36.9969H106.98C107.909 35.5148 109.886 34.5564 112.158 34.5564C116.29 34.5564 119.009 37.3261 119.009 41.6058M115.577 41.6044C115.577 38.8068 113.875 36.9691 111.276 36.9691C108.676 36.9691 107.011 38.8478 107.011 41.6044C107.011 44.3609 108.726 46.2484 111.276 46.2484C113.825 46.2484 115.577 44.4238 115.577 41.6044Z" fill="black"/>
<path id="Vector_8" d="M130.841 43.2284C131.089 45.1071 133.235 46.3391 136.175 46.3391C139.114 46.3391 141.015 45.1085 141.015 43.4128C141.015 41.9438 139.791 41.0644 136.899 40.4616L134.011 39.8705C129.912 39.0277 128.009 37.4051 128.009 34.7656C128.009 31.4969 131.365 29.2524 136.126 29.2524C140.888 29.2524 144.075 31.4954 144.184 34.7656H140.815C140.612 32.8752 138.772 31.7339 136.082 31.7339C133.391 31.7339 131.553 32.8898 131.553 34.568C131.553 35.9068 132.727 36.6955 135.602 37.2997L138.06 37.8104C142.637 38.7278 144.54 40.2889 144.54 43.0616C144.54 46.6039 141.217 48.8235 135.926 48.8235C130.977 48.8235 127.636 46.658 127.421 43.2299H130.841V43.2284Z" fill="black"/>
<path id="Vector_9" d="M151.749 31.4312V34.7013H154.844V36.9443H151.749V44.5556C151.749 45.7407 152.37 46.2909 153.732 46.2909C154.068 46.2909 154.613 46.247 154.83 46.2236V48.4563C154.461 48.5339 153.716 48.5865 152.975 48.5865C149.679 48.5865 148.395 47.536 148.395 44.8614V36.9457H146.031V34.7027H148.395V31.4326H151.751L151.749 31.4312Z" fill="black"/>
<path id="Vector_10" d="M156.633 41.6043C156.633 37.2603 159.648 34.5286 164.349 34.5286C169.05 34.5286 172.065 37.2603 172.065 41.6043C172.065 45.9484 169.077 48.6772 164.349 48.6772C159.62 48.6772 156.633 45.9587 156.633 41.6043ZM168.662 41.6043C168.662 38.6239 167.052 36.8637 164.349 36.8637C161.646 36.8637 160.032 38.6341 160.032 41.6043C160.032 44.5745 161.643 46.3391 164.349 46.3391C167.055 46.3391 168.662 44.5921 168.662 41.6043Z" fill="black"/>
<path id="Vector_11" d="M174.818 34.6998H178.002V37.0481H178.078C178.59 35.487 180.075 34.5535 181.992 34.5535C182.47 34.5535 182.873 34.6076 183.134 34.6588V37.313C182.873 37.2208 182.284 37.1403 181.636 37.1403C179.486 37.1403 178.155 38.3737 178.155 40.3183V48.506H174.816V34.6998H174.818Z" fill="black"/>
<path id="Vector_12" d="M198.533 44.4516C198.081 46.9565 195.206 48.6801 191.529 48.6801C186.795 48.6801 183.859 45.9879 183.859 41.6687C183.859 37.3495 186.811 34.53 191.386 34.53C195.961 34.53 198.717 37.1534 198.717 41.341V42.3096H187.228V42.4822C187.228 44.8452 188.974 46.3917 191.605 46.3917C193.459 46.3917 194.913 45.647 195.361 44.4502H198.533V44.4516ZM187.243 40.3314H195.376C195.3 38.2172 193.706 36.8242 191.384 36.8242C189.062 36.8242 187.414 38.245 187.243 40.3314Z" fill="black"/>
<path id="Vector_13" d="M69.9622 15.3132C73.1392 15.3132 75.0061 16.9739 75.0061 19.8358C75.0061 22.6977 73.1547 24.4169 69.9622 24.4169H66.0904V15.3132H69.9622ZM67.7556 23.1264H69.776C72.0187 23.1264 73.3133 21.9442 73.3133 19.8548C73.3133 17.7655 71.9963 16.6023 69.776 16.6023H67.7556V23.1279V23.1264Z" fill="black"/>
<path id="Vector_14" d="M76.8868 20.9771C76.8868 18.7633 78.3434 17.4158 80.7034 17.4158C83.0633 17.4158 84.5165 18.7633 84.5165 20.9771C84.5165 23.1908 83.0684 24.5457 80.7034 24.5457C78.3383 24.5457 76.8868 23.201 76.8868 20.9771ZM82.8754 20.9771C82.8754 19.4861 82.0859 18.617 80.7034 18.617C79.3208 18.617 78.5382 19.4861 78.5382 20.9771C78.5382 22.468 79.3174 23.3415 80.7034 23.3415C82.0893 23.3415 82.8754 22.4724 82.8754 20.9771Z" fill="black"/>
<path id="Vector_15" d="M94.6613 24.4156H93.0047L91.3343 19.3561H91.2067L89.5432 24.4156H87.9021L85.6732 17.5476H87.2919L88.7416 22.7857H88.8588L90.5223 17.5476H92.0565L93.72 22.7857H93.8442L95.2887 17.5476H96.885L94.6613 24.4156Z" fill="black"/>
<path id="Vector_16" d="M98.7588 17.5475H100.295V18.6375H100.415C100.81 17.8737 101.612 17.4143 102.829 17.4143C104.635 17.4143 105.628 18.3346 105.628 19.966V24.4155H104.032V20.3069C104.032 19.2052 103.468 18.658 102.286 18.658C101.103 18.658 100.355 19.3252 100.355 20.3991V24.4169H98.7588V17.5489V17.5475Z" fill="black"/>
<path id="Vector_17" d="M109.769 14.8669H108.173V24.4154H109.769V14.8669Z" fill="black"/>
<path id="Vector_18" d="M111.991 20.9771C111.991 18.7633 113.448 17.4158 115.808 17.4158C118.167 17.4158 119.624 18.7633 119.624 20.9771C119.624 23.1908 118.174 24.5457 115.808 24.5457C113.441 24.5457 111.991 23.201 111.991 20.9771ZM117.98 20.9771C117.98 19.4861 117.19 18.617 115.808 18.617C114.425 18.617 113.642 19.4861 113.642 20.9771C113.642 22.468 114.422 23.3415 115.808 23.3415C117.193 23.3415 117.98 22.4724 117.98 20.9771Z" fill="black"/>
<path id="Vector_19" d="M121.305 22.4724C121.305 21.236 122.389 20.5235 124.313 20.4211L126.504 20.3157V19.7217C126.504 18.9989 125.937 18.5848 124.847 18.5848C123.956 18.5848 123.337 18.8657 123.161 19.3515H121.615C121.777 18.1722 123.086 17.4158 124.92 17.4158C126.949 17.4158 128.095 18.2717 128.095 19.7217V24.414H126.556V23.4469H126.432C125.947 24.136 125.064 24.5267 123.997 24.5267C122.439 24.5267 121.303 23.7278 121.303 22.4724M126.506 21.8842V21.3121L124.527 21.4175C123.413 21.4819 122.911 21.8037 122.911 22.408C122.911 23.0123 123.541 23.3883 124.409 23.3883C125.614 23.3883 126.506 22.7343 126.506 21.8842Z" fill="black"/>
<path id="Vector_20" d="M130.189 20.977C130.189 18.8072 131.506 17.4348 133.551 17.4348C134.654 17.4348 135.594 17.8796 136.028 18.6389H136.149V14.864H137.745V24.4125H136.214V23.3268H136.087C135.606 24.0774 134.661 24.5222 133.547 24.5222C131.486 24.5222 130.186 23.1513 130.186 20.9741M131.841 20.977C131.841 22.4343 132.649 23.3093 134.004 23.3093C135.359 23.3093 136.18 22.4212 136.18 20.9814C136.18 19.5417 135.34 18.6492 134.004 18.6492C132.668 18.6492 131.841 19.5314 131.841 20.977Z" fill="black"/>
<path id="Vector_21" d="M144.352 20.9771C144.352 18.7633 145.809 17.4158 148.172 17.4158C150.536 17.4158 151.986 18.7633 151.986 20.9771C151.986 23.1908 150.536 24.5457 148.172 24.5457C145.809 24.5457 144.352 23.201 144.352 20.9771ZM150.341 20.9771C150.341 19.4861 149.552 18.617 148.172 18.617C146.793 18.617 146.004 19.4861 146.004 20.9771C146.004 22.468 146.783 23.3415 148.172 23.3415C149.562 23.3415 150.341 22.4724 150.341 20.9771Z" fill="black"/>
<path id="Vector_22" d="M154.127 17.5475H155.663V18.6375H155.783C156.178 17.8737 156.98 17.4143 158.197 17.4143C160.003 17.4143 160.996 18.3346 160.996 19.966V24.4155H159.4V20.3069C159.4 19.2052 158.834 18.658 157.654 18.658C156.473 18.658 155.723 19.3252 155.723 20.3991V24.4169H154.127V17.5489V17.5475Z" fill="black"/>
<path id="Vector_23" d="M170.02 15.8357V17.5798H171.773V18.7196H170.02V22.2501C170.02 22.9715 170.37 23.2846 171.165 23.2846C171.41 23.2846 171.549 23.2743 171.772 23.2524V24.3834C171.515 24.4214 171.215 24.4507 170.903 24.4507C169.127 24.4507 168.422 23.921 168.422 22.5984V18.7196H167.138V17.5798H168.422V15.8357H170.019H170.02Z" fill="black"/>
<path id="Vector_24" d="M173.954 14.8655H175.538V18.6477H175.666C176.057 17.8781 176.912 17.4187 178.131 17.4187C179.851 17.4187 180.917 18.3448 180.917 19.9806V24.414H179.32V20.3157C179.32 19.2169 178.715 18.6609 177.59 18.6609C176.28 18.6609 175.55 19.3632 175.55 20.402V24.414H173.954V14.8655Z" fill="black"/>
<path id="Vector_25" d="M190.227 22.5587C189.865 23.7892 188.571 24.5486 186.723 24.5486C184.404 24.5486 182.985 23.1981 182.985 21.0005C182.985 18.8028 184.433 17.4158 186.716 17.4158C188.998 17.4158 190.322 18.7194 190.322 20.8776V21.3502H184.609V21.4263C184.663 22.6333 185.487 23.3942 186.766 23.3942C187.729 23.3942 188.391 23.1001 188.689 22.5602H190.225L190.227 22.5587ZM184.609 20.3479H188.696C188.658 19.271 187.888 18.5687 186.705 18.5687C185.523 18.5687 184.699 19.2754 184.609 20.3479Z" fill="black"/>
</g>
</svg>
