<svg width="40" height="40" viewBox="0 0 40 40" fill="none" xmlns="http://www.w3.org/2000/svg">
<g id="Frame 4">
<path id="Vector" d="M8.04243 0.75H31.9576C35.9849 0.75 39.25 4.07371 39.25 8.02812V31.9719C39.25 35.9931 35.9893 39.25 31.9576 39.25H8.04243C4.01085 39.25 0.75 35.9915 0.75 31.9719V8.02812C0.75 4.07371 4.01506 0.75 8.04243 0.75Z" stroke="white" stroke-width="1.5"/>
<path id="Vector_2" fill-rule="evenodd" clip-rule="evenodd" d="M15.5668 35H20.9994V22.0402H25.0118L25.8146 16.8049H20.9994V12.8467C20.9994 11.3778 22.3567 10.5474 23.6545 10.5474H26V6.20579L21.8022 6.01404C17.7899 5.75897 15.5686 9.01521 15.5686 12.91V16.8049H11V22.0402H15.5686V35H15.5668Z" fill="white"/>
</g>
</svg>
