<svg width="219" height="65" viewBox="0 0 219 65" fill="none" xmlns="http://www.w3.org/2000/svg">
<g id="Group">
<g id="Group_2">
<path id="Vector" d="M210.23 2C213.961 2 217 4.99163 217 8.67099V56.3273C217 60.0049 213.961 63 210.23 63H8.76858C5.03714 63 2 60.0049 2 56.3273V8.67099C2 4.99335 5.03539 2 8.76858 2H210.23Z" fill="white"/>
<path id="Vector_2" d="M210.23 2C213.961 2 217 4.99163 217 8.67099V56.3273C217 60.0049 213.961 63 210.23 63H8.76858C5.03714 63 2 60.0049 2 56.3273V8.67099C2 4.99335 5.03539 2 8.76858 2H210.23Z" stroke="white" stroke-width="3" stroke-miterlimit="10"/>
</g>
<path id="Vector_3" d="M77.1347 16.9996C77.1347 18.332 76.7352 19.3929 75.9328 20.1803C75.0221 21.1225 73.8376 21.5919 72.381 21.5919C70.9244 21.5919 69.7992 21.1139 68.8205 20.1597C67.8454 19.2072 67.3569 18.0226 67.3569 16.611C67.3569 15.1994 67.8454 14.0182 68.8205 13.0657C69.7992 12.1132 70.9854 11.6353 72.381 11.6353C73.0736 11.6353 73.7365 11.7711 74.3645 12.0341C74.9942 12.3006 75.5001 12.6548 75.8787 13.0967L75.0291 13.9374C74.3872 13.1844 73.5079 12.8061 72.381 12.8061C71.3622 12.8061 70.4813 13.1569 69.7381 13.8635C68.9967 14.5701 68.6251 15.4865 68.6251 16.611C68.6251 17.7354 68.9967 18.6553 69.7381 19.3619C70.4795 20.0686 71.3622 20.4193 72.381 20.4193C73.4591 20.4193 74.361 20.0651 75.0797 19.3568C75.5472 18.896 75.8194 18.2495 75.8891 17.4242H72.3793V16.2792H77.0649C77.1103 16.5302 77.133 16.7692 77.133 16.9996" fill="black"/>
<path id="Vector_4" d="M84.5627 13.0173H80.1614V16.0399H84.13V17.1849H80.1614V20.2075H84.5627V21.3767H78.9175V11.8481H84.5627V13.0173Z" fill="black"/>
<path id="Vector_5" d="M89.8031 21.3767H88.5593V13.0156H85.8588V11.8464H92.5053V13.0156H89.8031V21.3767Z" fill="black"/>
<path id="Vector_6" d="M98.5517 11.8481H97.3113V21.3784H98.5517V11.8481Z" fill="black"/>
<path id="Vector_7" d="M104.066 21.3767H102.822V13.0156H100.123V11.8464H106.765V13.0156H104.066V21.3767Z" fill="black"/>
<path id="Vector_8" d="M119.348 20.1457C118.395 21.1102 117.214 21.5916 115.801 21.5916C114.388 21.5916 113.205 21.1102 112.255 20.1457C111.304 19.1811 110.831 18.0034 110.831 16.6107C110.831 15.2181 111.306 14.0404 112.255 13.0793C113.205 12.1181 114.386 11.6333 115.801 11.6333C117.216 11.6333 118.386 12.1164 119.339 13.0844C120.295 14.0524 120.771 15.2267 120.771 16.6107C120.771 17.9948 120.295 19.1811 119.348 20.1457ZM113.174 19.3479C113.889 20.0614 114.767 20.4191 115.801 20.4191C116.836 20.4191 117.713 20.0614 118.426 19.3479C119.143 18.6344 119.503 17.7232 119.503 16.6125C119.503 15.5018 119.143 14.594 118.426 13.8787C117.713 13.1652 116.837 12.8076 115.801 12.8076C114.765 12.8076 113.889 13.1652 113.174 13.8787C112.46 14.5923 112.101 15.5035 112.101 16.6125C112.101 17.7214 112.46 18.6344 113.174 19.3479Z" fill="black"/>
<path id="Vector_9" d="M122.514 21.3767V11.8464H124.026L128.726 19.2619H128.78L128.726 17.4257V11.8464H129.97V21.3767H128.674L123.756 13.6036H123.704L123.756 15.4433V21.3767H122.514Z" fill="black"/>
<path id="Vector_10" d="M110.524 35.281C106.731 35.281 103.642 38.1214 103.642 42.0363C103.642 45.9512 106.731 48.7932 110.524 48.7932C114.316 48.7932 117.406 45.9254 117.406 42.0363C117.406 38.1472 114.316 35.281 110.524 35.281ZM110.524 46.13C108.446 46.13 106.655 44.4433 106.655 42.0363C106.655 39.6292 108.446 37.9426 110.524 37.9426C112.602 37.9426 114.393 39.6069 114.393 42.0363C114.393 44.4657 112.602 46.13 110.524 46.13ZM95.5145 35.281C91.722 35.281 88.6325 38.1214 88.6325 42.0363C88.6325 45.9512 91.722 48.7932 95.5145 48.7932C99.307 48.7932 102.393 45.9254 102.393 42.0363C102.393 38.1472 99.3053 35.281 95.5145 35.281ZM95.5145 46.13C93.4368 46.13 91.6452 44.4433 91.6452 42.0363C91.6452 39.6292 93.4368 37.9426 95.5145 37.9426C97.5922 37.9426 99.3838 39.6069 99.3838 42.0363C99.3838 44.4657 97.5922 46.13 95.5145 46.13ZM77.658 37.3528V40.2189H84.6167C84.4091 41.83 83.8631 43.0077 83.0328 43.8261C82.0192 44.8268 80.437 45.9237 77.658 45.9237C73.3718 45.9237 70.0224 42.5211 70.0224 38.2967C70.0224 34.0724 73.3718 30.6698 77.658 30.6698C79.9694 30.6698 81.6546 31.5673 82.9019 32.7192L84.9534 30.6973C83.2124 29.0571 80.9045 27.8071 77.658 27.8071C71.7896 27.8071 66.8562 32.5146 66.8562 38.2967C66.8562 44.0788 71.7896 48.7915 77.658 48.7915C80.8242 48.7915 83.2124 47.7651 85.0825 45.848C87.0049 43.9551 87.6015 41.2952 87.6015 39.1444C87.6015 38.4807 87.551 37.8652 87.448 37.3528H77.658ZM150.68 39.5776C150.11 38.0681 148.372 35.281 144.813 35.281C141.255 35.281 138.345 38.0199 138.345 42.0363C138.345 45.824 141.255 48.7932 145.15 48.7932C148.292 48.7932 150.11 46.8985 150.862 45.7982L148.526 44.2628C147.746 45.3907 146.682 46.13 145.15 46.13C143.618 46.13 142.528 45.4388 141.827 44.0823L150.994 40.3479L150.68 39.5776ZM141.333 41.83C141.256 39.22 143.385 37.891 144.916 37.891C146.111 37.891 147.125 38.4807 147.462 39.3249L141.333 41.83ZM133.884 48.3823H136.897V28.5241H133.884V48.3823ZM128.947 36.7872H128.845C128.168 35.9963 126.87 35.2793 125.235 35.2793C121.809 35.2793 118.664 38.2486 118.664 42.0586C118.664 45.8687 121.807 48.7915 125.235 48.7915C126.87 48.7915 128.168 48.0746 128.845 47.2562H128.947V48.2293C128.947 50.81 127.547 52.1941 125.288 52.1941C123.444 52.1941 122.301 50.8891 121.835 49.787L119.21 50.8633C119.965 52.6548 121.963 54.8556 125.288 54.8556C128.82 54.8556 131.805 52.8061 131.805 47.8167V35.6885H128.949V36.7855L128.947 36.7872ZM125.495 46.13C123.417 46.13 121.678 44.4141 121.678 42.0604C121.678 39.7066 123.419 37.9408 125.495 37.9408C127.571 37.9408 129.155 39.6808 129.155 42.0604C129.155 44.4399 127.545 46.13 125.495 46.13ZM164.789 28.5258H157.585V48.3823H160.589V40.8568H164.789C168.121 40.8568 171.401 38.4807 171.401 34.6896C171.401 30.8985 168.123 28.5258 164.789 28.5258ZM164.866 38.0956H160.589V31.2871H164.866C167.115 31.2871 168.394 33.1199 168.394 34.6896C168.394 36.2593 167.115 38.0956 164.866 38.0956ZM183.455 35.2415C181.275 35.2415 179.021 36.1889 178.088 38.2813L180.758 39.3816C181.325 38.2813 182.391 37.9254 183.506 37.9254C185.06 37.9254 186.641 38.8469 186.667 40.482V40.6866C186.123 40.3806 184.956 39.9181 183.529 39.9181C180.652 39.9181 177.725 41.4758 177.725 44.39C177.725 47.0481 180.082 48.7606 182.726 48.7606C184.75 48.7606 185.861 47.8665 186.561 46.8194H186.665V48.3497H189.57V40.7382C189.57 37.2153 186.899 35.2432 183.452 35.2432M183.089 46.1231C182.105 46.1231 180.729 45.6417 180.729 44.4382C180.729 42.9063 182.44 42.3183 183.919 42.3183C185.24 42.3183 185.863 42.6019 186.667 42.9819C186.433 44.8233 184.827 46.1231 183.089 46.1231ZM200.147 35.6799L196.699 44.2869H196.595L193.02 35.6799H189.779L195.145 47.7101L192.084 54.4051H195.222L203.491 35.6799H200.147ZM173.058 48.3823H176.066V28.5241H173.058V48.3823Z" fill="black"/>
<g id="Group_3">
<path id="Vector_11" d="M52.7661 34.5485L44.6752 39.1528L37.8281 32.4853L44.6002 25.8005L52.7661 30.4479C54.3675 31.3574 54.3675 33.6355 52.7661 34.5468V34.5485Z" fill="#FED400"/>
<path id="Vector_12" d="M44.6769 39.1529L20.3868 52.9729C19.3715 53.5506 18.194 53.3047 17.4701 52.5808L37.8299 32.4854L44.6769 39.1529Z" fill="#F83345"/>
<path id="Vector_13" d="M37.8281 32.4854L17.4683 52.5809C17.0496 52.1648 16.7809 51.5889 16.7809 50.9235V14.0714C16.7809 13.4714 16.999 12.947 17.3462 12.5447L37.8281 32.4871V32.4854Z" fill="#00D7FE"/>
<path id="Vector_14" d="M44.6002 25.8005L37.8281 32.4852L17.3462 12.5427C18.0544 11.7226 19.3087 11.4097 20.3833 12.0201L44.5984 25.8005H44.6002Z" fill="#00EF77"/>
</g>
</g>
</svg>
