<svg width="40" height="40" viewBox="0 0 40 40" fill="none" xmlns="http://www.w3.org/2000/svg">
<g id="Frame 5">
<path id="Vector" d="M8.04243 0.75H31.9576C35.9849 0.75 39.25 4.07371 39.25 8.02812V31.9719C39.25 35.9931 35.9893 39.25 31.9576 39.25H8.04243C4.01075 39.25 0.75 35.9931 0.75 31.9719V8.02812C0.75 4.07371 4.01506 0.75 8.04243 0.75Z" stroke="white" stroke-width="1.5"/>
<path id="Vector_2" fill-rule="evenodd" clip-rule="evenodd" d="M14.2818 7H26.7182C30.713 7 34 10.1728 34 14.0289V25.9711C34 29.8272 30.713 33 26.7182 33H14.2818C10.287 33 7 29.8272 7 25.9711V14.0289C7 10.1728 10.287 7 14.2818 7ZM27.7487 11.5395C28.5857 11.5395 29.2954 12.2228 29.2954 13.0325C29.2954 13.8404 28.5875 14.5255 27.7487 14.5255C26.8472 14.5255 26.202 13.8421 26.202 13.0325C26.202 12.2246 26.8472 11.5395 27.7487 11.5395ZM20.4668 12.9079H20.5314C24.5263 12.9079 27.8777 16.143 27.8777 19.9991C27.8777 23.9176 24.5263 27.0904 20.5314 27.0904H20.4668C16.472 27.0904 13.185 23.9176 13.185 19.9991C13.185 16.143 16.472 12.9079 20.4668 12.9079ZM20.4668 15.3334H20.5314C23.1731 15.3334 25.3632 17.4474 25.3632 19.9974C25.3632 22.6097 23.1731 24.7237 20.5314 24.7237H20.4668C17.8251 24.7237 15.635 22.6097 15.635 19.9974C15.635 17.4474 17.8251 15.3334 20.4668 15.3334ZM14.3464 9.23861H26.6536C29.4244 9.23861 31.6791 11.4149 31.6791 14.0895V25.907C31.6791 28.5816 29.4244 30.7579 26.6536 30.7579H14.3464C11.5756 30.7579 9.32094 28.5816 9.32094 25.907V14.0895C9.32094 11.4149 11.5756 9.23861 14.3464 9.23861Z" fill="white"/>
</g>
</svg>
