<svg width="40" height="40" viewBox="0 0 40 40" fill="none" xmlns="http://www.w3.org/2000/svg">
<g id="Frame 7">
<path id="Vector" d="M8.04236 0.75H31.9576C35.9873 0.75 39.25 4.01271 39.25 8.04236V31.9577C39.25 35.9873 35.9873 39.25 31.9576 39.25H8.04236C4.0127 39.25 0.75 35.9873 0.75 31.9577V8.04236C0.75 4.01271 4.0127 0.75 8.04236 0.75Z" stroke="white" stroke-width="1.5"/>
<path id="Vector_2" fill-rule="evenodd" clip-rule="evenodd" d="M9.43114 16.078H13.7985V32H9.43114V16.078ZM11.5885 8C13.0449 8 14.2314 9.28799 14.2314 10.8689C14.2314 12.4499 13.0449 13.7379 11.5885 13.7379C10.1322 13.7379 9 12.4499 9 10.8689C9 9.28799 10.1322 8 11.5885 8ZM16.3871 16.078H20.7002V18.302C21.6168 16.839 23.1275 15.903 24.852 15.903H26.0385C28.7883 15.903 31 18.361 31 21.2889V32H26.6869V30.537V23.395C26.6326 21.58 25.5004 20.176 23.8285 20.176C22.1565 20.176 20.7545 21.58 20.7002 23.395V32H16.3871V16.078Z" fill="white"/>
</g>
</svg>
