<svg width="40" height="40" viewBox="0 0 40 40" fill="none" xmlns="http://www.w3.org/2000/svg">
<g id="Frame 6">
<path id="Vector" d="M8.04243 0.75H32.0289C35.9806 0.75 39.25 4.06935 39.25 8.02812V31.9719C39.25 35.9975 35.9849 39.25 32.0289 39.25H8.04243C4.01075 39.25 0.75 35.9931 0.75 31.9719V8.02812C0.75 4.07371 4.01506 0.75 8.04243 0.75Z" stroke="white" stroke-width="1.5"/>
<path id="Vector_2" fill-rule="evenodd" clip-rule="evenodd" d="M19.8292 16.4587C18.7939 11.0407 25.347 7.81697 29.2075 11.727C29.2075 11.727 30.9312 11.2469 32.4492 10.2868C32.4492 10.2868 31.8968 12.1378 30.0354 13.3043C30.0354 13.3043 32.1042 13.0304 33 12.481C33 12.481 32.1042 14.3321 30.4484 15.0184C31.3443 27.4316 17.8964 34.9762 7 28.8025C7 28.8025 12.3785 29.0764 14.6547 26.4714C14.6547 26.4714 11.345 26.7452 9.68925 22.7675C9.68925 22.7675 10.9302 23.2476 12.1711 22.6306C12.1711 22.6306 8.30892 22.0136 7.96384 17.4189C7.96384 17.4189 9.20478 18.3791 10.5851 18.0359C10.5851 18.0359 6.30984 15.4985 8.7237 10.9038C8.7237 10.9038 13.276 16.6649 19.8275 16.4587H19.8292Z" fill="white"/>
</g>
</svg>
