<svg width="313" height="196" viewBox="0 0 313 196" fill="none" xmlns="http://www.w3.org/2000/svg">
<g clip-path="url(#clip0_31_503)">
<path d="M102.458 2.82805L108.913 99.7641H195.245L203.723 0L102.458 2.82805Z" fill="#F57B51"/>
<path d="M119.257 9.91187L123.75 92.0075H116.445L110.991 10.1452L119.257 9.91187Z" fill="#AF3A20"/>
<path d="M203.723 0L212.908 0.851159L201.357 99.7641H195.245L203.723 0Z" fill="#AF3A20"/>
<path d="M195.183 7.75659L191.212 54.5292L190.272 65.5668L189.374 76.1239L188.029 92.0076H123.75L122.563 70.3717L122.309 65.6766L121.761 55.648L119.257 9.91195L195.183 7.75659Z" fill="#5B3D31"/>
<path d="M191.212 54.5291L188.029 92.0075H123.75L121.761 55.648C127.653 52.8885 133.991 51.0558 140.418 50.0125C150.207 48.4131 160.214 48.5847 170.071 49.6075C177.294 50.3488 184.62 51.5981 191.205 54.536L191.212 54.5291Z" fill="#35211A"/>
<path d="M180.203 91.8909C173.165 91.8085 165.009 91.7055 164.94 91.6849L164.947 91.5682C165.537 83.647 166.395 74.7373 167.19 67.1112L167.204 67.0082C167.321 65.8619 167.437 64.7499 167.554 63.6722L166.264 66.1639L165.091 65.4088C163.356 68.0241 161.031 70.7835 158.479 71.82C157.944 72.0396 157.169 72.225 156.215 72.3828C156.449 70.1245 156.689 67.9349 156.915 65.8619C157.978 56.2932 158.89 49.1476 158.89 49.1476L164.597 47.2805H170.202L172.157 47.9258L175.874 49.1476C175.874 49.1476 179.119 69.699 180.203 91.884V91.8909Z" fill="#FFBE1D"/>
<path d="M180.203 92.0075H154.418L156.647 67.5642C161.085 64.2488 160.256 48.7082 160.256 48.7082L161.36 48.3444L162.78 47.8777C162.78 47.8777 162.478 61.4482 166.71 61.4482C170.942 61.4482 171.834 47.8228 171.834 47.8228L173.206 48.2758L174.125 48.5778C173.535 64.235 178.179 67.3445 178.179 67.3445C179.105 75.2315 179.757 83.4753 180.196 92.0075H180.203Z" fill="#AF203B"/>
<path d="M162.938 60.2264C162.821 60.1921 162.704 60.2676 162.663 60.3774C162.663 60.398 162.649 60.4117 162.643 60.4323C162.643 60.446 162.643 60.446 162.643 60.4323C162.643 60.4392 162.643 60.446 162.636 60.4529C162.615 60.4872 162.601 60.5215 162.581 60.549C162.581 60.5559 162.574 60.5627 162.574 60.5627C162.574 60.5627 162.574 60.5627 162.56 60.5765C162.553 60.5902 162.54 60.597 162.533 60.6108C162.505 60.6382 162.485 60.6588 162.457 60.6863L162.423 60.7137C162.409 60.7206 162.396 60.7275 162.382 60.7412C162.361 60.7549 162.341 60.7618 162.32 60.7755C162.32 60.7755 162.306 60.7755 162.306 60.7824C162.272 60.7961 162.238 60.8098 162.204 60.8167C162.183 60.8167 162.162 60.8236 162.142 60.8304C162.142 60.8304 162.121 60.8304 162.114 60.8304C161.97 60.8373 161.854 60.8098 161.737 60.7343C161.669 60.6931 161.641 60.6657 161.586 60.6039C161.559 60.5765 161.566 60.5765 161.538 60.5353C161.524 60.5215 161.518 60.5009 161.511 60.4872C161.511 60.4872 161.483 60.4254 161.497 60.4529C161.449 60.3431 161.353 60.2676 161.223 60.3019C161.12 60.3293 161.024 60.4598 161.072 60.5765C161.243 60.9952 161.662 61.3041 162.128 61.2766C162.581 61.2491 162.979 60.9334 163.109 60.5009C163.143 60.3843 163.068 60.2607 162.958 60.2264H162.938Z" fill="#D63447"/>
<path d="M173.076 60.2264C172.959 60.1921 172.842 60.2676 172.801 60.3774C172.801 60.398 172.788 60.4117 172.781 60.4323C172.781 60.446 172.781 60.446 172.781 60.4323C172.781 60.4392 172.781 60.446 172.774 60.4529C172.753 60.4872 172.74 60.5215 172.719 60.549C172.719 60.5559 172.712 60.5627 172.712 60.5627C172.712 60.5627 172.712 60.5627 172.698 60.5765C172.692 60.5902 172.678 60.597 172.671 60.6108C172.644 60.6382 172.623 60.6588 172.596 60.6863L172.561 60.7137C172.548 60.7206 172.534 60.7275 172.52 60.7412C172.499 60.7549 172.479 60.7618 172.458 60.7755C172.458 60.7755 172.445 60.7755 172.445 60.7824C172.41 60.7961 172.376 60.8098 172.342 60.8167C172.321 60.8167 172.301 60.8236 172.28 60.8304C172.28 60.8304 172.259 60.8304 172.253 60.8304C172.109 60.8373 171.992 60.8098 171.875 60.7343C171.807 60.6931 171.779 60.6657 171.724 60.6039C171.697 60.5765 171.704 60.5765 171.676 60.5353C171.663 60.5215 171.656 60.5009 171.649 60.4872C171.649 60.4872 171.621 60.4254 171.628 60.4529C171.58 60.3431 171.484 60.2676 171.354 60.3019C171.251 60.3293 171.155 60.4598 171.203 60.5765C171.375 60.9952 171.793 61.3041 172.259 61.2766C172.712 61.2491 173.11 60.9334 173.24 60.5009C173.275 60.3843 173.199 60.2607 173.089 60.2264H173.076Z" fill="#D63447"/>
<path d="M157.889 60.2195L151.921 58.7437C150.145 61.86 147.758 64.9283 145.158 67.7975L126.994 70.2274L126.713 74.0233C126.713 74.0233 144.095 73.9821 148.012 72.3897C153.458 70.1863 157.882 60.2195 157.882 60.2195H157.889Z" fill="#9E6C52"/>
<path d="M158.891 49.1544C154.075 50.7126 148.869 62.114 148.869 62.114L155.907 66.665L158.328 61.9561L158.891 49.1544Z" fill="#FFBE1D"/>
<path d="M127.07 70.2206C127.07 70.2206 121.678 71.4218 122.502 74.3391C123.325 77.2495 125.369 78.2997 126.48 77.5447C127.591 76.7896 126.295 76.7072 126.068 76.6455C125.842 76.5837 128.593 75.4991 129.059 74.5107C129.526 73.5223 127.852 70.5226 127.07 70.2206Z" fill="#9E6C52"/>
<path d="M171.038 33.4697C170.881 35.9203 170.414 38.3708 169.619 40.7183C169.337 41.5489 168.987 42.5511 168.103 42.8668C167.142 43.2032 166.36 42.5442 165.722 41.9402C162.78 39.167 158.211 39.5171 155.221 36.7714C154.597 36.1948 154.007 35.5084 153.712 34.7122C153.067 34.4856 152.642 33.8404 152.498 33.1746C152.113 31.4036 152.806 29.5022 154.027 28.1569C155.248 26.8115 156.929 25.9672 158.671 25.4524C160.55 24.8964 162.56 24.6973 164.488 25.068C166.415 25.4386 168.254 26.4065 169.509 27.9166C170.764 29.4267 171.169 31.4997 171.045 33.456L171.038 33.4697Z" fill="#5B3D31"/>
<path d="M165.928 28.3971C162.313 24.5326 154.089 28.3079 154.343 32.0557C154.871 39.7642 156.695 42.5168 159.185 43.7249C162.066 45.1251 163.226 44.0887 164.241 47.4109C164.81 49.9163 169.001 50.0468 170.071 47.2874C168.555 41.7068 169.378 36.9705 169.378 36.9705C169.378 36.9705 167.424 29.9965 165.928 28.404V28.3971Z" fill="#9E6C52"/>
<path d="M162.451 36.6959C162.533 37.0048 162.348 37.3137 162.039 37.3892C161.73 37.4716 161.422 37.2863 161.346 36.9774C161.264 36.6685 161.449 36.3596 161.758 36.2841C162.066 36.2017 162.375 36.3871 162.451 36.6959Z" fill="#1B1B28"/>
<path d="M161.861 36.689C161.888 36.7989 161.819 36.9156 161.71 36.943C161.6 36.9705 161.483 36.9018 161.456 36.792C161.428 36.6822 161.497 36.5655 161.607 36.538C161.717 36.5106 161.833 36.5792 161.861 36.689Z" fill="white"/>
<path d="M158.177 37.801C158.259 38.1099 158.074 38.4188 157.766 38.4943C157.457 38.5698 157.148 38.3914 157.073 38.0825C156.997 37.7736 157.176 37.4647 157.484 37.3892C157.793 37.3068 158.102 37.4922 158.177 37.801Z" fill="#1B1B28"/>
<path d="M157.587 37.7942C157.615 37.904 157.546 38.0207 157.436 38.0481C157.327 38.0756 157.21 38.0069 157.183 37.8971C157.155 37.7873 157.224 37.6706 157.333 37.6431C157.443 37.6157 157.56 37.6843 157.587 37.7942Z" fill="white"/>
<path d="M157.985 35.5428C157.169 35.2407 156.27 35.5016 155.763 36.236C155.667 36.3733 155.701 36.593 155.831 36.7097C155.962 36.8264 156.147 36.8058 156.243 36.6616C156.449 36.3596 156.764 36.1674 157.107 36.1056C157.279 36.0713 157.457 36.0782 157.635 36.1125C157.793 36.1468 157.958 36.2292 158.088 36.0988C158.122 36.0713 158.143 36.0301 158.157 35.9821C158.211 35.8311 158.143 35.5977 157.985 35.5359V35.5428Z" fill="#5B3D31"/>
<path d="M159.961 34.9799C160.633 34.2866 161.675 34.0464 162.567 34.4239C162.732 34.4925 162.814 34.6985 162.745 34.8632C162.67 35.0348 162.471 35.1103 162.306 35.0417C161.936 34.8907 161.518 34.8907 161.147 35.0142C160.955 35.076 160.777 35.1721 160.619 35.2956C160.475 35.4055 160.352 35.5634 160.153 35.5153C160.105 35.5084 160.063 35.481 160.022 35.4535C159.892 35.3506 159.837 35.1103 159.961 34.9799Z" fill="#5B3D31"/>
<path d="M160.358 40.5948C160.057 40.6703 159.727 40.6908 159.384 40.6085C159.227 40.5742 159.124 40.4094 159.165 40.2515C159.199 40.0937 159.364 39.9907 159.522 40.0319C160.352 40.2241 161.065 39.62 161.216 39.2425C161.278 39.0915 161.449 39.016 161.6 39.0778C161.751 39.1395 161.826 39.3111 161.765 39.4622C161.586 39.9083 161.051 40.4231 160.358 40.6016V40.5948Z" fill="#844F38"/>
<path d="M159.254 39.1259C159.254 39.1259 159.185 39.1259 159.172 39.0916C158.911 38.6523 159.035 38.4532 159.172 38.364C159.316 38.2679 159.522 38.261 159.775 38.3434C159.817 38.3571 159.837 38.3983 159.823 38.4395C159.81 38.4807 159.768 38.5013 159.727 38.4876C159.515 38.4258 159.357 38.4258 159.247 38.4876C159.117 38.5699 159.131 38.7484 159.288 39.0161C159.309 39.0504 159.295 39.0985 159.261 39.1191C159.261 39.1191 159.247 39.1191 159.24 39.1259H159.254Z" fill="#844F38"/>
<path d="M167.904 29.0836C167.218 26.8596 165.503 25.8505 162.224 26.0839C158.945 26.3173 155.378 27.6901 154.562 29.7425C153.286 32.9481 154.35 34.3896 154.35 34.3896L165.668 31.0467C166.161 32.5569 167.122 34.7877 168.569 35.2957L169.543 34.0532C169.543 34.0532 168.59 31.3076 167.904 29.0836Z" fill="#5B3D31"/>
<path d="M171.306 36.6342C170.798 37.705 169.694 38.2473 168.837 37.8423C167.986 37.4373 167.712 36.2361 168.219 35.1652C168.727 34.0944 169.831 33.5522 170.689 33.9571C171.539 34.3621 171.814 35.5634 171.306 36.6342Z" fill="#9E6C52"/>
<path d="M170.318 34.5131C169.962 34.4308 169.543 34.5474 169.2 34.822C169.029 34.9593 168.919 35.1103 168.857 35.2682C168.775 35.481 168.802 35.7144 168.919 35.8791C169.022 36.0232 169.18 36.0988 169.324 36.1605C169.427 36.2086 169.523 36.2498 169.584 36.3184C169.68 36.4214 169.708 36.5861 169.646 36.7097C169.584 36.8332 169.427 36.9087 169.289 36.8813C169.207 36.8675 169.132 36.9225 169.118 37.0048C169.104 37.0872 169.159 37.1627 169.241 37.1764C169.33 37.1902 169.42 37.1902 169.509 37.1627C169.68 37.1215 169.831 37.0048 169.92 36.8469C170.044 36.6067 169.996 36.2978 169.811 36.1056C169.708 36.0027 169.577 35.9409 169.461 35.8928C169.344 35.8379 169.234 35.7899 169.18 35.7075C169.118 35.6251 169.111 35.4947 169.159 35.378C169.18 35.33 169.207 35.2819 169.241 35.2407C169.385 35.1995 169.577 35.1995 169.694 35.275C169.824 35.3574 169.914 35.5084 169.927 35.6663C169.934 35.7487 170.01 35.8105 170.092 35.8036C170.099 35.8036 170.106 35.8036 170.119 35.8036C170.188 35.783 170.236 35.7212 170.229 35.6457C170.208 35.3986 170.071 35.1652 169.859 35.0348C169.783 34.9868 169.694 34.9593 169.605 34.9456C169.824 34.822 170.064 34.774 170.277 34.822C170.531 34.8838 170.785 35.1446 170.737 35.4261C170.723 35.5084 170.778 35.5839 170.86 35.5977C170.942 35.6114 171.018 35.5565 171.032 35.4741C171.107 35.0623 170.792 34.6298 170.353 34.5269L170.318 34.5131Z" fill="#844F38"/>
<path d="M153.389 34.5543C153.389 34.5543 148.553 27.8755 158.198 25.0955C167.965 22.2812 171.114 28.9532 171.059 31.4037C171.059 31.4037 161.627 28.9051 153.389 34.5475V34.5543Z" fill="#AF203B"/>
<path d="M162.663 31.0673C158.877 31.9528 156.016 33.0648 153.389 34.5543C153.389 34.5543 145.892 34.9112 148.54 33.154C152.71 30.374 162.663 31.0742 162.663 31.0742V31.0673Z" fill="#D63447"/>
<path d="M156.654 29.8455C155.365 30.2848 154.144 30.1407 153.938 29.516C153.725 28.8983 154.603 28.0334 155.893 27.5941C157.183 27.1548 158.403 27.2989 158.609 27.9236C158.822 28.5413 157.944 29.4062 156.654 29.8455Z" fill="#FFBE1D"/>
<path d="M189.305 78.3204C185.82 81.7456 173.103 72.6712 167.65 68.4977C166.107 67.3102 165.146 66.5209 165.146 66.5209L166.957 63.734C167.54 63.8919 168.109 64.1184 168.651 64.4067C168.706 64.441 168.754 64.4685 168.809 64.5028C173.46 67.2965 182.603 71.2777 182.603 71.2777C181.657 69.2322 180.6 67.2759 179.441 65.505L179.523 52.9984C179.523 52.9984 193.647 74.0509 189.312 78.3273L189.305 78.3204Z" fill="#9E6C52"/>
<path d="M168.837 64.8391C168.837 64.8391 168.816 64.7911 168.802 64.7705C168.857 64.6881 168.871 64.5783 168.802 64.4959C168.782 64.4753 168.761 64.4616 168.734 64.4479C168.699 64.4273 168.679 64.4136 168.645 64.4067C168.103 64.1184 167.533 63.8919 166.95 63.734C165.935 63.4526 164.865 63.3633 163.809 63.4938C163.521 63.5281 163.075 63.5349 162.931 63.8507C162.787 64.1733 163.047 64.4616 163.349 64.5508C163.754 64.6607 164.213 64.6744 164.639 64.7362C164.776 64.7568 164.92 64.7705 165.057 64.7911C164.227 65.0725 163.356 65.2235 162.478 65.2373C161.909 65.2441 161.339 65.1961 160.784 65.0931C160.358 65.0107 159.837 64.8872 159.535 65.299C159.378 65.5118 159.398 65.7452 159.501 65.9374C159.391 66.1639 159.419 66.4454 159.59 66.6719C159.638 66.7336 159.7 66.7886 159.762 66.8435C159.679 66.9053 159.631 67.0151 159.7 67.1249C159.906 67.4681 160.214 67.7084 160.571 67.8731C160.564 67.9555 160.592 68.0378 160.674 68.0928C162.272 69.1636 164.303 69.4862 166.161 69.0263C166.642 68.9096 167.17 68.738 167.65 68.4909C168.034 68.2918 168.398 68.0516 168.672 67.7495C169.447 66.9258 169.166 65.7864 168.837 64.8323V64.8391Z" fill="#9E6C52"/>
<path d="M175.881 49.1544C180.525 51.1657 185.1 61.9081 185.1 61.9081L177.816 66.2737L175.881 49.1476V49.1544Z" fill="#FFBE1D"/>
<path d="M20.7221 102.88L29.6256 101.466L29.6668 114.213L21.902 114.975L20.7221 102.88Z" fill="#AF203B"/>
<path d="M17.3816 105.441L35.3326 103.69C36.9514 103.532 38.3576 102.688 38.9749 101.514C39.7226 100.08 39.1327 98.4873 37.5413 97.6636L18.1156 87.532C17.2925 87.1064 16.2841 86.9211 15.2689 87.0241C12.7721 87.2643 10.9681 89.0902 11.3591 90.971L13.9451 103.505C14.2057 104.768 15.6942 105.619 17.3748 105.454L17.3816 105.441Z" fill="#D63447"/>
<path d="M308.411 151.04C306.696 137.057 296.736 126.047 284.067 124.146L232.951 112.305C232.951 112.305 198.243 80.4139 131.501 79.7206C131.117 79.7206 130.74 79.7206 130.355 79.7138C129.999 79.7138 129.649 79.7069 129.292 79.7069C74.4791 79.7275 42.1097 107.253 42.1097 107.253L15.0975 112.291C10.7349 113.623 7.33266 117.343 6.15285 122.093L0.445852 145.047C-1.00833 150.889 1.17295 157.073 5.84418 160.375L19.1239 168.063C22.7731 170.644 27.0328 172.017 31.3816 172.017H310.983L308.411 151.04Z" fill="#D63447"/>
<path d="M30.2018 165.53H5.18567V171.907H30.2018V165.53Z" fill="#EAD2AC"/>
<path d="M30.2018 168.09H5.18567V170.616H30.2018V168.09Z" fill="#C6AA81"/>
<path d="M99.0973 172.016H47.1376C47.1376 156.181 58.7711 143.345 73.114 143.345C87.457 143.345 99.0973 156.181 99.0973 172.016Z" fill="#35211A"/>
<path d="M73.1209 196C86.1906 196 96.7858 185.284 96.7858 172.064C96.7858 158.845 86.1906 148.129 73.1209 148.129C60.0512 148.129 49.4561 158.845 49.4561 172.064C49.4561 185.284 60.0512 196 73.1209 196Z" fill="#5B3D31"/>
<path d="M73.1072 187.44C69.1974 187.44 65.4933 185.951 62.6467 183.212C59.704 180.384 58.0234 176.56 57.9205 172.456C57.8177 168.351 59.2993 164.452 62.0979 161.473C64.8965 158.494 68.6692 156.798 72.7299 156.696C76.7907 156.593 80.6456 158.089 83.5883 160.917C86.531 163.745 88.2115 167.568 88.3144 171.673C88.4173 175.778 86.9357 179.677 84.1371 182.656C81.3384 185.635 77.5658 187.33 73.505 187.433C73.3747 187.433 73.2375 187.433 73.1072 187.433V187.44ZM73.1209 157.252C72.9974 157.252 72.8671 157.252 72.7436 157.252C68.8338 157.354 65.1983 158.988 62.5026 161.857C59.8069 164.727 58.3801 168.481 58.483 172.435C58.5859 176.389 60.1979 180.068 63.0308 182.793C65.8637 185.518 69.5746 186.967 73.4913 186.864C81.5648 186.658 87.9577 179.842 87.752 171.68C87.5462 163.642 81.0229 157.245 73.1209 157.245V157.252Z" fill="#35211A"/>
<path d="M73.1209 185.402C80.4021 185.402 86.3046 179.43 86.3046 172.064C86.3046 164.699 80.4021 158.727 73.1209 158.727C65.8397 158.727 59.9372 164.699 59.9372 172.064C59.9372 179.43 65.8397 185.402 73.1209 185.402Z" fill="#EAD2AC"/>
<path d="M73.1209 180.803C77.8904 180.803 81.7569 176.89 81.7569 172.064C81.7569 167.238 77.8904 163.326 73.1209 163.326C68.3514 163.326 64.485 167.238 64.485 172.064C64.485 176.89 68.3514 180.803 73.1209 180.803Z" fill="white"/>
<path d="M73.1209 176.121C75.3371 176.121 77.1336 174.305 77.1336 172.064C77.1336 169.824 75.3371 168.008 73.1209 168.008C70.9047 168.008 69.1082 169.824 69.1082 172.064C69.1082 174.305 70.9047 176.121 73.1209 176.121Z" fill="#5B3D31"/>
<path d="M73.6903 172.202L72.5447 171.927L74.9387 157.876L77.6961 158.528L73.6903 172.202Z" fill="#5B3D31"/>
<path d="M73.5187 171.632L72.7162 172.504L61.8853 163.374L63.8196 161.288L73.5187 171.632Z" fill="#5B3D31"/>
<path d="M72.9494 171.495L73.2855 172.634L60.0607 177.563L59.2375 174.824L72.9494 171.495Z" fill="#5B3D31"/>
<path d="M72.5447 171.927L73.6902 172.202L71.2963 186.253L68.5388 185.601L72.5447 171.927Z" fill="#5B3D31"/>
<path d="M72.7162 172.504L73.5188 171.632L84.3497 180.755L82.4154 182.841L72.7162 172.504Z" fill="#5B3D31"/>
<path d="M73.2855 172.634L72.9494 171.495L86.1743 166.566L86.9974 169.312L73.2855 172.634Z" fill="#5B3D31"/>
<path d="M5.18567 133.769L8.24495 123.397H29.1249L26.436 127.255C23.5551 131.387 19.7756 133.769 16.0989 133.769H5.18567Z" fill="white"/>
<path d="M6.01566 132.719L7.45612 128.271H24.5565C24.5565 128.271 20.8113 132.719 16.5036 132.719H6.02251H6.01566Z" fill="#AF203B"/>
<path d="M42.7339 126.294C42.7339 128.614 40.9984 130.488 38.8515 130.488C36.7045 130.488 34.9691 128.607 34.9691 126.294C34.9691 123.981 36.7045 122.1 38.8515 122.1C40.9984 122.1 42.7339 123.981 42.7339 126.294Z" fill="#35211A"/>
<path d="M35.8059 149.378H7.2778V150.552H35.8059V149.378Z" fill="#AF203B"/>
<path d="M35.8059 152.303H7.2778V153.476H35.8059V152.303Z" fill="#AF203B"/>
<path d="M35.8059 155.227H7.2778V156.4H35.8059V155.227Z" fill="#AF203B"/>
<path d="M287.202 172.016H235.242C235.242 156.181 246.876 143.345 261.219 143.345C275.562 143.345 287.202 156.181 287.202 172.016Z" fill="#35211A"/>
<path d="M261.219 195.032C274.091 195.032 284.527 184.749 284.527 172.064C284.527 159.38 274.091 149.097 261.219 149.097C248.346 149.097 237.91 159.38 237.91 172.064C237.91 184.749 248.346 195.032 261.219 195.032Z" fill="#5B3D31"/>
<path d="M261.205 186.822C257.35 186.822 253.708 185.388 250.902 182.766C248.001 180.054 246.347 176.389 246.245 172.449C246.142 168.509 247.603 164.768 250.36 161.912C253.118 159.057 256.835 157.43 260.834 157.327C264.827 157.224 268.634 158.666 271.528 161.384C274.43 164.095 276.083 167.761 276.186 171.701C276.398 179.835 269.855 186.617 261.596 186.829C261.466 186.829 261.335 186.829 261.205 186.829V186.822ZM261.225 157.856C261.102 157.856 260.972 157.856 260.848 157.856C256.993 157.952 253.413 159.524 250.758 162.276C248.103 165.029 246.697 168.632 246.793 172.428C246.889 176.224 248.481 179.752 251.279 182.368C254.071 184.983 257.727 186.369 261.582 186.273C269.532 186.074 275.836 179.54 275.637 171.701C275.541 167.905 273.943 164.377 271.151 161.761C268.448 159.228 264.936 157.849 261.225 157.849V157.856Z" fill="#35211A"/>
<path d="M261.219 184.859C268.394 184.859 274.21 179.131 274.21 172.064C274.21 164.998 268.394 159.27 261.219 159.27C254.044 159.27 248.227 164.998 248.227 172.064C248.227 179.131 254.044 184.859 261.219 184.859Z" fill="#EAD2AC"/>
<path d="M261.219 180.446C265.916 180.446 269.724 176.693 269.724 172.065C269.724 167.436 265.916 163.683 261.219 163.683C256.521 163.683 252.713 167.436 252.713 172.065C252.713 176.693 256.521 180.446 261.219 180.446Z" fill="white"/>
<path d="M265.17 172.064C265.17 174.213 263.4 175.956 261.219 175.956C259.037 175.956 257.268 174.213 257.268 172.064C257.268 169.916 259.037 168.172 261.219 168.172C263.4 168.172 265.17 169.916 265.17 172.064Z" fill="#5B3D31"/>
<path d="M261.788 172.195L260.649 171.934L263.016 158.453L265.732 159.077L261.788 172.195Z" fill="#5B3D31"/>
<path d="M261.616 171.646L260.821 172.483L250.148 163.724L252.054 161.72L261.616 171.646Z" fill="#5B3D31"/>
<path d="M261.047 171.515L261.39 172.614L248.357 177.343L247.548 174.707L261.047 171.515Z" fill="#5B3D31"/>
<path d="M260.649 171.934L261.788 172.195L259.421 185.676L256.705 185.052L260.649 171.934Z" fill="#5B3D31"/>
<path d="M260.821 172.483L261.616 171.646L272.29 180.404L270.376 182.409L260.821 172.483Z" fill="#5B3D31"/>
<path d="M261.39 172.614L261.047 171.515L274.08 166.793L274.889 169.422L261.39 172.614Z" fill="#5B3D31"/>
<path d="M302.622 142.514C301.174 142.727 299.809 142.871 298.527 142.947C297.594 143.008 296.709 143.029 295.865 143.022C293.122 143.008 290.776 142.679 288.786 142.13C285.672 141.279 283.368 139.892 281.66 138.306C276.824 133.797 276.789 127.674 276.789 127.53C279.965 127.53 282.832 128.01 285.398 128.8C289.205 129.966 292.36 131.82 294.878 133.79C295.893 134.579 296.798 135.382 297.601 136.172C298.739 137.284 299.672 138.354 300.42 139.295C301.908 141.176 302.629 142.514 302.629 142.514H302.622Z" fill="#EAD2AC"/>
<path d="M297.957 140.084C296.935 140.174 295.968 140.222 295.063 140.228C294.404 140.242 293.78 140.228 293.183 140.201C291.249 140.119 289.603 139.858 288.217 139.473C286.043 138.883 284.444 137.984 283.271 136.995C279.952 134.167 280.054 130.516 280.054 130.426C282.291 130.516 284.3 130.879 286.091 131.422C288.752 132.225 290.933 133.412 292.662 134.662C293.362 135.163 293.979 135.664 294.535 136.158C295.31 136.851 295.948 137.517 296.455 138.101C297.464 139.261 297.951 140.084 297.951 140.084H297.957Z" fill="white"/>
<path d="M19.9608 174.494H39.654C41.0053 174.494 42.1028 173.307 42.1028 171.845V165.99L36.0871 162.022H9.83633C8.90346 162.022 8.14893 162.839 8.14893 163.841L18.2734 172.669C18.2734 173.678 19.0279 174.488 19.9608 174.488V174.494Z" fill="#AF203B"/>
<path d="M235.235 173.65L99.0974 174.494V167.925H235.235V173.65Z" fill="#AF203B"/>
<path d="M311.093 174.494H287.202V168.811L311.093 166.896C312.149 166.896 313 167.822 313 168.962V172.435C313 173.575 312.143 174.501 311.093 174.501V174.494Z" fill="#AF203B"/>
<path d="M231.01 165.496H142.757C142.476 165.496 142.243 165.248 142.243 164.94C142.243 158.192 142.243 151.403 142.243 144.615C142.243 137.826 142.243 131.037 142.243 124.29C142.243 123.981 142.476 123.734 142.757 123.734L227.333 123.693C227.333 123.693 227.395 123.693 227.422 123.699C232.409 124.633 235.75 126.15 236.984 130.783C238.233 135.492 237.547 140.517 236.813 144.855C235.667 151.582 234.124 158.316 232.231 164.878C232.169 165.091 231.991 165.248 231.785 165.269C231.723 165.283 231.627 165.317 231.531 165.351C231.271 165.447 231.14 165.489 231.003 165.489L231.01 165.496ZM143.265 164.384H230.969C231.031 164.37 231.12 164.335 231.209 164.301C231.25 164.287 231.291 164.274 231.325 164.26C233.171 157.835 234.673 151.245 235.791 144.663C236.511 140.448 237.177 135.575 235.99 131.099C234.906 127.015 231.977 125.697 227.285 124.811L143.265 124.853C143.265 131.415 143.265 138.018 143.265 144.622C143.265 151.225 143.265 157.821 143.265 164.39V164.384Z" fill="#AF203B"/>
<path d="M160.564 132.136C160.564 132.801 157.848 133.344 154.5 133.344C151.153 133.344 148.437 132.801 148.437 132.136C148.437 131.47 151.153 130.927 154.5 130.927C157.848 130.927 160.564 131.47 160.564 132.136Z" fill="#35211A"/>
<path d="M302.004 147.299L295.797 149.145L296.791 165.708H306.881L298.588 163.114L297.601 150.415L302.004 147.299Z" fill="#35211A"/>
<path d="M228.431 117.686H142.84V84.3127C142.84 84.3127 156.689 85.0129 174.214 89.4266C177.63 90.2846 181.19 91.2936 184.819 92.4605C186.726 93.0714 188.646 93.7304 190.574 94.4374C192.11 95.0071 193.661 95.5975 195.204 96.229C199.759 98.0754 204.293 100.21 208.676 102.674C209.622 103.203 210.569 103.752 211.495 104.315C217.662 108.042 223.444 112.456 228.424 117.68L228.431 117.686Z" fill="#F57B51"/>
<g opacity="0.4">
<path d="M184.819 92.4674L148.91 117.693H142.846V117.371L174.221 89.4403C177.637 90.2983 181.197 91.3074 184.826 92.4743L184.819 92.4674Z" fill="white"/>
<path d="M195.204 96.2359L161.689 117.686H156.86L190.574 94.4443C192.11 95.0141 193.661 95.6044 195.204 96.2359Z" fill="white"/>
<path d="M211.502 104.329L187.425 117.693H182.164L208.683 102.688C209.629 103.217 210.576 103.766 211.502 104.329Z" fill="white"/>
</g>
<path d="M275.095 128.079C275.095 128.079 275.033 128.079 275.006 128.072C258.262 124.921 227.642 124.811 227.333 124.811C227.052 124.811 226.819 124.564 226.819 124.255C226.819 123.947 227.052 123.699 227.333 123.699C227.642 123.699 258.351 123.809 275.177 126.974C275.459 127.029 275.644 127.317 275.596 127.619C275.555 127.887 275.335 128.079 275.088 128.079H275.095Z" fill="#AF203B"/>
<path d="M229.432 114.433C229.014 114.021 228.637 113.678 228.376 113.431C225.756 110.884 222.189 108.241 218.649 107.781C217.147 107.589 215.521 107.967 214.417 109.113C212.908 110.685 212.723 113.417 213.649 115.469C215.391 119.32 219.335 120.357 222.868 120.988C225.179 121.407 230.88 122.8 232.251 119.794C232.999 118.16 230.928 115.888 229.425 114.433H229.432Z" fill="#35211A"/>
<path d="M81.0297 132.135C81.0297 132.801 78.3134 133.344 74.9661 133.344C71.6187 133.344 68.9024 132.801 68.9024 132.135C68.9024 131.47 71.6187 130.927 74.9661 130.927C78.3134 130.927 81.0297 131.47 81.0297 132.135Z" fill="#35211A"/>
<path d="M135.287 124.811V165.132H103.597C103.597 165.132 98.5623 139.137 72.5859 139.137L55.753 129.122C53.8255 127.976 54.58 124.805 56.7819 124.805H135.294L135.287 124.811Z" stroke="#AF203B" stroke-width="2" stroke-linecap="round" stroke-linejoin="round"/>
<path d="M135.349 84.3196V117.686H50.142C45.5325 117.686 43.8725 111.296 47.851 108.845C58.6888 102.16 72.3184 93.751 92.869 88.7127C101.265 86.6535 110.813 85.1571 121.809 84.5736C126.096 84.3402 130.602 84.251 135.342 84.3196H135.349Z" fill="#F57B51"/>
<g opacity="0.4">
<path d="M121.816 84.5736L76.2968 117.686H61.4463L92.869 88.7127C101.265 86.6535 110.813 85.1571 121.809 84.5736H121.816Z" fill="white"/>
<path d="M135.349 86.1866V95.0826L101.258 117.686H91.2296L135.349 86.1866Z" fill="white"/>
</g>
</g>
<defs>
<clipPath id="clip0_31_503">
<rect width="313" height="196" fill="white"/>
</clipPath>
</defs>
</svg>
