<svg width="249" height="196" viewBox="0 0 249 196" fill="none" xmlns="http://www.w3.org/2000/svg">
<g id="Frame" clip-path="url(#clip0_31_299)">
<g id="Group">
<g id="Objects">
<g id="Group_2">
<g id="Group_3">
<path id="Vector" d="M235.643 177.263L41.9954 176.111L33.3962 86.5744L245.184 84.041L235.643 177.263Z" fill="#FDBB30"/>
<g id="Group_4">
<g id="Group_5">
<g id="Group_6">
<g id="Group_7">
<path id="Vector_2" d="M75.8835 105.23H50.2724V148.136H75.8835V105.23Z" fill="#7E4300"/>
<g id="Group_8">
<g id="Group_9">
<path id="Vector_3" d="M61.9585 107.108H52.3586V115.577H61.9585V107.108Z" fill="#47C3D3"/>
<path id="Vector_4" d="M73.8015 107.108H64.2016V115.577H73.8015V107.108Z" fill="#47C3D3"/>
</g>
<g id="Group_10">
<path id="Vector_5" d="M61.9585 117.333H52.3586V125.801H61.9585V117.333Z" fill="#47C3D3"/>
<path id="Vector_6" d="M73.8015 117.333H64.2016V125.801H73.8015V117.333Z" fill="#47C3D3"/>
</g>
<g id="Group_11">
<path id="Vector_7" d="M61.9585 127.561H52.3586V136.033H61.9585V127.561Z" fill="#47C3D3"/>
<path id="Vector_8" d="M73.8015 127.561H64.2016V136.033H73.8015V127.561Z" fill="#47C3D3"/>
</g>
<g id="Group_12">
<path id="Vector_9" d="M61.9585 137.789H52.3586V146.258H61.9585V137.789Z" fill="#47C3D3"/>
<path id="Vector_10" d="M73.8015 137.789H64.2016V146.258H73.8015V137.789Z" fill="#47C3D3"/>
</g>
</g>
</g>
<g id="Vector_11" style="mix-blend-mode:multiply" opacity="0.3">
<path d="M73.8015 107.108V146.258H63.0779L73.8015 107.108Z" fill="#009AC7"/>
</g>
</g>
<g id="Group_13">
<g id="Group_14">
<path id="Vector_12" d="M105.951 105.23H80.34V148.136H105.951V105.23Z" fill="#7E4300"/>
<g id="Group_15">
<g id="Group_16">
<path id="Vector_13" d="M92.0218 107.108H82.4219V115.577H92.0218V107.108Z" fill="#00B5CC"/>
<path id="Vector_14" d="M103.869 107.108H94.2692V115.577H103.869V107.108Z" fill="#00B5CC"/>
</g>
<g id="Group_17">
<path id="Vector_15" d="M92.0218 117.333H82.4219V125.801H92.0218V117.333Z" fill="#00B5CC"/>
<path id="Vector_16" d="M103.869 117.333H94.2692V125.801H103.869V117.333Z" fill="#00B5CC"/>
</g>
<g id="Group_18">
<path id="Vector_17" d="M92.0218 127.561H82.4219V136.033H92.0218V127.561Z" fill="#00B5CC"/>
<path id="Vector_18" d="M103.869 127.561H94.2692V136.033H103.869V127.561Z" fill="#00B5CC"/>
</g>
<g id="Group_19">
<path id="Vector_19" d="M92.0218 137.789H82.4219V146.258H92.0218V137.789Z" fill="#00B5CC"/>
<path id="Vector_20" d="M103.869 137.789H94.2692V146.258H103.869V137.789Z" fill="#00B5CC"/>
</g>
</g>
</g>
<g id="Vector_21" style="mix-blend-mode:multiply" opacity="0.3">
<path d="M103.869 107.108V146.258H93.1455L103.869 107.108Z" fill="#009AC7"/>
</g>
</g>
</g>
<g id="Group_20">
<g id="Group_21">
<g id="Group_22">
<path id="Vector_22" d="M196.845 105.23H171.234V148.136H196.845V105.23Z" fill="#7E4300"/>
<g id="Group_23">
<g id="Group_24">
<path id="Vector_23" d="M182.92 107.108H173.32V115.577H182.92V107.108Z" fill="#00B5CC"/>
<path id="Vector_24" d="M194.763 107.108H185.163V115.577H194.763V107.108Z" fill="#00B5CC"/>
</g>
<g id="Group_25">
<path id="Vector_25" d="M182.92 117.333H173.32V125.801H182.92V117.333Z" fill="#00B5CC"/>
<path id="Vector_26" d="M194.763 117.333H185.163V125.801H194.763V117.333Z" fill="#00B5CC"/>
</g>
<g id="Group_26">
<path id="Vector_27" d="M182.92 127.561H173.32V136.033H182.92V127.561Z" fill="#00B5CC"/>
<path id="Vector_28" d="M194.763 127.561H185.163V136.033H194.763V127.561Z" fill="#00B5CC"/>
</g>
<g id="Group_27">
<path id="Vector_29" d="M182.92 137.789H173.32V146.258H182.92V137.789Z" fill="#00B5CC"/>
<path id="Vector_30" d="M194.763 137.789H185.163V146.258H194.763V137.789Z" fill="#00B5CC"/>
</g>
</g>
</g>
<g id="Vector_31" style="mix-blend-mode:multiply" opacity="0.3">
<path d="M194.763 107.108V146.258H184.039L194.763 107.108Z" fill="#009AC7"/>
</g>
</g>
<g id="Group_28">
<g id="Group_29">
<path id="Vector_32" d="M226.913 105.23H201.301V148.136H226.913V105.23Z" fill="#7E4300"/>
<g id="Group_30">
<g id="Group_31">
<path id="Vector_33" d="M212.983 107.108H203.383V115.577H212.983V107.108Z" fill="#47C3D3"/>
<path id="Vector_34" d="M224.831 107.108H215.231V115.577H224.831V107.108Z" fill="#47C3D3"/>
</g>
<g id="Group_32">
<path id="Vector_35" d="M212.983 117.333H203.383V125.801H212.983V117.333Z" fill="#47C3D3"/>
<path id="Vector_36" d="M224.831 117.333H215.231V125.801H224.831V117.333Z" fill="#47C3D3"/>
</g>
<g id="Group_33">
<path id="Vector_37" d="M212.983 127.561H203.383V136.033H212.983V127.561Z" fill="#47C3D3"/>
<path id="Vector_38" d="M224.831 127.561H215.231V136.033H224.831V127.561Z" fill="#47C3D3"/>
</g>
<g id="Group_34">
<path id="Vector_39" d="M212.983 137.789H203.383V146.258H212.983V137.789Z" fill="#47C3D3"/>
<path id="Vector_40" d="M224.831 137.789H215.231V146.258H224.831V137.789Z" fill="#47C3D3"/>
</g>
</g>
</g>
<g id="Vector_41" style="mix-blend-mode:multiply" opacity="0.3">
<path d="M224.831 107.108V146.258H214.107L224.831 107.108Z" fill="#009AC7"/>
</g>
</g>
</g>
</g>
<g id="Group_35">
<path id="Vector_42" d="M221.438 87.7465C151.347 66.8748 87.7731 69.1514 19.3737 95.5359C11.6268 74.0932 7.74693 63.3719 0 41.9293C80.9548 16.9399 155.931 19.2504 235.185 49.7187C229.686 64.9325 226.938 72.5327 221.438 87.7465Z" fill="#ED1849"/>
<path id="Vector_43" d="M221.438 87.7465C226.938 72.5327 229.686 64.9325 235.185 49.7187L216.817 79.0215C111.87 50.8773 24.6274 82.7372 24.6274 82.7372L0 41.9293C7.74693 63.3719 11.6268 74.0899 19.3737 95.5325C87.7731 69.1515 151.347 66.8714 221.438 87.7432V87.7465Z" fill="#AB0634"/>
</g>
<g id="Group_36">
<path id="Vector_44" d="M200.207 15.3051C200.207 15.3051 217.983 19.7031 230.059 36.491C242.135 53.2789 245.222 69.4994 242.873 80.2376C242.873 80.2376 241.605 82.6832 237.988 82.3386C234.367 81.9975 217.037 81.8522 212.19 82.0312C207.352 82.2136 149.333 80.5652 147.722 78.5081C146.11 76.4544 190.883 23.7666 193.177 21.2974C195.471 18.8282 197.824 14.5687 200.207 15.3085V15.3051Z" fill="#9C5708"/>
<path id="Vector_45" d="M243.547 71.0667C243.555 71.1714 243.558 71.2795 243.562 71.3808C243.562 71.2761 243.555 71.1714 243.547 71.0667Z" fill="#F2A031"/>
<g id="Group_37">
<path id="Vector_46" d="M149.537 77.2988C149.537 77.2988 188.92 27.1411 191.553 25.5872C194.191 24.0301 213.157 37.001 218.64 44.1553C224.122 51.3096 229.796 67.8949 228.511 79.4438C228.511 79.4438 148.103 81.0888 149.537 77.3022V77.2988Z" fill="#FFE092"/>
<g id="Group_38">
<path id="Vector_47" d="M162.033 67.8779C162.779 65.9019 165.357 64.794 167.795 65.3952C170.233 65.9999 171.603 68.0874 170.857 70.06C170.114 72.0361 167.532 73.1474 165.094 72.5461C162.656 71.9415 161.282 69.854 162.028 67.8813L162.033 67.8779Z" fill="#241013"/>
<path id="Vector_48" d="M162.677 68.1381C163.143 66.8173 164.844 66.0539 166.476 66.4356C168.105 66.8173 169.042 68.1887 168.575 69.5095C168.109 70.8302 166.408 71.5902 164.78 71.2119C163.152 70.837 162.211 69.4588 162.677 68.1381Z" fill="#472027"/>
<path id="Vector_49" d="M163.699 68.888C163.941 68.2495 164.772 67.8915 165.56 68.0874C166.349 68.2799 166.79 68.9555 166.553 69.5939C166.311 70.2323 165.48 70.5904 164.691 70.3945C163.903 70.2019 163.462 69.5264 163.699 68.8913V68.888Z" fill="#241013"/>
<path id="Vector_50" opacity="0.5" d="M162.529 67.8002C162.363 67.3949 162.953 66.8781 163.839 66.6484C164.734 66.4153 165.582 66.5572 165.747 66.9625C165.908 67.3645 165.319 67.8847 164.424 68.1178C163.538 68.3508 162.681 68.209 162.524 67.8036L162.529 67.8002Z" fill="#8B6A7A"/>
<path id="Vector_51" d="M163.775 71.1849C164.076 70.4519 164.708 70.8336 165.849 70.9214C166.985 71.0058 167.731 70.6309 167.91 71.4956C168.011 72.0226 166.871 72.3907 165.734 72.3063C164.594 72.2185 163.572 71.6882 163.78 71.1849H163.775Z" fill="#D9C5D6"/>
</g>
<g id="Group_39">
<path id="Vector_52" d="M189.017 58.491C189.615 56.9135 191.676 56.0285 193.622 56.5082C195.569 56.9878 196.663 58.6565 196.069 60.2339C195.475 61.808 193.419 62.6964 191.468 62.2134C189.522 61.7337 188.424 60.065 189.017 58.491Z" fill="#241013"/>
<path id="Vector_53" d="M189.535 58.6971C189.912 57.6466 191.269 57.0352 192.571 57.3392C193.873 57.6432 194.623 58.741 194.25 59.7915C193.881 60.842 192.52 61.4534 191.222 61.1494C189.921 60.8454 189.166 59.7476 189.539 58.6971H189.535Z" fill="#472027"/>
<path id="Vector_54" d="M190.353 59.2982C190.544 58.7882 191.21 58.5011 191.841 58.6565C192.469 58.8118 192.825 59.3523 192.63 59.859C192.439 60.369 191.774 60.6561 191.146 60.5008C190.519 60.3454 190.167 59.8049 190.357 59.2982H190.353Z" fill="#241013"/>
<path id="Vector_55" opacity="0.5" d="M189.416 58.4302C189.289 58.1059 189.76 57.6938 190.468 57.5046C191.18 57.3189 191.863 57.4303 191.986 57.758C192.113 58.0823 191.646 58.4944 190.934 58.6801C190.222 58.8659 189.543 58.7511 189.416 58.4302Z" fill="#8B6A7A"/>
<path id="Vector_56" d="M190.413 61.1291C190.65 60.5447 191.159 60.8521 192.066 60.9196C192.978 60.9872 193.572 60.6866 193.707 61.3757C193.796 61.7979 192.88 62.0918 191.969 62.0208C191.057 61.9533 190.247 61.5344 190.408 61.1257L190.413 61.1291Z" fill="#D9C5D6"/>
</g>
<g id="Group_40">
<path id="Vector_57" d="M211.974 74.6709C210.558 72.5563 211.529 69.9182 214.132 68.7664C216.744 67.6213 220.009 68.4016 221.426 70.5161C222.842 72.6306 221.875 75.2721 219.263 76.4206C216.655 77.5657 213.39 76.782 211.974 74.6709Z" fill="#241013"/>
<path id="Vector_58" d="M212.771 74.4514C211.8 73.0631 212.407 71.2931 214.124 70.506C215.846 69.719 218.025 70.2088 218.996 71.6004C219.967 72.9921 219.365 74.7587 217.643 75.5458C215.922 76.3294 213.742 75.8396 212.771 74.448V74.4514Z" fill="#472027"/>
<path id="Vector_59" d="M214.378 74.3737C213.92 73.6947 214.234 72.8401 215.078 72.4719C215.926 72.097 216.969 72.3537 217.431 73.036C217.889 73.7184 217.58 74.5696 216.732 74.9411C215.892 75.3093 214.841 75.0594 214.383 74.3737H214.378Z" fill="#241013"/>
<path id="Vector_60" opacity="0.5" d="M212.305 74.2791C211.754 74.0561 211.707 73.2353 212.195 72.4483C212.682 71.6579 213.522 71.2019 214.073 71.4214C214.62 71.6444 214.671 72.4618 214.179 73.2522C213.691 74.0392 212.852 74.4953 212.305 74.2757V74.2791Z" fill="#8B6A7A"/>
<path id="Vector_61" d="M216.795 76.2045C216.287 75.4005 217.198 75.2924 218.22 74.5966C219.238 73.8974 219.458 73.0934 220.484 73.6778C221.12 74.0392 220.565 75.1067 219.543 75.8025C218.521 76.5017 217.143 76.755 216.795 76.2045Z" fill="#D9C5D6"/>
</g>
<g id="Group_41">
<path id="Vector_62" d="M191.422 32.5895C193.449 30.8296 196.849 30.7317 199.024 32.3699C201.195 34.0082 201.318 36.7645 199.292 38.521C197.265 40.2809 193.868 40.3754 191.693 38.7406C189.522 37.1023 189.399 34.346 191.426 32.5895H191.422Z" fill="#241013"/>
<path id="Vector_63" d="M191.935 33.1265C193.258 31.9409 195.522 31.8429 196.981 32.9103C198.448 33.9811 198.571 35.8119 197.244 37.0009C195.925 38.1865 193.665 38.2845 192.198 37.2137C190.726 36.1463 190.608 34.3155 191.931 33.1265H191.935Z" fill="#472027"/>
<path id="Vector_64" d="M192.541 34.3392C193.194 33.7683 194.288 33.7413 194.992 34.2683C195.696 34.7952 195.734 35.687 195.077 36.2544C194.424 36.8219 193.33 36.8557 192.626 36.322C191.926 35.7951 191.884 34.9033 192.541 34.3358V34.3392Z" fill="#241013"/>
<path id="Vector_65" opacity="0.5" d="M191.994 32.7179C192.079 32.2247 193.025 31.9275 194.097 32.0525C195.179 32.1774 195.98 32.674 195.895 33.1671C195.81 33.6603 194.865 33.9576 193.788 33.8326C192.715 33.7076 191.905 33.2077 191.994 32.7179Z" fill="#8B6A7A"/>
<path id="Vector_66" d="M191.163 36.7747C191.939 36.1295 192.363 36.795 193.499 37.3557C194.64 37.9164 195.653 37.832 195.293 38.8082C195.068 39.4027 193.639 39.3182 192.503 38.7575C191.367 38.1968 190.629 37.2206 191.163 36.7747Z" fill="#D9C5D6"/>
</g>
<g id="Group_42">
<path id="Vector_67" d="M182.475 60.3623C187.525 62.9092 188.958 68.432 185.676 72.6915C182.394 76.9577 175.635 78.3426 170.589 75.7957L182.475 60.3623Z" fill="#D11242"/>
<path id="Vector_68" d="M181.953 61.0413C186.558 63.3652 187.868 68.4016 184.875 72.2895C181.881 76.1774 175.72 77.4407 171.115 75.1168L181.953 61.0413Z" fill="#EC0012"/>
<path id="Vector_69" d="M179.345 64.4259C181.733 65.6318 182.407 68.2428 180.859 70.2628C179.307 72.2794 176.11 72.9347 173.719 71.7288L179.345 64.4225V64.4259Z" fill="#F2613B"/>
<g id="Group_43">
<path id="Vector_70" d="M184.171 65.2197C184.171 65.2197 183.916 64.4461 183.302 64.5576C182.695 64.6691 181.996 64.7839 182.305 65.2703C182.619 65.75 184.569 65.7838 184.167 65.2197H184.171Z" fill="#FFA23B"/>
<path id="Vector_71" d="M184.646 69.0265C184.646 69.0265 184.79 68.226 184.175 68.1381C183.556 68.0469 182.856 67.9287 182.907 68.4726C182.962 69.0164 184.735 69.6717 184.646 69.0265Z" fill="#FFA23B"/>
<path id="Vector_72" d="M183.018 72.3233C183.018 72.3233 183.463 71.6038 182.912 71.3606C182.365 71.114 181.75 70.8235 181.584 71.3505C181.423 71.8808 182.848 72.9516 183.013 72.3233H183.018Z" fill="#FFA23B"/>
<path id="Vector_73" d="M179.312 74.4818C179.312 74.4818 179.99 73.8974 179.549 73.536C179.112 73.1711 178.625 72.7489 178.281 73.2218C177.938 73.688 178.93 75.0459 179.312 74.4818Z" fill="#FFA23B"/>
<path id="Vector_74" d="M174.69 74.85C174.69 74.85 175.661 74.6912 175.555 74.1879C175.457 73.688 175.351 73.1171 174.741 73.3401C174.126 73.5698 173.969 75.1371 174.69 74.85Z" fill="#FFA23B"/>
</g>
</g>
<g id="Group_44">
<path id="Vector_75" d="M200.542 65.581C200.004 60.7845 204.583 56.5284 210.757 56.0825C216.935 55.6333 222.376 59.1597 222.91 63.9597L200.538 65.581H200.542Z" fill="#D11242"/>
<path id="Vector_76" d="M201.522 65.5101C201.039 61.1324 205.211 57.2546 210.851 56.8459C216.486 56.4338 221.443 59.6495 221.93 64.0272L201.522 65.5101Z" fill="#EC0012"/>
<path id="Vector_77" d="M206.432 65.1521C206.182 62.8822 208.349 60.869 211.27 60.6595C214.196 60.4467 216.766 62.1154 217.02 64.3819L206.432 65.1521Z" fill="#F2613B"/>
<g id="Group_45">
<path id="Vector_78" d="M204.304 61.5614C204.304 61.5614 203.693 62.1964 204.168 62.5207C204.647 62.8517 205.181 63.2334 205.47 62.7335C205.758 62.2471 204.617 60.9669 204.304 61.5647V61.5614Z" fill="#FFA23B"/>
<path id="Vector_79" d="M207.768 58.9604C207.768 58.9604 206.894 59.3454 207.178 59.8015C207.458 60.2541 207.764 60.7743 208.268 60.4129C208.773 60.0514 208.345 58.5145 207.768 58.9637V58.9604Z" fill="#FFA23B"/>
<path id="Vector_80" d="M212 58.0248C212 58.0248 211.024 58.17 211.113 58.6699C211.198 59.1732 211.283 59.7475 211.906 59.5313C212.525 59.3185 212.729 57.7511 212 58.0248Z" fill="#FFA23B"/>
<path id="Vector_81" d="M216.359 59.1157C216.359 59.1157 215.375 59.0279 215.282 59.5312C215.188 60.0345 215.061 60.5986 215.735 60.5412C216.401 60.477 217.147 59.0212 216.359 59.1157Z" fill="#FFA23B"/>
<path id="Vector_82" d="M219.509 61.8823C219.509 61.8823 218.759 61.352 218.335 61.7202C217.902 62.0884 217.397 62.4971 217.987 62.7572C218.58 63.0173 220.226 62.1694 219.513 61.8823H219.509Z" fill="#FFA23B"/>
</g>
</g>
<g id="Group_46">
<path id="Vector_83" d="M201.463 50.2794C197.735 54.0356 190.794 54.5254 185.964 51.3772C181.126 48.2324 180.232 42.6353 183.967 38.8792L201.467 50.2794H201.463Z" fill="#D11242"/>
<path id="Vector_84" d="M200.695 49.7795C197.294 53.2013 190.964 53.6539 186.554 50.7794C182.148 47.9082 181.334 42.8043 184.735 39.3859L200.695 49.7829V49.7795Z" fill="#EC0012"/>
<path id="Vector_85" d="M196.858 47.2799C195.09 49.0533 191.803 49.283 189.518 47.8001C187.232 46.3105 186.813 43.6622 188.576 41.8855L196.858 47.2799Z" fill="#F2613B"/>
<g id="Group_47">
<path id="Vector_86" d="M195.306 51.0597C195.306 51.0597 196.289 50.9449 196.226 50.4416C196.167 49.9383 196.107 49.3607 195.475 49.5566C194.844 49.7491 194.568 51.3097 195.306 51.0597Z" fill="#FFA23B"/>
<path id="Vector_87" d="M190.582 50.9888C190.582 50.9888 191.54 51.1982 191.727 50.7152C191.918 50.2322 192.143 49.6816 191.468 49.6613C190.794 49.6377 189.785 50.9854 190.582 50.9888Z" fill="#FFA23B"/>
<path id="Vector_88" d="M186.728 49.2796C186.728 49.2796 187.559 49.7288 187.928 49.3167C188.297 48.908 188.729 48.4453 188.097 48.2493C187.466 48.0534 185.981 49.0735 186.732 49.2796H186.728Z" fill="#FFA23B"/>
<path id="Vector_89" d="M184.531 46.0469C184.531 46.0469 185.172 46.6685 185.663 46.3577C186.164 46.0469 186.732 45.7091 186.202 45.3747C185.668 45.0437 183.883 45.6754 184.531 46.0503V46.0469Z" fill="#FFA23B"/>
<path id="Vector_90" d="M184.637 42.2841C184.637 42.2841 184.722 43.088 185.345 43.061C185.969 43.0407 186.681 43.0272 186.486 42.507C186.287 41.9834 184.37 41.6727 184.637 42.2807V42.2841Z" fill="#FFA23B"/>
</g>
</g>
<g id="Group_48">
<path id="Vector_91" d="M183.662 56.0454C183.662 56.0454 182.271 56.5453 180.075 57.5587C177.9 58.5653 176.047 62.3012 176.047 62.3012L173.252 62.3755C173.252 62.3755 175.067 59.6225 175.194 59.1834C175.313 58.7544 170.276 56.2312 173.138 51.6812L175.542 51.4785C175.542 51.4785 173.337 56.0589 176.123 57.6566C176.123 57.6566 179.011 56.1737 181.037 55.5995L183.658 56.042L183.662 56.0454Z" fill="#75A633"/>
<path id="Vector_92" d="M180.075 57.5553C182.271 56.5419 183.662 56.042 183.662 56.042C183.662 56.042 180.516 56.346 179.112 57.5215C177.696 58.7004 173.256 62.3721 173.256 62.3721L176.051 62.2978C176.051 62.2978 177.904 58.5619 180.079 57.5553H180.075Z" fill="#5E8934"/>
<path id="Vector_93" d="M174.338 51.5868C174.24 51.7658 173.888 52.5562 173.833 54.5694C173.761 57.1028 176.017 57.6872 176.017 57.6872V57.5926C173.409 55.9374 175.546 51.4821 175.546 51.4821L174.338 51.5868Z" fill="#5E8934"/>
</g>
<g id="Group_49">
<path id="Vector_94" d="M193.011 78.1165C193.011 78.1165 193.499 76.7518 194.029 74.4245C194.551 72.1208 191.845 68.02 191.845 68.02L193.843 65.9663C193.843 65.9663 195.496 69.3104 195.878 69.7292C196.259 70.1346 202.756 68.4051 205.592 73.8333L204.028 75.7013C204.028 75.7013 200.665 70.7223 196.853 71.5229C196.853 71.5229 196.319 74.6913 195.445 76.5694L193.016 78.1165H193.011Z" fill="#75A633"/>
<path id="Vector_95" d="M194.029 74.4243C193.504 76.7483 193.012 78.1163 193.012 78.1163C193.012 78.1163 195.017 75.6403 194.78 73.7589C194.543 71.874 193.839 65.9628 193.839 65.9628L191.841 68.0165C191.841 68.0165 194.547 72.1172 194.025 74.4209L194.029 74.4243Z" fill="#5E8934"/>
<path id="Vector_96" d="M204.808 74.7621C204.685 74.5527 204.083 73.7183 201.929 72.1814C199.215 70.2459 196.904 71.4282 196.904 71.4282L197.002 71.5025C200.754 70.8641 204.024 75.7011 204.024 75.7011L204.808 74.7621Z" fill="#5E8934"/>
</g>
<g id="Group_50">
<path id="Vector_97" d="M204.138 51.4619C204.138 51.4619 205.037 50.3978 206.296 48.513C207.543 46.6518 206.636 42.5038 206.636 42.5038L209.07 41.1898C209.07 41.1898 209.332 44.4461 209.519 44.8919C209.706 45.3277 215.901 45.3176 216.456 50.6377L214.459 51.8875C214.459 51.8875 213.289 46.8376 209.731 46.6586C209.731 46.6586 208.179 49.2663 206.767 50.6816L204.134 51.4619H204.138Z" fill="#75A633"/>
<path id="Vector_98" d="M206.296 48.5127C205.037 50.3976 204.138 51.4616 204.138 51.4616C204.138 51.4616 206.729 49.7862 207.174 48.1141C207.623 46.432 209.069 41.1862 209.069 41.1862L206.635 42.5001C206.635 42.5001 207.539 46.6515 206.296 48.5093V48.5127Z" fill="#5E8934"/>
<path id="Vector_99" d="M215.464 51.2556C215.426 51.0461 215.201 50.1915 213.878 48.3776C212.212 46.0942 209.812 46.5874 209.812 46.5874L209.867 46.6718C213.318 46.9758 214.459 51.8838 214.459 51.8838L215.46 51.2556H215.464Z" fill="#5E8934"/>
</g>
</g>
</g>
<path id="Vector_100" d="M244.76 169.666H33.5658V193.028H244.76V169.666Z" fill="#663700"/>
<path id="Vector_101" d="M159.811 92.8674H117.425V176.017H159.811V92.8674Z" fill="#7E4300"/>
<path id="Vector_102" d="M122.844 148.376C122.844 149.132 122.085 149.75 121.148 149.75C120.211 149.75 119.448 149.132 119.448 148.376C119.448 147.619 120.207 147.001 121.148 147.001C122.089 147.001 122.844 147.619 122.844 148.376Z" fill="#663700"/>
<path id="Vector_103" d="M151.186 151.895H125.465V171.983H151.186V151.895Z" fill="#663700"/>
<g id="Group_51">
<g id="Group_52">
<path id="Vector_104" d="M164.793 178.02H111.896V182.529H164.793V178.02Z" fill="#9C9C9C"/>
<path id="Vector_105" d="M164.793 178.02H111.896L117.175 176.111H159.518L164.793 178.02Z" fill="#D2D2D3"/>
</g>
<g id="Group_53">
<path id="Vector_106" d="M171.387 184.259H105.307V188.768H171.387V184.259Z" fill="#9C9C9C"/>
<path id="Vector_107" d="M171.387 184.259H105.307L111.896 182.353H164.793L171.387 184.259Z" fill="#D2D2D3"/>
</g>
<g id="Group_54">
<path id="Vector_108" d="M179.731 190.427H96.0331V196H179.731V190.427Z" fill="#9C9C9C"/>
<path id="Vector_109" d="M179.731 190.427H96.0331L104.382 188.518H171.387L179.731 190.427Z" fill="#D2D2D3"/>
</g>
</g>
<g id="Group_55">
<path id="Vector_110" d="M249 99.0117L29.5036 91.1717V80.697L249 70.7256V99.0117Z" fill="#663700"/>
<path id="Vector_111" d="M249 73.9413L29.5036 82.6933V78.5892L249 67.3207V73.9413Z" fill="#531F1F"/>
</g>
<g id="Group_56">
<g id="Group_57">
<g id="Group_58">
<path id="Vector_112" d="M137.032 109.253H125.957V117.725H137.032V109.253Z" fill="#47C3D3"/>
<path id="Vector_113" d="M150.69 109.253H139.619V117.725H150.69V109.253Z" fill="#47C3D3"/>
</g>
<g id="Group_59">
<path id="Vector_114" d="M137.032 119.482H125.957V127.953H137.032V119.482Z" fill="#47C3D3"/>
<path id="Vector_115" d="M150.69 119.482H139.619V127.953H150.69V119.482Z" fill="#47C3D3"/>
</g>
<g id="Group_60">
<path id="Vector_116" d="M137.032 129.71H125.957V138.181H137.032V129.71Z" fill="#47C3D3"/>
<path id="Vector_117" d="M150.69 129.71H139.619V138.181H150.69V129.71Z" fill="#47C3D3"/>
</g>
<g id="Group_61">
<path id="Vector_118" d="M137.032 139.938H125.957V148.41H137.032V139.938Z" fill="#47C3D3"/>
<path id="Vector_119" d="M150.69 139.938H139.619V148.41H150.69V139.938Z" fill="#47C3D3"/>
</g>
</g>
<g id="Vector_120" style="mix-blend-mode:multiply" opacity="0.3">
<path d="M150.69 109.253V148.406H138.321L150.69 109.253Z" fill="#009AC7"/>
</g>
</g>
</g>
<g id="Group_62">
<path id="Vector_121" style="mix-blend-mode:multiply" d="M123.79 38.082C123.79 38.082 120.872 27.3269 123.493 23.9625C126.118 20.5982 135.374 16.44 131.206 7.64411C127.034 -1.15182 114.512 4.54662 112.528 7.18135C112.528 7.18135 108.211 0.638443 95.5836 2.58747C82.9604 4.53649 85.7039 13.4034 85.7039 13.4034C85.7039 13.4034 73.1739 15.403 74.2128 24.8914C75.2517 34.3798 92.6282 31.8329 92.6282 31.8329L94.3243 42.1219C94.3243 42.1219 104.107 44.0135 109.776 41.7571C115.445 39.5007 123.786 38.0853 123.786 38.0853L123.79 38.082Z" fill="url(#paint0_linear_31_299)"/>
<g id="Group_63">
<g id="Group_64">
<path id="Vector_122" d="M124.625 35.8559C124.625 35.8559 121.708 25.1008 124.328 21.7365C126.953 18.3721 136.209 14.214 132.041 5.41804C127.869 -3.37789 115.347 2.32055 113.363 4.95527C113.363 4.95527 109.046 -1.58763 96.4232 0.361391C83.8 2.31041 86.5434 11.1773 86.5434 11.1773C86.5434 11.1773 74.0135 13.177 75.0524 22.6654C76.0912 32.1538 93.4678 29.6069 93.4678 29.6069L95.1639 39.8958C95.1639 39.8958 104.946 41.7874 110.62 39.531C116.289 37.2746 124.625 35.8593 124.625 35.8593V35.8559Z" fill="white"/>
<path id="Vector_123" d="M122.513 34.015C122.513 34.015 119.982 25.5804 121.462 23.6382C121.462 23.6382 114.605 24.0503 110.56 25.4825C106.515 26.9147 99.349 28.9955 96.6564 29.1542C96.6564 29.1542 103.627 29.2691 109.869 27.3133C116.115 25.3609 119.028 25.6041 119.028 25.6041C119.028 25.6041 119.058 30.6979 120.156 32.6064C120.156 32.6064 114.245 34.2582 109.772 37.4164C109.772 37.4164 118.311 33.515 122.509 34.015H122.513Z" fill="#DDF2F5"/>
<path id="Vector_124" d="M80.2594 17.7811C80.2594 17.7811 84.4869 13.5689 93.0353 14.8761C93.0353 14.8761 84.2028 11.0085 80.2594 17.7811Z" fill="#DDF2F5"/>
<path id="Vector_125" d="M91.6953 4.18173C91.6953 4.18173 104.327 -0.540507 112.638 8.79588C112.638 8.79588 106.6 -3.56707 91.6953 4.18173Z" fill="#DDF2F5"/>
<path id="Vector_126" d="M125.21 5.15466C125.21 5.15466 127.674 16.3928 118.617 19.7943C118.617 19.7943 131.537 15.9874 125.21 5.15466Z" fill="#DDF2F5"/>
<path id="Vector_127" d="M85.7039 26.9891C85.7039 26.9891 92.7342 28.6139 100.142 26.3879C107.554 24.1619 115.186 22.3412 118.053 22.375C118.053 22.375 109.496 22.4797 104.001 24.1146C98.5052 25.7461 88.5279 27.462 85.7039 26.9891Z" fill="#DDF2F5"/>
</g>
<g id="Group_65" style="mix-blend-mode:multiply">
<path id="Vector_128" d="M110.013 26.0028C107.418 26.5095 105.277 27.1749 105.277 27.1749C107.054 26.8101 108.622 26.4115 110.013 26.0028Z" fill="#E6E7E8"/>
<path id="Vector_129" d="M110.62 39.5277C116.289 37.2713 124.625 35.8559 124.625 35.8559C124.625 35.8559 121.708 25.1009 124.328 21.7365C126.953 18.3722 136.209 14.214 132.041 5.4181C128.234 -2.61106 117.476 1.43561 114.114 4.20545C114.245 4.13114 122.276 -0.276961 127.661 4.96547C133.089 10.2518 128.827 18.3451 119.795 20.9427C119.795 20.9427 104.001 24.1111 89.5371 29.8974C93.3787 29.1442 112.248 27.9957 114.253 26.4756C118.231 23.4558 117.09 35.7343 109.776 37.4098C102.466 39.0886 95.1639 39.8857 95.1639 39.8857C95.1639 39.8857 104.946 41.7773 110.62 39.5209V39.5277Z" fill="#E6F5FD"/>
</g>
</g>
</g>
<g id="Group_66">
<path id="Vector_130" fill-rule="evenodd" clip-rule="evenodd" d="M171.921 22.1858L184.404 23.895L167.659 39.0649L171.921 22.1858Z" fill="#663700"/>
<path id="Vector_131" fill-rule="evenodd" clip-rule="evenodd" d="M158.963 23.0674L166.023 19.4329L166.4 32.8261L158.963 23.0674Z" fill="#663700"/>
</g>
</g>
</g>
</g>
</g>
<defs>
<linearGradient id="paint0_linear_31_299" x1="84.2668" y1="41.5726" x2="91.4549" y2="31.2546" gradientUnits="userSpaceOnUse">
<stop stop-color="white" stop-opacity="0"/>
<stop offset="1" stop-color="#939598"/>
</linearGradient>
<clipPath id="clip0_31_299">
<rect width="249" height="196" fill="white"/>
</clipPath>
</defs>
</svg>
