<svg width="313" height="196" viewBox="0 0 313 196" fill="none" xmlns="http://www.w3.org/2000/svg">
<rect width="313" height="196" fill="white"/>
<g clip-path="url(#clip0_31_509)">
<path d="M173.794 118.599C173.541 118.599 173.28 118.536 173.051 118.395C172.374 118 172.153 117.141 172.57 116.487L190.304 88.2383C190.712 87.5841 191.602 87.3712 192.28 87.7732C192.957 88.1673 193.178 89.0265 192.762 89.6807L175.027 117.929C174.758 118.363 174.284 118.599 173.794 118.599Z" fill="#774406"/>
<path d="M222.172 131.384C221.38 131.384 220.735 130.761 220.735 129.997V94.5044C220.735 93.7399 221.38 93.1172 222.172 93.1172C222.964 93.1172 223.609 93.7399 223.609 94.5044V129.997C223.609 130.761 222.964 131.384 222.172 131.384Z" fill="#774406"/>
<path d="M254.554 120.822C254.007 120.822 253.484 120.523 253.239 120.01L239.391 90.6187C239.065 89.9172 239.383 89.0974 240.102 88.7822C240.828 88.459 241.678 88.7743 242.004 89.4679L255.852 118.86C256.179 119.561 255.86 120.381 255.142 120.696C254.946 120.783 254.75 120.822 254.546 120.822H254.554Z" fill="#774406"/>
<path d="M204.601 116.928C204.535 116.928 204.47 116.928 204.405 116.913C203.621 116.81 203.066 116.109 203.172 115.344L206.201 94.197C206.307 93.4403 207.042 92.9044 207.826 93.0068C208.61 93.1093 209.165 93.8108 209.059 94.5753L206.03 115.723C205.932 116.416 205.311 116.921 204.609 116.921L204.601 116.928Z" fill="#774406"/>
<path d="M266.205 53.9122C265.103 54.8107 263.943 56.4265 262.849 58.3891C262.849 58.3891 262.809 58.4758 262.743 58.5862C260.996 61.7863 259.42 65.877 258.481 69.4238C256.938 75.2407 254.619 84.7857 243.498 90.2952C237.709 93.1721 229.512 95.4815 220.792 96.3564C212.774 97.1604 204.307 96.7584 196.885 94.4726C189.961 92.3366 185.723 89.4597 183.462 86.0941C180.653 81.9482 180.849 77.0614 182.637 71.9618C182.931 71.1342 183.258 70.3697 183.617 69.6682C187.299 62.4877 194.427 61.3212 199.628 60.2808C203.939 59.4296 208.177 57.8138 212.774 53.2422C214.268 51.7604 215.795 49.9712 217.379 47.8037C217.395 47.7879 217.395 47.7801 217.395 47.7801C223.886 38.8656 226.662 35.4133 236.085 33.3325C245.507 31.2595 252.97 31.7009 254.929 32.0004C264.515 33.4586 269.251 34.8379 271.953 37.8252C272.688 38.637 273.276 39.5592 273.766 40.639C276.085 45.7071 269.128 51.5161 266.197 53.9122H266.205Z" fill="#C82633"/>
<path d="M262.694 58.681C262 59.9657 261.339 61.3924 260.726 62.8584C259.828 65.0338 259.045 67.3275 258.489 69.4162C256.946 75.233 254.627 84.7781 243.507 90.2875C238.208 92.9201 230.892 95.0797 222.996 96.0886C222.27 96.1911 221.535 96.2699 220.8 96.3487C220.8 96.3487 220.8 96.3487 220.816 96.3487C228.851 92.857 230.843 81.0499 234.125 75.4301C237.416 69.8181 244.127 69.1167 252.472 65.9875C259.543 63.3313 262.09 59.7135 262.702 58.6731L262.694 58.681Z" fill="#C82633"/>
<path d="M212.774 53.2346C211.867 54.4406 210.969 55.749 210.226 57.0258C209.581 58.1451 209.042 59.2485 208.74 60.2732C207.197 65.3964 205.907 79.1977 183.462 86.0944C180.653 81.9485 180.849 77.0617 182.637 71.9621C182.931 71.1345 183.258 70.3699 183.617 69.6684C187.299 62.488 194.427 61.3215 199.628 60.2811C203.939 59.4298 208.177 57.814 212.774 53.2425V53.2346Z" fill="#C82633"/>
<path opacity="0.3" d="M271.953 37.8176C259.6 29.4469 227.781 31.9692 221.567 43.8866C218.718 49.3488 214.554 53.8021 210.226 57.0179C205.123 60.8249 199.8 62.9136 196.158 62.9136C189.438 62.9136 183.625 69.6527 183.625 69.6527C187.307 62.4722 194.435 61.3057 199.636 60.2653C203.947 59.4141 208.185 57.7983 212.782 53.2267C214.276 51.7449 215.803 49.9557 217.387 47.7882C217.403 47.7724 217.403 47.7646 217.403 47.7646C223.894 38.8501 226.67 35.3978 236.093 33.317C245.515 31.244 252.978 31.6854 254.938 31.9849C264.523 33.4431 269.259 34.8224 271.961 37.8097L271.953 37.8176Z" fill="white"/>
<path opacity="0.3" d="M262.694 58.681C262 59.9658 261.339 61.3924 260.726 62.8585C257.567 65.2073 253.239 67.6743 248.014 68.7699C236.615 71.166 235.162 73.9483 231.904 84.2421C229.275 92.5418 224.678 95.332 223.004 96.0966C222.278 96.199 221.543 96.2779 220.808 96.3567C220.808 96.3567 220.808 96.3567 220.824 96.3567C228.859 92.865 230.851 81.0578 234.133 75.438C237.424 69.8261 244.135 69.1246 252.48 65.9955C259.551 63.3393 262.098 59.7214 262.711 58.681H262.694Z" fill="white"/>
<path d="M143.682 120.444C143.935 120.444 144.196 120.381 144.425 120.239C145.103 119.845 145.323 118.986 144.907 118.331L127.173 90.0826C126.764 89.4284 125.874 89.2156 125.197 89.6176C124.519 90.0117 124.299 90.8708 124.715 91.525L142.449 119.774C142.719 120.207 143.192 120.444 143.682 120.444Z" fill="#774406"/>
<path d="M95.3048 133.228C96.0968 133.228 96.7419 132.606 96.7419 131.841V96.3486C96.7419 95.5841 96.0968 94.9614 95.3048 94.9614C94.5128 94.9614 93.8678 95.5841 93.8678 96.3486V131.841C93.8678 132.606 94.5128 133.228 95.3048 133.228Z" fill="#774406"/>
<path d="M62.9227 122.666C63.4697 122.666 63.9923 122.367 64.2373 121.855L78.085 92.4629C78.4116 91.7614 78.0932 90.9417 77.3746 90.6264C76.648 90.3032 75.7988 90.6185 75.4722 91.3121L61.6245 120.704C61.2979 121.405 61.6163 122.225 62.3348 122.54C62.5308 122.627 62.7267 122.666 62.9309 122.666H62.9227Z" fill="#774406"/>
<path d="M112.876 118.773C112.941 118.773 113.006 118.773 113.072 118.757C113.856 118.655 114.411 117.953 114.305 117.189L111.275 96.0414C111.169 95.2847 110.434 94.7487 109.651 94.8512C108.867 94.9536 108.312 95.6551 108.418 96.4197L111.447 117.567C111.545 118.261 112.165 118.765 112.868 118.765L112.876 118.773Z" fill="#774406"/>
<path d="M51.2713 55.7567C52.3736 56.6553 53.533 58.2711 54.6271 60.2337C54.6271 60.2337 54.6679 60.3204 54.7333 60.4307C56.4806 63.6308 58.0564 67.7215 58.9954 71.2684C60.5385 77.0852 62.8574 86.6303 73.978 92.1476C79.767 95.0245 87.9646 97.3339 96.6847 98.2088C104.703 99.0128 113.17 98.6108 120.592 96.325C127.516 94.189 131.753 91.3121 134.015 87.9465C136.824 83.8006 136.628 78.9138 134.839 73.8142C134.546 72.9866 134.219 72.2221 133.86 71.5206C130.177 64.3402 123.049 63.1736 117.848 62.1332C113.537 61.282 109.3 59.6662 104.703 55.0947C103.208 53.6129 101.682 51.8237 100.098 49.6561C100.081 49.6404 100.081 49.6325 100.081 49.6325C93.5902 40.718 90.8141 37.2657 81.3918 35.1849C71.9694 33.1119 64.5067 33.5533 62.5471 33.8529C52.9615 35.311 48.2258 36.6903 45.5232 39.6776C44.7884 40.4894 44.2005 41.4116 43.7106 42.4914C41.3918 47.5595 48.3483 53.3685 51.2795 55.7646L51.2713 55.7567Z" fill="#909A9C"/>
<path d="M54.7823 60.5253C55.4763 61.81 56.1377 63.2366 56.75 64.7027C57.6482 66.8781 58.432 69.1718 58.9872 71.2605C60.5304 77.0773 62.8492 86.6223 73.9699 92.1397C79.2689 94.7723 86.5847 96.9319 94.4802 97.9408C95.2069 98.0433 95.9417 98.1221 96.6766 98.2009C96.6766 98.2009 96.6766 98.2009 96.6602 98.2009C88.6259 94.7092 86.6337 82.9021 83.3514 77.2823C80.0609 71.6703 73.3493 70.9688 65.0048 67.8397C57.9339 65.1835 55.3865 61.5657 54.7741 60.5253H54.7823Z" fill="#7C8384"/>
<path d="M104.703 55.0789C105.609 56.2848 106.507 57.5932 107.25 58.8701C107.895 59.9893 108.434 61.0928 108.736 62.1174C110.279 67.2407 111.569 81.0419 134.015 87.9386C136.824 83.7927 136.628 78.9059 134.839 73.8063C134.546 72.9787 134.219 72.2142 133.86 71.5127C130.177 64.3323 123.049 63.1657 117.848 62.1253C113.537 61.2741 109.3 59.6583 104.703 55.0867V55.0789Z" fill="#7C8384"/>
<path opacity="0.3" d="M45.5232 39.6697C57.8768 31.2991 89.6956 33.8213 95.9091 45.7388C98.7586 51.201 102.923 55.6543 107.25 58.8701C112.353 62.6771 117.677 64.7658 121.318 64.7658C128.038 64.7658 133.852 71.5049 133.852 71.5049C130.169 64.3244 123.041 63.1579 117.84 62.1175C113.529 61.2662 109.291 59.6504 104.695 55.0789C103.2 53.5971 101.674 51.8079 100.09 49.6404C100.073 49.6246 100.073 49.6167 100.073 49.6167C93.5821 40.7023 90.806 37.25 81.3837 35.1691C71.9613 33.0962 64.4986 33.5376 62.539 33.8371C52.9533 35.2953 48.2177 36.6746 45.5151 39.6619L45.5232 39.6697Z" fill="white"/>
<path opacity="0.3" d="M54.7823 60.5253C55.4763 61.81 56.1376 63.2366 56.75 64.7027C59.9098 67.0515 64.2373 69.5185 69.4628 70.6141C80.8611 73.0102 82.3144 75.7926 85.5722 86.0864C88.2014 94.3861 92.7982 97.1763 94.472 97.9408C95.1987 98.0433 95.9335 98.1221 96.6684 98.2009C96.6684 98.2009 96.6684 98.2009 96.6521 98.2009C88.6178 94.7092 86.6255 82.9021 83.3432 77.2823C80.0527 71.6703 73.3412 70.9688 64.9966 67.8397C57.9258 65.1835 55.3783 61.5657 54.7659 60.5253H54.7823Z" fill="white"/>
<path d="M167.467 145.075C159.547 142.229 158.452 136.901 158.452 136.901V91.0914L154.541 91.1151L150.63 91.0914V136.901C150.63 136.901 149.528 142.229 141.616 145.075C133.696 147.92 119.155 151.475 122.29 159.648C125.393 167.759 147.577 169.036 154.46 169.075C154.46 169.075 154.517 169.075 154.541 169.075C154.566 169.075 154.599 169.075 154.623 169.075C161.506 169.028 183.69 167.759 186.793 159.648C189.92 151.475 175.378 147.92 167.467 145.075Z" fill="#543000"/>
<path d="M243.417 65.6407C233.994 56.474 197.816 49.6404 154.615 49.6404C111.414 49.6404 74.5495 56.6001 65.5599 65.9008L63.4289 63.8594V70.3777C63.4289 81.8302 104.254 91.1151 154.615 91.1151C204.976 91.1151 245.801 81.8302 245.801 70.3777V64.1037L243.409 65.6407H243.417Z" fill="#543000"/>
<path d="M154.623 85.4165C204.984 85.4165 245.809 76.1356 245.809 64.687C245.809 53.2384 204.984 43.9575 154.623 43.9575C104.262 43.9575 63.4371 53.2384 63.4371 64.687C63.4371 76.1356 104.262 85.4165 154.623 85.4165Z" fill="#8E5109"/>
<path d="M196.558 113.634C196.558 113.634 210.553 113.366 216.44 109.811C222.335 106.256 224.172 97.1921 224.172 97.1921C210.365 96.1281 207.605 96.8374 202.445 101.992C199.587 104.853 198.085 108.116 197.309 110.465C196.697 112.357 196.55 113.634 196.55 113.634H196.558Z" fill="#7C8384"/>
<path d="M268.181 177.123C268.426 177.123 268.671 177.076 268.908 176.981C269.839 176.595 270.271 175.546 269.871 174.648L253.109 136.886C252.709 135.979 251.631 135.561 250.692 135.955C249.761 136.342 249.328 137.39 249.728 138.289L266.491 176.051C266.793 176.729 267.471 177.131 268.181 177.131V177.123Z" fill="#774406"/>
<path d="M225.862 196C225.862 196 225.936 196 225.968 196C226.981 195.945 227.756 195.109 227.699 194.124L225.078 149.063C225.021 148.086 224.156 147.329 223.135 147.392C222.123 147.447 221.347 148.283 221.404 149.268L224.025 194.329C224.082 195.275 224.891 196.008 225.862 196.008V196Z" fill="#774406"/>
<path d="M202.045 173.466C203.049 173.466 203.866 172.693 203.882 171.716L204.266 149.67C204.282 148.693 203.474 147.881 202.453 147.865C201.457 147.865 200.6 148.63 200.584 149.615L200.2 171.661C200.183 172.638 200.992 173.45 202.012 173.466H202.045Z" fill="#774406"/>
<path d="M164.707 185.951C165.458 185.951 166.16 185.509 166.43 184.792C166.43 184.792 170.137 175.168 173.835 165.544C175.68 160.728 177.534 155.92 178.914 152.303C179.608 150.498 180.179 148.992 180.579 147.936C181.363 145.863 181.796 144.72 180.22 144.042C179.289 143.64 178.203 144.042 177.787 144.941C177.754 145.02 177.722 145.098 177.697 145.185C177.175 146.667 166.92 173.316 162.984 183.554C162.633 184.477 163.115 185.501 164.07 185.84C164.282 185.919 164.495 185.951 164.715 185.951H164.707Z" fill="#774406"/>
<path d="M170.52 134.6C170.586 136.941 171.32 138.958 172.627 140.7C175.607 144.657 181.576 147.116 189.381 148.377C203.743 150.687 236.697 151.577 248.659 140.558C260.629 129.539 255.836 114.438 260.808 105.373C263.552 100.368 266.36 95.5526 269.316 91.6432C271.7 88.4746 274.19 85.8893 276.828 84.2814C278.175 83.4538 279.392 82.3031 280.159 81.0735C282.747 76.9355 280.257 71.8753 260.816 75.1699C242.535 78.2596 230.443 85.1248 224.18 97.2078C217.918 109.291 214.791 111.324 199.514 112.262C188.148 112.956 181.38 114.217 176.521 119.853C174.848 121.799 173.411 124.266 172.08 127.419C170.961 130.091 170.463 132.479 170.528 134.615L170.52 134.6Z" fill="#909A9C"/>
<path opacity="0.3" d="M176.513 119.837C176.513 119.837 176.546 119.805 176.554 119.797C184.915 111.608 208.381 114.887 214.799 111.86C221.216 108.826 224.735 96.1438 236.003 86.7091C247.271 77.2745 266.14 75.6193 273.668 75.8636C281.204 76.1079 280.143 81.0657 280.143 81.0657C282.731 76.9277 280.241 71.8675 260.8 75.1621C242.519 78.2518 230.426 85.117 224.164 97.2C217.901 109.283 214.774 111.317 199.498 112.254C188.132 112.948 181.363 114.209 176.505 119.845L176.513 119.837Z" fill="white"/>
<path opacity="0.17" d="M197.309 110.465C197.481 110.166 201.531 103.072 208.128 100.101C214.864 97.0739 224.164 97.1921 224.164 97.1921C210.357 96.1281 207.597 96.8374 202.437 101.992C199.579 104.853 198.077 108.116 197.301 110.465H197.309Z" fill="white"/>
<path opacity="0.2" d="M170.52 134.6C170.586 136.941 171.32 138.958 172.627 140.7C175.607 144.657 181.576 147.116 189.381 148.377C203.743 150.687 236.697 151.577 248.659 140.558C260.629 129.54 255.836 114.438 260.808 105.374C263.552 100.368 266.36 95.5526 269.316 91.6432C269.316 91.6432 265.772 84.9435 252.855 93.7083C239.939 102.473 237.914 132.803 217.485 138.493C200.853 143.12 181.42 137.965 170.52 134.615V134.6Z" fill="#512109"/>
<path d="M106.442 112.869C106.442 112.869 92.4471 112.601 86.5602 109.046C80.6651 105.492 78.828 96.4275 78.828 96.4275C92.6349 95.3634 95.3947 96.0728 100.555 101.228C103.413 104.089 104.915 107.352 105.691 109.701C106.303 111.592 106.45 112.869 106.45 112.869H106.442Z" fill="#C82633"/>
<path d="M34.819 176.366C34.574 176.366 34.3291 176.319 34.0923 176.224C33.1615 175.838 32.7288 174.79 33.1288 173.891L49.8915 136.129C50.2915 135.222 51.3693 134.805 52.3083 135.199C53.2391 135.585 53.6718 136.633 53.2717 137.532L36.5091 175.294C36.207 175.972 35.5293 176.374 34.819 176.374V176.366Z" fill="#774406"/>
<path d="M77.1379 195.243C77.1379 195.243 77.0644 195.243 77.0317 195.243C76.0193 195.188 75.2436 194.353 75.3008 193.367L77.9217 148.306C77.9789 147.329 78.8443 146.572 79.865 146.635C80.8774 146.691 81.6531 147.526 81.5959 148.511L78.975 193.572C78.9178 194.518 78.1095 195.251 77.1379 195.251V195.243Z" fill="#774406"/>
<path d="M100.947 172.709C99.9425 172.709 99.126 171.936 99.1097 170.959L98.726 148.913C98.7096 147.936 99.518 147.124 100.539 147.108C101.535 147.108 102.392 147.873 102.408 148.858L102.792 170.904C102.808 171.881 102 172.693 100.979 172.709H100.947Z" fill="#774406"/>
<path d="M138.285 185.186C137.534 185.186 136.832 184.745 136.562 184.027C136.562 184.027 132.855 174.404 129.157 164.78C127.311 159.964 125.458 155.156 124.078 151.538C123.384 149.733 122.813 148.228 122.412 147.171C121.629 145.098 121.196 143.956 122.772 143.278C123.702 142.876 124.788 143.278 125.205 144.176C125.238 144.255 125.27 144.334 125.295 144.421C125.817 145.902 136.072 172.551 140.008 182.79C140.359 183.712 139.877 184.737 138.922 185.076C138.71 185.154 138.497 185.186 138.277 185.186H138.285Z" fill="#774406"/>
<path d="M132.48 133.835C132.414 136.176 131.68 138.194 130.373 139.936C127.393 143.893 121.424 146.352 113.619 147.613C99.2567 149.922 66.303 150.813 54.3413 139.794C42.3715 128.775 47.1644 113.673 42.1919 104.609C39.4485 99.6039 36.6397 94.7881 33.684 90.8786C31.2999 87.7101 28.8096 85.1248 26.1723 83.5169C24.8251 82.6893 23.6085 81.5385 22.841 80.309C20.2527 76.1709 22.743 71.1107 42.1837 74.4054C60.465 77.4951 72.5573 84.3603 78.8198 96.4433C85.0823 108.526 88.2095 110.56 103.486 111.498C114.852 112.191 121.62 113.452 126.479 119.088C128.152 121.035 129.589 123.502 130.92 126.655C132.039 129.327 132.537 131.715 132.472 133.851L132.48 133.835Z" fill="#C82633"/>
<path opacity="0.3" d="M126.487 119.08C126.487 119.08 126.454 119.049 126.446 119.041C118.085 110.851 94.619 114.13 88.2014 111.104C81.7837 108.069 78.2646 95.3871 66.997 85.9524C55.7294 76.5178 36.8602 74.8625 29.3322 75.1069C21.7959 75.3512 22.8574 80.309 22.8574 80.309C20.2691 76.1709 22.7594 71.1107 42.2001 74.4054C60.4814 77.4951 72.5737 84.3603 78.8362 96.4433C85.0987 108.526 88.2259 110.56 103.502 111.498C114.868 112.191 121.637 113.452 126.495 119.088L126.487 119.08Z" fill="white"/>
<path opacity="0.17" d="M105.682 109.701C105.511 109.401 101.461 102.307 94.8639 99.3359C88.1279 96.3092 78.828 96.4275 78.828 96.4275C92.6349 95.3634 95.3947 96.0728 100.555 101.228C103.413 104.089 104.915 107.352 105.691 109.701H105.682Z" fill="white"/>
<path opacity="0.2" d="M132.48 133.835C132.414 136.176 131.68 138.194 130.373 139.936C127.393 143.893 121.424 146.352 113.619 147.613C99.2566 149.922 66.3029 150.813 54.3413 139.794C42.3715 128.775 47.1643 113.673 42.1919 104.609C39.4485 99.604 36.6397 94.7881 33.684 90.8787C33.684 90.8787 37.2276 84.179 50.1445 92.9437C63.0615 101.708 65.0864 132.038 85.515 137.729C102.147 142.356 121.58 137.201 132.48 133.851V133.835Z" fill="#512109"/>
<path d="M113.905 79.4972C124.934 79.4972 133.876 76.1307 133.876 71.9779C133.876 67.825 124.934 64.4585 113.905 64.4585C102.875 64.4585 93.9331 67.825 93.9331 71.9779C93.9331 76.1307 102.875 79.4972 113.905 79.4972Z" fill="#FCFAD0"/>
<path opacity="0.57" d="M114.28 77.4716C123.89 77.4716 131.68 74.8708 131.68 71.6626C131.68 68.4544 123.89 65.8536 114.28 65.8536C104.671 65.8536 96.8806 68.4544 96.8806 71.6626C96.8806 74.8708 104.671 77.4716 114.28 77.4716Z" stroke="#8E5109" stroke-width="0.81" stroke-miterlimit="10"/>
<path opacity="0.5" d="M122.257 71.9778C122.257 73.5069 118.542 74.7522 113.954 74.7522C109.365 74.7522 105.65 73.5069 105.65 71.9778C105.65 70.4487 109.365 69.2034 113.954 69.2034C118.542 69.2034 122.257 70.4487 122.257 71.9778Z" fill="#B2B2B2"/>
<path opacity="0.71" d="M135.721 38.9368L134.301 49.5774L133.786 53.4395C130.43 54.9371 126.707 53.4395 126.707 53.4395L126.193 49.5774L124.772 38.9368H135.729H135.721Z" fill="white"/>
<path d="M134.301 49.5774L133.786 53.4395C130.43 54.9371 126.707 53.4395 126.707 53.4395L126.193 49.5774C126.193 49.5774 128.757 51.8159 134.309 49.5774H134.301Z" fill="white"/>
<path d="M130.243 39.6146C133.268 39.6146 135.721 39.3076 135.721 38.9289C135.721 38.5502 133.268 38.2432 130.243 38.2432C127.217 38.2432 124.764 38.5502 124.764 38.9289C124.764 39.3076 127.217 39.6146 130.243 39.6146Z" fill="#B2B2B2"/>
<path opacity="0.71" d="M180.816 46.2512L179.24 58.0032L178.669 62.2673C174.962 63.9146 170.847 62.2673 170.847 62.2673L170.275 58.0032L168.699 46.2512H180.808H180.816Z" fill="white"/>
<path d="M179.249 58.0032L178.677 62.2673C174.97 63.9146 170.855 62.2673 170.855 62.2673L170.283 58.0032C170.283 58.0032 173.117 60.4781 179.249 58.0032Z" fill="white"/>
<path d="M174.766 47.0078C178.108 47.0078 180.816 46.6691 180.816 46.2512C180.816 45.8333 178.108 45.4945 174.766 45.4945C171.425 45.4945 168.716 45.8333 168.716 46.2512C168.716 46.6691 171.425 47.0078 174.766 47.0078Z" fill="#B2B2B2"/>
<path d="M121.237 69.7472C120.477 71.3472 119.016 72.3325 118.011 72.8527C117.407 73.1679 116.73 73.3098 116.052 73.3098H110.549C110.002 73.3098 109.463 73.2231 108.965 73.0182C103.233 70.7639 105.356 64.3165 105.356 64.3165H120.935C122.012 66.6181 121.874 68.3994 121.237 69.7472Z" fill="white"/>
<path opacity="0.29" d="M121.237 69.7472C120.477 71.3472 119.016 72.3325 118.011 72.8527C117.407 73.1679 116.73 73.3098 116.052 73.3098H110.549C110.002 73.3098 109.463 73.2231 108.965 73.0182C103.233 70.7639 105.356 64.3165 105.356 64.3165H109.063C107.707 65.9323 106.083 68.8959 110.181 70.7088C114.133 72.4586 118.689 70.9295 121.237 69.7393V69.7472Z" fill="#878786"/>
<path d="M120.935 72.1827C118.926 72.1827 117.285 70.6063 117.285 68.6595C117.285 66.7126 118.918 65.1362 120.935 65.1362C122.951 65.1362 124.584 66.7126 124.584 68.6595C124.584 70.6063 122.951 72.1827 120.935 72.1827ZM120.935 66.4289C119.653 66.4289 118.616 67.4299 118.616 68.6673C118.616 69.9048 119.653 70.9058 120.935 70.9058C122.216 70.9058 123.253 69.9048 123.253 68.6673C123.253 67.4299 122.216 66.4289 120.935 66.4289Z" fill="white"/>
<path d="M120.935 64.3165C120.935 65.0022 117.448 65.5619 113.145 65.5619C108.842 65.5619 105.356 65.0022 105.356 64.3165C105.356 63.6308 108.842 63.0712 113.145 63.0712C117.448 63.0712 120.935 63.6308 120.935 64.3165Z" fill="#B2B2B2"/>
<path d="M184.409 80.7819C195.439 80.7819 204.38 77.4153 204.38 73.2625C204.38 69.1097 195.439 65.7432 184.409 65.7432C173.379 65.7432 164.437 69.1097 164.437 73.2625C164.437 77.4153 173.379 80.7819 184.409 80.7819Z" fill="#FCFAD0"/>
<path opacity="0.57" d="M184.776 78.7483C194.386 78.7483 202.176 76.1476 202.176 72.9394C202.176 69.7311 194.386 67.1304 184.776 67.1304C175.167 67.1304 167.377 69.7311 167.377 72.9394C167.377 76.1476 175.167 78.7483 184.776 78.7483Z" stroke="#8E5109" stroke-width="0.81" stroke-miterlimit="10"/>
<path opacity="0.5" d="M184.45 76.0369C189.036 76.0369 192.753 74.7948 192.753 73.2625C192.753 71.7302 189.036 70.488 184.45 70.488C179.864 70.488 176.146 71.7302 176.146 73.2625C176.146 74.7948 179.864 76.0369 184.45 76.0369Z" fill="#B2B2B2"/>
<path d="M191.733 71.024C190.973 72.6241 189.512 73.6093 188.508 74.1295C187.903 74.4448 187.226 74.5867 186.548 74.5867H181.045C180.498 74.5867 179.959 74.5 179.461 74.295C173.729 72.0408 175.852 65.5934 175.852 65.5934H191.431C192.508 67.8949 192.37 69.6762 191.733 71.024Z" fill="white"/>
<path opacity="0.29" d="M191.733 71.024C190.973 72.6241 189.512 73.6093 188.508 74.1295C187.903 74.4448 187.226 74.5867 186.548 74.5867H181.045C180.498 74.5867 179.959 74.5 179.461 74.295C173.729 72.0408 175.852 65.5934 175.852 65.5934H179.559C178.203 67.2092 176.579 70.1728 180.677 71.9856C184.629 73.7354 189.185 72.2063 191.733 71.0161V71.024Z" fill="#878786"/>
<path d="M191.431 73.4675C189.422 73.4675 187.781 71.8911 187.781 69.9442C187.781 67.9974 189.414 66.421 191.431 66.421C193.447 66.421 195.08 67.9974 195.08 69.9442C195.08 71.8911 193.447 73.4675 191.431 73.4675ZM191.431 67.7058C190.149 67.7058 189.112 68.7068 189.112 69.9442C189.112 71.1817 190.149 72.1827 191.431 72.1827C192.713 72.1827 193.749 71.1817 193.749 69.9442C193.749 68.7068 192.713 67.7058 191.431 67.7058Z" fill="white"/>
<path d="M191.431 65.6013C191.431 66.287 187.944 66.8466 183.641 66.8466C179.338 66.8466 175.852 66.287 175.852 65.6013C175.852 64.9156 179.338 64.356 183.641 64.356C187.944 64.356 191.431 64.9156 191.431 65.6013Z" fill="#B2B2B2"/>
<path d="M108.475 62.4801C117.367 62.4801 124.576 59.7664 124.576 56.4189C124.576 53.0714 117.367 50.3577 108.475 50.3577C99.5824 50.3577 92.3736 53.0714 92.3736 56.4189C92.3736 59.7664 99.5824 62.4801 108.475 62.4801Z" fill="#FCFAD0"/>
<path opacity="0.57" d="M122.804 56.1666C122.804 58.7519 116.525 60.8485 108.777 60.8485C101.028 60.8485 94.7496 58.7519 94.7496 56.1666C94.7496 53.5813 101.028 51.4847 108.777 51.4847C116.525 51.4847 122.804 53.5813 122.804 56.1666Z" stroke="#8E5109" stroke-width="0.65" stroke-miterlimit="10"/>
<path opacity="0.5" d="M115.203 56.4189C115.203 57.6564 112.206 58.6574 108.508 58.6574C104.809 58.6574 101.812 57.6564 101.812 56.4189C101.812 55.1814 104.809 54.1804 108.508 54.1804C112.206 54.1804 115.203 55.1814 115.203 56.4189Z" fill="#B2B2B2"/>
<path d="M114.378 54.6218C113.766 55.9144 112.59 56.7026 111.782 57.1204C111.292 57.3726 110.753 57.4908 110.198 57.4908H105.764C105.323 57.4908 104.89 57.4199 104.49 57.2622C99.869 55.4494 101.575 50.2473 101.575 50.2473H114.133C114.999 52.1075 114.892 53.542 114.378 54.6218Z" fill="white"/>
<path opacity="0.29" d="M114.378 54.6218C113.766 55.9144 112.59 56.7026 111.782 57.1204C111.292 57.3726 110.753 57.4908 110.198 57.4908H105.764C105.323 57.4908 104.89 57.4199 104.49 57.2622C99.869 55.4494 101.575 50.2473 101.575 50.2473H104.564C103.47 51.5557 102.155 53.9361 105.47 55.4021C108.654 56.813 112.329 55.5755 114.386 54.6218H114.378Z" fill="#878786"/>
<path d="M114.133 56.5922C112.508 56.5922 111.194 55.3154 111.194 53.7547C111.194 52.1941 112.508 50.9172 114.133 50.9172C115.758 50.9172 117.073 52.1941 117.073 53.7547C117.073 55.3154 115.758 56.5922 114.133 56.5922ZM114.133 51.9498C113.104 51.9498 112.263 52.7616 112.263 53.7547C112.263 54.7479 113.104 55.5597 114.133 55.5597C115.162 55.5597 116.003 54.7479 116.003 53.7547C116.003 52.7616 115.162 51.9498 114.133 51.9498Z" fill="white"/>
<path d="M107.854 51.2562C111.322 51.2562 114.133 50.8045 114.133 50.2473C114.133 49.6901 111.322 49.2384 107.854 49.2384C104.387 49.2384 101.575 49.6901 101.575 50.2473C101.575 50.8045 104.387 51.2562 107.854 51.2562Z" fill="#B2B2B2"/>
<path d="M202.012 62.1805C210.905 62.1805 218.114 59.4668 218.114 56.1193C218.114 52.7718 210.905 50.0581 202.012 50.0581C193.12 50.0581 185.911 52.7718 185.911 56.1193C185.911 59.4668 193.12 62.1805 202.012 62.1805Z" fill="#FCFAD0"/>
<path opacity="0.57" d="M216.342 55.867C216.342 58.4523 210.063 60.5489 202.314 60.5489C194.566 60.5489 188.287 58.4523 188.287 55.867C188.287 53.2818 194.566 51.1852 202.314 51.1852C210.063 51.1852 216.342 53.2818 216.342 55.867Z" stroke="#8E5109" stroke-width="0.65" stroke-miterlimit="10"/>
<path opacity="0.5" d="M208.74 56.1193C208.74 57.3568 205.744 58.3578 202.045 58.3578C198.346 58.3578 195.35 57.3568 195.35 56.1193C195.35 54.8819 198.346 53.8809 202.045 53.8809C205.744 53.8809 208.74 54.8819 208.74 56.1193Z" fill="#B2B2B2"/>
<path d="M207.916 54.3144C207.303 55.6071 206.128 56.3952 205.319 56.813C204.829 57.0652 204.29 57.1834 203.735 57.1834H199.302C198.861 57.1834 198.428 57.1125 198.028 56.9549C193.407 55.142 195.113 49.9399 195.113 49.9399H207.671C208.536 51.8001 208.43 53.2346 207.916 54.3144Z" fill="white"/>
<path opacity="0.29" d="M207.916 54.3144C207.303 55.6071 206.128 56.3952 205.319 56.813C204.829 57.0652 204.29 57.1834 203.735 57.1834H199.302C198.861 57.1834 198.428 57.1125 198.028 56.9549C193.407 55.142 195.113 49.9399 195.113 49.9399H198.101C197.007 51.2483 195.693 53.6287 199.008 55.0947C202.192 56.5056 205.866 55.2681 207.924 54.3144H207.916Z" fill="#878786"/>
<path d="M207.671 56.2849C206.046 56.2849 204.731 55.008 204.731 53.4474C204.731 51.8867 206.046 50.6099 207.671 50.6099C209.296 50.6099 210.61 51.8867 210.61 53.4474C210.61 55.008 209.296 56.2849 207.671 56.2849ZM207.671 51.6424C206.642 51.6424 205.801 52.4542 205.801 53.4474C205.801 54.4405 206.642 55.2523 207.671 55.2523C208.699 55.2523 209.54 54.4405 209.54 53.4474C209.54 52.4542 208.699 51.6424 207.671 51.6424Z" fill="white"/>
<path d="M201.392 50.9488C204.86 50.9488 207.671 50.4971 207.671 49.9399C207.671 49.3827 204.86 48.931 201.392 48.931C197.924 48.931 195.113 49.3827 195.113 49.9399C195.113 50.4971 197.924 50.9488 201.392 50.9488Z" fill="#B2B2B2"/>
<path d="M165.311 53.7312C164.788 56.3165 163.441 58.4052 162.037 59.9816C161.229 60.888 160.404 61.6131 159.685 62.1649C158.591 63.0161 157.22 63.4733 155.807 63.4733H148.908C147.503 63.4733 146.123 63.0161 145.029 62.1649C143.037 60.6042 140.13 57.6958 139.363 53.5184C139.183 52.5962 139.118 51.6031 139.191 50.5627C139.224 50.1607 139.265 49.7745 139.314 49.4277C140.367 42.5073 146.083 45.7153 147.136 35.5712C147.217 34.8067 147.258 34.1052 147.283 33.451C147.315 32.5603 147.283 31.7721 147.226 31.0627C146.687 24.9937 143.143 24.9937 142.539 22.771C142.392 22.2271 142.727 21.7857 143.347 21.431L143.372 21.4074C145.062 20.4773 148.81 20.1542 150.99 20.0911C151.586 20.0675 152.076 20.0675 152.361 20.0911C153.496 20.0359 157.571 20.1699 160.11 20.9266C161.482 21.3286 162.404 21.9276 162.176 22.771C161.555 25.0094 157.946 24.9858 157.464 31.2598C157.416 31.9613 157.399 32.7495 157.432 33.6323C157.456 34.2313 157.497 34.8776 157.571 35.5633C158.624 45.7389 164.364 42.4837 165.401 49.4671C165.45 49.7981 165.491 50.1607 165.515 50.5548C165.597 51.6819 165.515 52.7381 165.311 53.7233V53.7312Z" fill="white"/>
<path d="M156.591 23.7562C156.117 23.8114 155.619 23.8587 155.08 23.8823C154.435 23.9217 153.733 23.9296 152.982 23.9217C152.508 23.9217 152.01 23.906 151.496 23.8823C151.333 23.8823 151.169 23.8665 151.006 23.8587L150.769 23.8429C150.345 23.8114 149.945 23.7877 149.569 23.7483L149.234 23.7168C142.441 23.0705 143.355 21.4389 143.355 21.4389L143.38 21.4153C144.245 20.9423 145.65 20.6271 147.095 20.4221C147.65 20.3433 148.197 20.2803 148.736 20.2409C149.618 20.162 150.451 20.1226 151.12 20.099C151.659 20.0832 152.092 20.0832 152.361 20.099C152.427 20.099 152.508 20.099 152.606 20.099C153.26 20.0832 154.443 20.1147 155.766 20.2251C156.256 20.2645 156.746 20.3118 157.244 20.3748C158.256 20.501 159.269 20.6901 160.11 20.9345C161.947 21.9118 160.665 23.2912 156.583 23.7562H156.591Z" fill="#B2B2B2"/>
<path d="M150.998 23.8586C150.557 23.094 149.773 21.7935 148.728 20.2408C146.817 17.4191 144.058 13.7618 140.947 11.0505C140.645 10.7825 140.179 10.8061 139.91 11.0977C139.64 11.3894 139.657 11.8386 139.959 12.0988C142.719 14.5106 145.25 17.7659 147.087 20.4221C147.977 21.7147 148.704 22.8655 149.226 23.7167L150.998 23.8507V23.8586Z" fill="#298946"/>
<path d="M152.982 23.9217C152.508 23.9217 152.01 23.9059 151.496 23.8823C151.39 22.9995 151.251 21.6675 151.12 20.099C150.786 16.0082 150.557 10.3569 151.414 7.30658C151.529 6.92036 151.929 6.69967 152.321 6.80213C152.713 6.91248 152.941 7.2987 152.835 7.67703C152.027 10.5382 152.272 16.0871 152.606 20.099C152.737 21.7226 152.884 23.0941 152.982 23.9296V23.9217Z" fill="#298946"/>
<path d="M161.408 12.1145C159.212 13.9037 157.946 17.4506 157.244 20.3669C156.917 21.7069 156.713 22.9207 156.591 23.7562C156.117 23.8113 155.619 23.8586 155.08 23.8823C155.195 23.0468 155.407 21.7226 155.766 20.2172C156.509 17.0644 157.914 13.0998 160.461 11.0268C160.771 10.7746 161.245 10.814 161.498 11.1135C161.759 11.4209 161.718 11.8702 161.408 12.1145Z" fill="#298946"/>
<path d="M139.167 12.4693C139.167 12.4693 138.065 16.024 135.484 14.0693C132.904 12.1146 137.322 10.5145 137.322 10.5145C137.322 10.5145 132.578 8.37855 134.676 6.42383C136.775 4.46911 139.167 8.73323 139.167 8.73323C139.167 8.73323 138.065 3.75973 140.457 4.11442C142.849 4.46911 141.927 8.55983 141.927 8.55983C141.927 8.55983 144.319 6.25042 145.609 8.55983C146.899 10.8692 143.307 10.5145 143.307 10.5145C143.307 10.5145 147.569 11.8072 145.242 13.5333C142.915 15.2595 141.861 11.8308 141.861 11.8308C141.861 11.8308 143.217 15.6693 140.449 16.024C137.689 16.3787 139.159 12.4693 139.159 12.4693H139.167Z" fill="#F4CD2A"/>
<path d="M150.696 8.18139C150.696 8.18139 149.128 11.5706 146.834 9.30851C144.539 7.05427 149.128 6.01386 149.128 6.01386C149.128 6.01386 144.703 3.31036 147.046 1.63151C149.381 -0.0473454 151.194 4.47688 151.194 4.47688C151.194 4.47688 150.761 -0.591199 153.088 0.0551198C155.415 0.701438 153.962 4.6424 153.962 4.6424C153.962 4.6424 156.64 2.64827 157.611 5.09956C158.583 7.55084 155.064 6.75476 155.064 6.75476C155.064 6.75476 159.122 8.5676 156.583 9.98635C154.043 11.4051 153.455 7.88188 153.455 7.88188C153.455 7.88188 154.288 11.8544 151.504 11.8623C148.72 11.8701 150.696 8.18139 150.696 8.18139Z" fill="#F4CD2A"/>
<path d="M163.972 12.6663C163.972 12.6663 167.442 14.2585 165.05 16.4181C162.657 18.5857 161.686 14.1245 161.686 14.1245C161.686 14.1245 158.787 18.3256 157.097 16.0319C155.407 13.7383 160.143 12.0988 160.143 12.0988C160.143 12.0988 154.876 12.3983 155.603 10.1678C156.33 7.93717 160.371 9.43474 160.371 9.43474C160.371 9.43474 158.371 6.80217 160.926 5.91939C163.49 5.03662 162.576 8.41008 162.576 8.41008C162.576 8.41008 164.543 4.53217 165.956 7.01498C167.369 9.49779 163.703 9.98647 163.703 9.98647C163.703 9.98647 167.834 9.2771 167.777 11.9648C167.72 14.6526 163.939 12.6584 163.939 12.6584L163.972 12.6663Z" fill="#F4CD2A"/>
<path d="M165.311 53.7311C163.286 54.8583 152.851 59.9736 139.363 53.5183L139.322 49.4276C139.322 49.4276 152.41 55.6149 165.401 49.4749C165.45 49.8059 165.491 50.1685 165.515 50.5626C165.597 51.6897 165.515 52.7459 165.311 53.7311Z" fill="#8E5109"/>
<path d="M157.432 33.6401C153.096 35.0667 149.528 34.3337 147.283 33.4588C147.315 32.5681 147.283 31.7799 147.226 31.0706C149.471 31.9612 153.072 32.7179 157.465 31.2676C157.416 31.9691 157.399 32.7573 157.432 33.6401Z" fill="#8E5109"/>
<path opacity="0.14" d="M162.037 59.9815C161.229 60.8879 160.404 61.6131 159.685 62.1648C158.591 63.0161 157.22 63.4732 155.807 63.4732H148.908C147.503 63.4732 146.123 63.0161 145.029 62.1648C143.037 60.6042 140.13 57.6958 139.363 53.5183C139.183 52.5961 139.118 51.603 139.191 50.5626C139.224 50.1606 139.265 49.7744 139.314 49.4276C140.367 42.5073 146.083 45.7152 147.136 35.5712C147.217 34.8066 147.258 34.1051 147.283 33.4509C147.315 32.5603 147.283 31.7721 147.226 31.0627C146.687 24.9936 143.143 24.9936 142.539 22.7709C142.392 22.2271 142.727 21.7857 143.347 21.431L143.372 21.4073C145.062 20.4773 148.81 20.1541 150.99 20.0911L151.488 23.8665C151.488 23.8665 149.553 23.9611 150.81 25.4271C150.81 25.4271 153.684 30.9839 151.488 37.3446C149.291 43.6974 144.352 52.809 149.977 58.7362C153.243 62.1806 158.159 61.5421 162.029 59.9815H162.037Z" fill="#1E1E1D"/>
</g>
<defs>
<clipPath id="clip0_31_509">
<rect width="259" height="196" fill="white" transform="translate(22)"/>
</clipPath>
</defs>
</svg>
