<svg width="195" height="154" viewBox="0 0 195 154" fill="none" xmlns="http://www.w3.org/2000/svg">
<g id="Frame" clip-path="url(#clip0_48_921)">
<g id="Group">
<g id="Isolation Mode">
<g id="Group_2">
<g id="Group_3">
<path id="Vector" d="M179.543 3.87524H17.8088V151.079H179.543V3.87524Z" fill="#3C8496"/>
<g id="Group_4">
<path id="Vector_2" d="M126.603 41.3087H74.5717C73.1912 41.3087 72.0721 42.1878 72.0721 43.2721V74.4072C72.0721 75.4916 73.1912 76.3706 74.5717 76.3706H126.603C127.984 76.3706 129.103 75.4916 129.103 74.4072V43.2721C129.103 42.1878 127.984 41.3087 126.603 41.3087Z" fill="white"/>
<path id="Vector_3" d="M126.603 42.1207H74.5717C73.7591 42.1207 73.1004 42.6382 73.1004 43.2764V74.4072C73.1004 75.0455 73.7591 75.5629 74.5717 75.5629H126.603C127.416 75.5629 128.075 75.0455 128.075 74.4072V43.2764C128.075 42.6382 127.416 42.1207 126.603 42.1207Z" fill="#FBB03B"/>
<path id="Vector_4" d="M87.3267 45.4246H76.6064V49.7122H87.3267V45.4246Z" fill="#BA3F40"/>
<path id="Vector_5" d="M119.695 45.4246H93.2775V49.7122H119.695V45.4246Z" fill="#BA3F40"/>
<path id="Vector_6" d="M117.89 54.6916H77.0385C76.7978 54.6916 76.6064 54.537 76.6064 54.3522C76.6064 54.1632 76.8033 54.0128 77.0385 54.0128H117.89C118.131 54.0128 118.323 54.1675 118.323 54.3522C118.323 54.5413 118.126 54.6916 117.89 54.6916Z" fill="#BA3F40"/>
<path id="Vector_7" d="M90.6959 58.2016H77.0439C76.8033 58.2016 76.6118 58.047 76.6118 57.8622C76.6118 57.6732 76.8087 57.5228 77.0439 57.5228H90.6959C90.9366 57.5228 91.128 57.6775 91.128 57.8622C91.128 58.0513 90.9311 58.2016 90.6959 58.2016Z" fill="#BA3F40"/>
<path id="Vector_8" d="M90.6959 66.1111H77.0439C76.8033 66.1111 76.6118 65.9564 76.6118 65.7717C76.6118 65.5826 76.8087 65.4323 77.0439 65.4323H90.6959C90.9366 65.4323 91.128 65.5869 91.128 65.7717C91.128 65.9607 90.9311 66.1111 90.6959 66.1111Z" fill="#BA3F40"/>
</g>
<g id="Vector_9" style="mix-blend-mode:multiply">
<path d="M22.1954 100.911V26.6412H176.103V42.9327C90.9256 39.4957 35.4864 62.3991 22.1954 100.907V100.911Z" fill="#C1D4E0"/>
</g>
<path id="Vector_10" d="M179.543 109.009H17.8088V147.607H179.543V109.009Z" fill="#2C606E"/>
<path id="Vector_11" d="M179.543 147.607H17.8088V151.083H179.543V147.607Z" fill="white"/>
<path id="Vector_12" d="M22.2009 4.87622H15.3202V151.083H22.2009V4.87622Z" fill="#5BAFC4"/>
<path id="Vector_13" d="M182.983 4.87622H176.103V151.083H182.983V4.87622Z" fill="#5BAFC4"/>
<g id="Group_5">
<path id="Vector_14" d="M10.8352 32.2479C4.85148 32.2479 0 28.6175 0 24.1365V16.5793H21.6648V24.1365C21.6648 28.6175 16.8134 32.2479 10.8297 32.2479H10.8352Z" fill="#BA3F40"/>
<path id="Vector_15" d="M21.6648 16.5793V24.1365C21.6648 28.6175 26.5163 32.2479 32.5 32.2479C38.4837 32.2479 43.3352 28.6175 43.3352 24.1365V16.5793H21.6703H21.6648Z" fill="#E2E3EB"/>
<path id="Vector_16" d="M54.1649 32.2479C48.1812 32.2479 43.3297 28.6175 43.3297 24.1365V16.5793H64.9945V24.1365C64.9945 28.6175 60.1431 32.2479 54.1594 32.2479H54.1649Z" fill="#BA3F40"/>
<path id="Vector_17" d="M75.8297 32.2479C81.8134 32.2479 86.6648 28.6175 86.6648 24.1365V16.5793H65V24.1365C65 28.6175 69.8515 32.2479 75.8351 32.2479H75.8297Z" fill="#E2E3EB"/>
<path id="Vector_18" d="M97.5 32.2479C103.484 32.2479 108.335 28.6175 108.335 24.1365V16.5793H86.6703V24.1365C86.6703 28.6175 91.5218 32.2479 97.5055 32.2479H97.5Z" fill="#BA3F40"/>
<path id="Vector_19" d="M184.165 32.2479C190.149 32.2479 195 28.6175 195 24.1365V16.5793H173.335V24.1365C173.335 28.6175 178.187 32.2479 184.17 32.2479H184.165Z" fill="#BA3F40"/>
<path id="Vector_20" d="M162.5 32.2479C168.484 32.2479 173.335 28.6175 173.335 24.1365V16.5793H151.67V24.1365C151.67 28.6175 156.522 32.2479 162.505 32.2479H162.5Z" fill="#E2E3EB"/>
<path id="Vector_21" d="M130 16.5793V24.1365C130 28.6175 134.851 32.2479 140.835 32.2479C146.819 32.2479 151.67 28.6175 151.67 24.1365V16.5793H130.005H130Z" fill="#BA3F40"/>
<path id="Vector_22" d="M119.17 32.2479C113.187 32.2479 108.335 28.6175 108.335 24.1365V16.5793H130V24.1365C130 28.6175 125.149 32.2479 119.165 32.2479H119.17Z" fill="#E2E3EB"/>
<g id="Group_6">
<path id="Vector_23" d="M47.2185 5.00942L43.3297 16.5793H21.6703L28.0478 5.00513L47.2185 5.00942Z" fill="white"/>
<path id="Vector_24" d="M66.1541 5.00513L65 16.5793H43.3297L47.2185 5.00942L66.1541 5.00513Z" fill="#D45455"/>
<path id="Vector_25" d="M28.0478 5.00513L21.6703 16.5793H0L11.8197 5.90734C12.4213 5.36601 14.2372 5.00513 16.3703 5.00513H28.0423H28.0478Z" fill="#D45455"/>
<path id="Vector_26" d="M66.1541 5.00513L65 16.5793H86.6648L86.2546 5.00513H66.1541Z" fill="white"/>
<path id="Vector_27" d="M147.781 5.00942L151.67 16.5793H173.33L166.952 5.00513L147.781 5.00942Z" fill="white"/>
<path id="Vector_28" d="M128.84 5.00513L130 16.5793H151.67L147.781 5.00942L128.84 5.00513Z" fill="#D45455"/>
<path id="Vector_29" d="M166.952 5.00513L173.33 16.5793H195L183.055 5.79564C182.529 5.32305 180.938 5.00513 179.067 5.00513H166.952Z" fill="#D45455"/>
<path id="Vector_30" d="M128.84 5.00513L130 16.5793H108.33L108.74 5.00513H128.84Z" fill="white"/>
<path id="Vector_31" d="M108.33 16.5793H86.6649L86.2546 5.00513H108.74L108.33 16.5793Z" fill="#D45455"/>
</g>
</g>
<path id="Vector_32" d="M183.684 5.00482H12.4377C10.6765 5.00482 9.24899 3.88349 9.24899 2.50009C9.24899 1.11669 10.6765 -0.00463867 12.4377 -0.00463867H183.684C185.445 -0.00463867 186.872 1.11669 186.872 2.50009C186.872 3.88349 185.445 5.00482 183.684 5.00482Z" fill="#5BAFC4"/>
<path id="Vector_33" d="M33.5392 109.396H22.1954V147.607H33.5392V109.396Z" fill="#3C8496"/>
<path id="Vector_34" d="M53.6999 109.396H42.3561V147.607H53.6999V109.396Z" fill="#3C8496"/>
<path id="Vector_35" d="M73.8661 109.396H62.5223V147.607H73.8661V109.396Z" fill="#3C8496"/>
<path id="Vector_36" d="M94.0268 109.396H82.683V147.607H94.0268V109.396Z" fill="#3C8496"/>
<path id="Vector_37" d="M114.188 109.396H102.844V147.607H114.188V109.396Z" fill="#3C8496"/>
<path id="Vector_38" d="M134.348 109.396H123.004V147.607H134.348V109.396Z" fill="#3C8496"/>
<path id="Vector_39" d="M154.509 109.396H143.165V147.607H154.509V109.396Z" fill="#3C8496"/>
<path id="Vector_40" d="M176.201 109.396H164.857V147.607H176.201V109.396Z" fill="#3C8496"/>
<path id="Vector_41" d="M176.207 105.13H22.1954V109.349H176.207V105.13Z" fill="white"/>
<g id="Group_7">
<path id="Vector_42" d="M151.036 91.2443H147.705V88.9114H152.502L153.169 85.4744H141.935L141.267 88.9114H145.517V91.2443H141.251C138.713 91.2443 136.656 92.8597 136.656 94.8531V101.212H133.834C131.477 101.212 129.562 102.715 129.562 104.567V105.435H155.636V94.8531C155.636 92.8597 153.579 91.2443 151.041 91.2443H151.036Z" fill="#2B3B4F"/>
<path id="Vector_43" d="M159.546 96.0562C158.299 96.0562 157.282 96.851 157.282 97.8348V105.439H161.805V97.8348C161.805 96.8553 160.794 96.0562 159.541 96.0562H159.546Z" fill="#2B3B4F"/>
</g>
<g id="Vector_44" style="mix-blend-mode:multiply">
<path d="M176.207 109.396H22.1954V117.413H176.207V109.396Z" fill="#C1D4E0"/>
</g>
</g>
<g id="Group_8">
<g id="Group_9">
<path id="Vector_45" d="M95.6349 95.532C96.6922 95.532 97.5492 95.3839 97.5492 95.2012C97.5492 95.0185 96.6922 94.8704 95.6349 94.8704C94.5776 94.8704 93.7206 95.0185 93.7206 95.2012C93.7206 95.3839 94.5776 95.532 95.6349 95.532Z" fill="#3C4D66"/>
<path id="Vector_46" d="M95.6349 95.4546C94.4425 95.4546 93.819 95.2742 93.819 95.1969C93.819 95.1195 94.448 94.9391 95.6349 94.9391C96.8218 94.9391 97.4508 95.1195 97.4508 95.1969C97.4508 95.2742 96.8218 95.4546 95.6349 95.4546Z" fill="#3C4D66"/>
<path id="Vector_47" d="M97.7078 94.8832C97.4727 94.8489 97.1937 94.8188 96.8874 94.7973C96.8327 94.7973 96.778 94.7887 96.7233 94.7887C96.6632 94.7887 96.6085 94.7844 96.5483 94.7801C96.521 94.7801 96.4936 94.7801 96.4663 94.7801C96.428 94.7801 96.3897 94.7801 96.3514 94.7758C96.1217 94.7672 95.8865 94.7629 95.6349 94.7629C94.005 94.7629 92.6813 94.9606 92.6813 95.2055V104.7C92.6813 104.765 92.6923 104.821 92.7087 104.876C92.8017 105.177 93.1463 105.396 93.5565 105.396H97.7078C98.1892 105.396 98.583 105.087 98.583 104.709V95.2055C98.583 95.0809 98.2493 94.9692 97.7078 94.8918V94.8832Z" fill="#CF5050"/>
<path id="Vector_48" d="M97.7078 94.8832C97.5 94.8532 97.2593 94.8274 97.0023 94.8059V100.228C97.0023 102.101 95.0661 103.622 92.6813 103.622V104.692C92.6813 104.756 92.6923 104.812 92.7087 104.868C92.8017 105.169 93.1463 105.388 93.5565 105.388H97.7078C98.1946 105.388 98.583 105.078 98.583 104.7V95.1969C98.583 95.0723 98.2493 94.9606 97.7078 94.8832Z" fill="#BA3D3D"/>
<g id="Vector_49" style="mix-blend-mode:screen">
<path d="M95.9357 91.0899C95.9357 91.0899 95.8044 91.1074 95.6458 91.1074C95.4872 91.1074 95.3559 91.0987 95.3559 91.0899C95.3559 91.0812 95.4872 91.0724 95.6458 91.0724C95.8044 91.0724 95.9357 91.0812 95.9357 91.0899Z" fill="#999999"/>
</g>
<path id="Vector_50" d="M97.1609 94.213C97.1609 94.213 97.1664 94.2044 97.1664 94.2001C97.1664 94.1228 96.9312 94.0583 96.5647 94.0111L95.974 91.0466H95.2903C95.0934 92.0348 94.8965 93.0229 94.6996 94.0111C94.3386 94.054 94.0979 94.1228 94.0979 94.2001C94.0979 94.2044 94.1034 94.2087 94.1034 94.213C94.0323 94.5266 93.8901 95.1023 93.8901 95.1109C93.8901 95.2054 94.2292 95.2871 94.7434 95.33C95.0004 95.3515 95.3067 95.3644 95.6294 95.3644C95.9357 95.3644 96.2256 95.3515 96.4772 95.33C97.0023 95.2871 97.3523 95.2011 97.3523 95.1066C97.3523 95.0937 97.2101 94.518 97.139 94.2087L97.1609 94.213Z" fill="#CF5050"/>
</g>
<g id="Group_10">
<path id="Vector_51" d="M107.531 95.2012C107.531 95.3816 106.672 95.532 105.617 95.532C104.561 95.532 103.702 95.3859 103.702 95.2012C103.702 95.0164 104.561 94.8704 105.617 94.8704C106.672 94.8704 107.531 95.0164 107.531 95.2012Z" fill="#3C4D66"/>
<path id="Vector_52" d="M105.617 95.4546C104.424 95.4546 103.801 95.2742 103.801 95.1969C103.801 95.1195 104.43 94.9391 105.617 94.9391C106.804 94.9391 107.433 95.1195 107.433 95.1969C107.433 95.2742 106.804 95.4546 105.617 95.4546Z" fill="#3C4D66"/>
<path id="Vector_53" d="M107.69 94.8832C107.455 94.8489 107.176 94.8188 106.869 94.7973C106.815 94.7973 106.76 94.7887 106.705 94.7887C106.645 94.7887 106.59 94.7844 106.53 94.7801C106.503 94.7801 106.476 94.7801 106.448 94.7801C106.41 94.7801 106.372 94.7801 106.333 94.7758C106.104 94.7672 105.868 94.7629 105.617 94.7629C103.987 94.7629 102.663 94.9606 102.663 95.2055V104.7C102.663 104.765 102.674 104.821 102.691 104.876C102.784 105.177 103.128 105.396 103.538 105.396H107.69C108.171 105.396 108.565 105.087 108.565 104.709V95.2055C108.565 95.0809 108.231 94.9692 107.69 94.8918V94.8832Z" fill="#FFC636"/>
<path id="Vector_54" d="M107.69 94.8832C107.482 94.8532 107.241 94.8274 106.984 94.8059V100.228C106.984 102.101 105.048 103.622 102.663 103.622V104.692C102.663 104.756 102.674 104.812 102.691 104.868C102.784 105.169 103.128 105.388 103.538 105.388H107.69C108.177 105.388 108.565 105.078 108.565 104.7V95.1969C108.565 95.0723 108.231 94.9606 107.69 94.8832Z" fill="#F0B624"/>
<g id="Vector_55" style="mix-blend-mode:screen">
<path d="M105.923 91.0899C105.923 91.0899 105.792 91.1074 105.633 91.1074C105.475 91.1074 105.343 91.0987 105.343 91.0899C105.343 91.0812 105.475 91.0724 105.633 91.0724C105.792 91.0724 105.923 91.0812 105.923 91.0899Z" fill="#999999"/>
</g>
<path id="Vector_56" d="M107.143 94.213C107.143 94.213 107.148 94.2044 107.148 94.2001C107.148 94.1228 106.913 94.0583 106.547 94.0111L105.956 91.0466H105.272C105.075 92.0348 104.878 93.0229 104.682 94.0111C104.321 94.054 104.08 94.1228 104.08 94.2001C104.08 94.2044 104.085 94.2087 104.085 94.213C104.014 94.5266 103.872 95.1023 103.872 95.1109C103.872 95.2054 104.211 95.2871 104.725 95.33C104.982 95.3515 105.289 95.3644 105.611 95.3644C105.918 95.3644 106.208 95.3515 106.459 95.33C106.984 95.2871 107.334 95.2011 107.334 95.1066C107.334 95.0937 107.192 94.518 107.121 94.2087L107.143 94.213Z" fill="#FFC636"/>
</g>
<g id="Group_11">
<path id="Vector_57" d="M115.785 95.532C116.842 95.532 117.699 95.3839 117.699 95.2012C117.699 95.0185 116.842 94.8704 115.785 94.8704C114.727 94.8704 113.87 95.0185 113.87 95.2012C113.87 95.3839 114.727 95.532 115.785 95.532Z" fill="#3C4D66"/>
<path id="Vector_58" d="M115.785 95.4546C114.592 95.4546 113.969 95.2742 113.969 95.1969C113.969 95.1195 114.598 94.9391 115.785 94.9391C116.972 94.9391 117.601 95.1195 117.601 95.1969C117.601 95.2742 116.972 95.4546 115.785 95.4546Z" fill="#3C4D66"/>
<path id="Vector_59" d="M117.858 94.8832C117.622 94.8489 117.343 94.8188 117.037 94.7973C116.982 94.7973 116.928 94.7887 116.873 94.7887C116.813 94.7887 116.758 94.7844 116.698 94.7801C116.671 94.7801 116.643 94.7801 116.616 94.7801C116.578 94.7801 116.539 94.7801 116.501 94.7758C116.271 94.7672 116.036 94.7629 115.785 94.7629C114.155 94.7629 112.831 94.9606 112.831 95.2055V104.7C112.831 104.765 112.842 104.821 112.858 104.876C112.951 105.177 113.296 105.396 113.706 105.396H117.858C118.339 105.396 118.733 105.087 118.733 104.709V95.2055C118.733 95.0809 118.399 94.9692 117.858 94.8918V94.8832Z" fill="#46B074"/>
<path id="Vector_60" d="M117.858 94.8832C117.65 94.8532 117.409 94.8274 117.152 94.8059V100.228C117.152 102.101 115.216 103.622 112.831 103.622V104.692C112.831 104.756 112.842 104.812 112.858 104.868C112.951 105.169 113.296 105.388 113.706 105.388H117.858C118.344 105.388 118.733 105.078 118.733 104.7V95.1969C118.733 95.0723 118.399 94.9606 117.858 94.8832Z" fill="#2D965A"/>
<g id="Vector_61" style="mix-blend-mode:screen">
<path d="M116.086 91.0899C116.086 91.0899 115.954 91.1074 115.796 91.1074C115.637 91.1074 115.506 91.0987 115.506 91.0899C115.506 91.0812 115.637 91.0724 115.796 91.0724C115.954 91.0724 116.086 91.0812 116.086 91.0899Z" fill="#999999"/>
</g>
<path id="Vector_62" d="M117.311 94.213C117.311 94.213 117.316 94.2044 117.316 94.2001C117.316 94.1228 117.081 94.0583 116.714 94.0111L116.124 91.0466H115.44C115.243 92.0348 115.046 93.0229 114.849 94.0111C114.488 94.054 114.248 94.1228 114.248 94.2001C114.248 94.2044 114.253 94.2087 114.253 94.213C114.182 94.5266 114.04 95.1023 114.04 95.1109C114.04 95.2054 114.379 95.2871 114.893 95.33C115.15 95.3515 115.456 95.3644 115.779 95.3644C116.085 95.3644 116.375 95.3515 116.627 95.33C117.152 95.2871 117.502 95.2011 117.502 95.1066C117.502 95.0937 117.36 94.518 117.289 94.2087L117.311 94.213Z" fill="#46B074"/>
</g>
</g>
<path id="Vector_63" d="M190.378 151.079H9.24899V153.996H190.378V151.079Z" fill="#5BAFC4"/>
<path id="Vector_64" d="M72.7558 80.3059H45.0307C38.4673 80.3059 33.1454 84.4862 33.1454 89.6417V106.827H84.6521V89.6417C84.6521 84.4862 79.3302 80.3059 72.7613 80.3059H72.7558ZM45.0307 81.453H72.7558C78.5098 81.453 83.1862 85.1263 83.1862 89.6417V94.9218H34.6003V89.6417C34.6003 85.1263 39.2768 81.453 45.0253 81.453H45.0307ZM34.6003 105.68V96.3912H83.1808V105.68H34.6003Z" fill="white"/>
<g id="Group_12">
<g id="Group_13">
<path id="Vector_65" d="M50.6096 91.8586C48.4711 93.8091 40.1464 93.9294 38.6314 91.4762C39.1892 90.3077 40.8028 91.5493 44.5275 91.5106C48.2413 91.6008 49.8877 90.196 50.6096 91.8586Z" fill="#FFBD56"/>
<path id="Vector_66" d="M50.5331 92.6233C49.2751 94.8832 36.7225 94.8703 38.6915 91.3602C40.2011 93.7361 48.4437 93.6458 50.555 91.7426C50.7956 92.0605 50.5385 92.6577 50.5331 92.6233Z" fill="#EBA434"/>
</g>
<g id="Group_14">
<path id="Vector_67" d="M41.0872 92.009C41.1911 91.9403 40.9887 91.3775 41.388 91.6438C41.8146 91.9274 41.5193 91.3044 42.4108 91.6052C42.6569 91.6911 42.7827 91.399 42.9906 91.1884C43.2258 90.9521 43.368 91.1068 43.6688 91.4247C43.8384 91.6052 43.9915 91.4075 44.3306 91.4032C44.6807 91.3947 44.8393 91.5665 45.0143 91.3818C45.3042 91.0638 45.4683 90.9221 45.698 91.1713C45.9223 91.4161 45.9824 91.7341 46.245 91.6438C47.2896 91.2958 46.7481 92.0219 47.3607 91.5321C47.5412 91.4548 47.6123 91.82 47.6452 91.9403L41.0762 92.0133L41.0872 92.009Z" fill="#82B52F"/>
<path id="Vector_68" d="M41.1255 91.9919C41.1255 91.8544 41.1638 91.747 41.3825 91.893C41.8146 92.1809 41.8365 91.24 42.4053 91.8673C42.6788 91.8501 42.7609 91.6782 42.9578 91.4548C43.2094 91.1627 43.3133 91.4076 43.6469 91.704C43.8329 91.8716 43.9915 91.6782 44.3416 91.6696C44.6916 91.661 44.8612 91.8286 45.0471 91.6568C45.3753 91.3431 45.4956 91.1283 45.7308 91.4505C45.9277 91.7169 45.9824 91.8888 46.2668 91.893C46.9232 91.1498 46.7864 92.2668 47.3936 91.777C47.4865 91.7384 47.5522 91.8157 47.5959 91.9188L42.9687 91.9704C42.7937 91.9575 42.6132 91.9575 42.4382 91.9747L41.1255 91.9876V91.9919Z" fill="#98CF3E"/>
</g>
<g id="Group_15">
<g id="Group_16">
<path id="Vector_69" d="M50.4893 92.8897C48.2851 94.0669 40.8793 94.1056 38.697 92.8897C38.6259 92.7136 38.5712 92.3871 38.6478 92.2367C39.058 91.4161 43.5813 91.8844 44.5713 91.8629C45.6597 91.9145 49.7455 91.4161 50.4018 92.0778C50.5659 92.2453 50.5659 92.662 50.4838 92.8897H50.4893Z" fill="#A62D28"/>
<path id="Vector_70" d="M50.4028 92.0736C48.0563 93.3582 41.0881 93.3754 38.6487 92.2283C39.0589 91.4378 43.5822 91.8717 44.5777 91.8674C45.6661 91.8975 49.7573 91.4464 50.4028 92.0736Z" fill="#B53C37"/>
</g>
<path id="Vector_71" d="M48.9196 92.2324C48.8047 92.4429 48.1484 92.5074 47.7928 92.4472C47.4756 92.3914 47.2295 92.1164 46.8685 92.0992C46.4911 92.082 46.245 92.3527 45.8621 92.3742C45.523 92.3914 45.3151 92.1293 44.9815 92.1207C44.6096 92.1121 44.3306 92.3656 43.9806 92.3269C43.7016 92.2968 43.6633 92.082 43.3953 92.0691C43.0234 92.052 42.8156 92.3785 42.4655 92.3656C42.1483 92.357 42.0826 92.0434 41.7928 92.0605C41.481 92.0777 41.3333 92.3742 41.0762 92.4128C40.8082 92.4558 40.4144 92.125 40.4855 92.0777C40.5566 92.0262 40.7535 92.3011 40.9942 92.2539C41.2349 92.2066 41.3442 91.9875 41.6232 91.9531C41.9021 91.9188 42.0881 92.1594 42.3944 92.1594C42.646 92.1594 42.8156 91.9918 43.0945 91.9746C43.4117 91.9574 43.6524 92.1594 43.9806 92.1679C44.3087 92.1722 44.5549 91.966 44.8885 91.9789C45.2386 91.9918 45.43 92.2367 45.7746 92.2367C46.1739 92.2367 46.3215 91.9102 46.7263 91.9145C47.1529 91.9188 47.3279 92.2668 47.7655 92.2797C48.1155 92.2925 48.4437 92.2754 48.7664 92.1551C48.8649 92.1207 48.9633 92.1465 48.9196 92.2281V92.2324Z" fill="#FFD799"/>
</g>
<g id="Group_17">
<path id="Vector_72" d="M41.1255 92.7952C41.2513 92.6148 41.1802 92.2539 41.4974 92.473C41.8365 92.7093 41.8037 92.3226 42.4874 92.6105C42.6788 92.6878 42.8648 92.4343 43.0671 92.2625C43.2969 92.0691 43.5266 92.2925 43.6797 92.5503C43.7673 92.6964 44.1282 92.5503 44.3087 92.5503C44.4947 92.5503 44.8721 92.6964 44.976 92.5503C45.151 92.2968 45.4409 92.1078 45.6269 92.314C45.8129 92.5202 46.0316 92.8038 46.2176 92.7308C46.956 92.43 46.9669 92.7608 47.3334 92.3785C47.5358 92.314 47.678 92.6062 47.7436 92.7222C45.1401 93.2721 43.7071 93.0831 41.1255 92.8081V92.7952Z" fill="#82B52F"/>
<path id="Vector_73" d="M41.1591 92.778C41.263 92.6319 41.2083 92.5675 41.4545 92.7222C41.9358 93.0143 41.8811 92.155 42.4007 92.8639C42.7343 92.851 42.7617 92.705 42.9914 92.5202C43.2922 92.2839 43.4071 92.5847 43.6259 92.8253C43.7462 92.9585 44.0853 92.8167 44.2932 92.8124C44.4955 92.8124 44.8511 92.9542 44.9933 92.8124C45.2503 92.5632 45.3925 92.3054 45.677 92.5804C45.9122 92.8124 45.9395 92.9542 46.306 92.9628C46.9404 92.1508 46.8256 93.1518 47.4327 92.5976C47.5093 92.5374 47.6843 92.6405 47.6241 92.6964C46.2731 93.0702 44.2822 93.169 43.1008 93.0487C41.9249 92.9284 43.1829 93.0358 42.3679 92.967C42.0507 92.9112 41.5584 92.821 41.1591 92.7737V92.778Z" fill="#98CF3E"/>
</g>
<g id="Group_18">
<path id="Vector_74" d="M50.6643 93.212C48.5422 95.1754 40.2339 95.2999 38.7025 92.8554C39.2768 91.6266 40.852 92.9499 44.5767 92.894C48.2906 92.8382 49.9259 91.5536 50.6643 93.212Z" fill="#FFBD56"/>
<path id="Vector_75" d="M50.5932 93.9809C49.3517 96.2451 36.7991 96.2923 38.7462 92.7737C40.2777 95.1452 48.5367 95.0421 50.6315 93.1303C50.8558 93.4611 50.6042 94.011 50.5987 93.9809H50.5932Z" fill="#FBB03B"/>
</g>
</g>
<g id="Group_19">
<g id="Group_20">
<path id="Vector_76" d="M65.9298 91.8586C63.7912 93.8091 55.4666 93.9294 53.9515 91.4762C54.5094 90.3077 56.1229 91.5493 59.8477 91.5106C63.5615 91.6008 65.2078 90.196 65.9298 91.8586Z" fill="#FFBD56"/>
<path id="Vector_77" d="M65.8533 92.6233C64.5953 94.8832 52.0427 94.8703 54.0117 91.3602C55.5213 93.7361 63.7639 93.6458 65.8751 91.7426C66.1158 92.0605 65.8587 92.6577 65.8533 92.6233Z" fill="#EBA434"/>
</g>
<g id="Group_21">
<path id="Vector_78" d="M56.4074 92.009C56.5113 91.9403 56.3089 91.3775 56.7082 91.6438C57.1348 91.9274 56.8394 91.3044 57.731 91.6052C57.9771 91.6911 58.1029 91.399 58.3108 91.1884C58.5459 90.9521 58.6882 91.1068 58.989 91.4247C59.1585 91.6052 59.3117 91.4075 59.6508 91.4032C60.0008 91.3947 60.1595 91.5665 60.3345 91.3818C60.6244 91.0638 60.7885 90.9221 61.0182 91.1713C61.2424 91.4161 61.3026 91.7341 61.5651 91.6438C62.6098 91.2958 62.0683 92.0219 62.6809 91.5321C62.8614 91.4548 62.9325 91.82 62.9653 91.9403L56.3964 92.0133L56.4074 92.009Z" fill="#82B52F"/>
<path id="Vector_79" d="M56.4413 91.9919C56.4413 91.8544 56.4796 91.747 56.6984 91.893C57.1305 92.1809 57.1523 91.24 57.7212 91.8673C57.9946 91.8501 58.0767 91.6782 58.2736 91.4548C58.5252 91.1627 58.6291 91.4076 58.9628 91.704C59.1487 91.8716 59.3073 91.6782 59.6574 91.6696C60.0074 91.661 60.177 91.8286 60.363 91.6568C60.6911 91.3431 60.8115 91.1283 61.0466 91.4505C61.2436 91.7169 61.2982 91.8888 61.5827 91.893C62.239 91.1498 62.1023 92.2668 62.7094 91.777C62.8024 91.7384 62.868 91.8157 62.9118 91.9188L58.2845 91.9704C58.1095 91.9575 57.929 91.9575 57.754 91.9747L56.4413 91.9876V91.9919Z" fill="#98CF3E"/>
</g>
<g id="Group_22">
<g id="Group_23">
<path id="Vector_80" d="M65.8095 92.8897C63.6053 94.0669 56.1995 94.1056 54.0172 92.8897C53.9461 92.7136 53.8914 92.3871 53.9679 92.2367C54.3782 91.4161 58.9015 91.8844 59.8915 91.8629C60.9799 91.9145 65.0656 91.4161 65.722 92.0778C65.8861 92.2453 65.8861 92.662 65.804 92.8897H65.8095Z" fill="#A62D28"/>
<path id="Vector_81" d="M65.7231 92.0736C63.3766 93.3582 56.4084 93.3754 53.9745 92.2283C54.3847 91.4378 58.908 91.8717 59.9035 91.8674C60.9919 91.8975 65.0831 91.4464 65.7285 92.0736H65.7231Z" fill="#B53C37"/>
</g>
<path id="Vector_82" d="M64.2397 92.2324C64.1249 92.4429 63.4685 92.5074 63.113 92.4472C62.7958 92.3914 62.5496 92.1164 62.1887 92.0992C61.8113 92.082 61.5651 92.3527 61.1823 92.3742C60.8432 92.3914 60.6353 92.1293 60.3017 92.1207C59.9297 92.1121 59.6508 92.3656 59.3007 92.3269C59.0218 92.2968 58.9835 92.082 58.7155 92.0691C58.3436 92.052 58.1357 92.3785 57.7857 92.3656C57.4684 92.357 57.4028 92.0434 57.1129 92.0605C56.8012 92.0777 56.6535 92.3742 56.3964 92.4128C56.1284 92.4558 55.7346 92.125 55.8057 92.0777C55.8768 92.0262 56.0737 92.3011 56.3144 92.2539C56.555 92.2066 56.6644 91.9875 56.9434 91.9531C57.2223 91.9188 57.4083 92.1594 57.7146 92.1594C57.9662 92.1594 58.1357 91.9918 58.4147 91.9746C58.7319 91.9574 58.9726 92.1594 59.3007 92.1679C59.6289 92.1722 59.875 91.966 60.2087 91.9789C60.5587 91.9918 60.7502 92.2367 61.0947 92.2367C61.494 92.2367 61.6417 91.9102 62.0465 91.9145C62.4731 91.9188 62.6481 92.2668 63.0857 92.2797C63.4357 92.2925 63.7639 92.2754 64.0866 92.1551C64.185 92.1207 64.2835 92.1465 64.2397 92.2281V92.2324Z" fill="#FFD799"/>
</g>
<g id="Group_24">
<path id="Vector_83" d="M56.4402 92.7952C56.566 92.6148 56.4949 92.2539 56.8121 92.473C57.1512 92.7093 57.1184 92.3226 57.8021 92.6105C57.9935 92.6878 58.1795 92.4343 58.3819 92.2625C58.6116 92.0691 58.8413 92.2925 58.9944 92.5503C59.082 92.6964 59.443 92.5503 59.6234 92.5503C59.8094 92.5503 60.1868 92.6964 60.2907 92.5503C60.4658 92.2968 60.7556 92.1078 60.9416 92.314C61.1276 92.5202 61.3463 92.8038 61.5323 92.7308C62.2707 92.43 62.2816 92.7608 62.6481 92.3785C62.8505 92.314 62.9927 92.6062 63.0583 92.7222C60.4548 93.2721 59.0218 93.0831 56.4402 92.8081V92.7952Z" fill="#82B52F"/>
<path id="Vector_84" d="M56.4794 92.778C56.5834 92.6319 56.5287 92.5675 56.7748 92.7222C57.2561 93.0143 57.2014 92.155 57.721 92.8639C58.0547 92.851 58.082 92.705 58.3117 92.5202C58.6126 92.2839 58.7274 92.5847 58.9462 92.8253C59.0665 92.9585 59.4056 92.8167 59.6135 92.8124C59.8159 92.8124 60.1714 92.9542 60.3136 92.8124C60.5707 92.5632 60.7129 92.3054 60.9973 92.5804C61.2325 92.8124 61.2598 92.9542 61.6263 92.9628C62.2607 92.1508 62.1459 93.1518 62.753 92.5976C62.8296 92.5374 63.0046 92.6405 62.9444 92.6964C61.5935 93.0702 59.6025 93.169 58.4211 93.0487C57.2452 92.9284 58.5032 93.0358 57.6882 92.967C57.371 92.9112 56.8787 92.821 56.4794 92.7737V92.778Z" fill="#98CF3E"/>
</g>
<g id="Group_25">
<path id="Vector_85" d="M65.9845 93.212C63.8623 95.1754 55.5541 95.2999 54.0226 92.8554C54.5969 91.6266 56.1722 92.9499 59.8969 92.894C63.6107 92.8382 65.2461 91.5536 65.9845 93.212Z" fill="#FFBD56"/>
<path id="Vector_86" d="M65.9134 93.9809C64.6718 96.2451 52.1192 96.2923 54.0664 92.7737C55.5979 95.1452 63.8569 95.0421 65.9517 93.1303C66.176 93.4611 65.9244 94.011 65.9189 93.9809H65.9134Z" fill="#FBB03B"/>
</g>
</g>
<g id="Group_26">
<g id="Group_27">
<path id="Vector_87" d="M81.25 91.8586C79.1114 93.8091 70.7868 93.9294 69.2717 91.4762C69.8296 90.3077 71.4431 91.5493 75.1679 91.5106C78.8817 91.6008 80.528 90.196 81.25 91.8586Z" fill="#FFBD56"/>
<path id="Vector_88" d="M81.1734 92.6233C79.9154 94.8832 67.3628 94.8703 69.3319 91.3602C70.8415 93.7361 79.0841 93.6458 81.1953 91.7426C81.436 92.0605 81.1789 92.6577 81.1734 92.6233Z" fill="#EBA434"/>
</g>
<g id="Group_28">
<path id="Vector_89" d="M71.7275 92.009C71.8315 91.9403 71.6291 91.3775 72.0284 91.6438C72.455 91.9274 72.1596 91.3044 73.0512 91.6052C73.2973 91.6911 73.4231 91.399 73.6309 91.1884C73.8661 90.9521 74.0083 91.1068 74.3092 91.4247C74.4787 91.6052 74.6319 91.4075 74.971 91.4032C75.321 91.3947 75.4796 91.5665 75.6547 91.3818C75.9446 91.0638 76.1086 90.9221 76.3384 91.1713C76.5626 91.4161 76.6228 91.7341 76.8853 91.6438C77.93 91.2958 77.3885 92.0219 78.0011 91.5321C78.1816 91.4548 78.2527 91.82 78.2855 91.9403L71.7166 92.0133L71.7275 92.009Z" fill="#82B52F"/>
<path id="Vector_90" d="M71.7615 91.9919C71.7615 91.8544 71.7998 91.747 72.0185 91.893C72.4506 92.1809 72.4725 91.24 73.0413 91.8673C73.3148 91.8501 73.3969 91.6782 73.5938 91.4548C73.8454 91.1627 73.9493 91.4076 74.2829 91.704C74.4689 91.8716 74.6275 91.6782 74.9776 91.6696C75.3276 91.661 75.4972 91.8286 75.6831 91.6568C76.0113 91.3431 76.1316 91.1283 76.3668 91.4505C76.5637 91.7169 76.6184 91.8888 76.9028 91.893C77.5592 91.1498 77.4225 92.2668 78.0296 91.777C78.1226 91.7384 78.1882 91.8157 78.2319 91.9188L73.6047 91.9704C73.4297 91.9575 73.2492 91.9575 73.0742 91.9747L71.7615 91.9876V91.9919Z" fill="#98CF3E"/>
</g>
<g id="Group_29">
<g id="Group_30">
<path id="Vector_91" d="M81.1297 92.8897C78.9254 94.0669 71.5197 94.1056 69.3373 92.8897C69.2662 92.7136 69.2115 92.3871 69.2881 92.2367C69.6983 91.4161 74.2216 91.8844 75.2116 91.8629C76.3001 91.9145 80.3858 91.4161 81.0422 92.0778C81.2062 92.2453 81.2062 92.662 81.1242 92.8897H81.1297Z" fill="#A62D28"/>
<path id="Vector_92" d="M81.0431 92.0736C78.6967 93.3582 71.7285 93.3754 69.2891 92.2283C69.6993 91.4378 74.2226 91.8717 75.2181 91.8674C76.3065 91.8975 80.3977 91.4464 81.0431 92.0736Z" fill="#B53C37"/>
</g>
<path id="Vector_93" d="M79.5599 92.2324C79.4451 92.4429 78.7887 92.5074 78.4332 92.4472C78.116 92.3914 77.8698 92.1164 77.5088 92.0992C77.1314 92.082 76.8853 92.3527 76.5024 92.3742C76.1633 92.3914 75.9555 92.1293 75.6218 92.1207C75.2499 92.1121 74.971 92.3656 74.6209 92.3269C74.342 92.2968 74.3037 92.082 74.0357 92.0691C73.6638 92.052 73.4559 92.3785 73.1059 92.3656C72.7886 92.357 72.723 92.0434 72.4331 92.0605C72.1213 92.0777 71.9737 92.3742 71.7166 92.4128C71.4486 92.4558 71.0548 92.125 71.1259 92.0777C71.197 92.0262 71.3939 92.3011 71.6346 92.2539C71.8752 92.2066 71.9846 91.9875 72.2636 91.9531C72.5425 91.9188 72.7285 92.1594 73.0348 92.1594C73.2864 92.1594 73.4559 91.9918 73.7349 91.9746C74.0521 91.9574 74.2928 92.1594 74.6209 92.1679C74.9491 92.1722 75.1952 91.966 75.5289 91.9789C75.8789 91.9918 76.0704 92.2367 76.4149 92.2367C76.8142 92.2367 76.9619 91.9102 77.3666 91.9145C77.7933 91.9188 77.9683 92.2668 78.4059 92.2797C78.7559 92.2925 79.0841 92.2754 79.4068 92.1551C79.5052 92.1207 79.6037 92.1465 79.5599 92.2281V92.2324Z" fill="#FFD799"/>
</g>
<g id="Group_31">
<path id="Vector_94" d="M71.7604 92.7952C71.8862 92.6148 71.8151 92.2539 72.1323 92.473C72.4714 92.7093 72.4386 92.3226 73.1223 92.6105C73.3137 92.6878 73.4997 92.4343 73.702 92.2625C73.9318 92.0691 74.1615 92.2925 74.3146 92.5503C74.4021 92.6964 74.7631 92.5503 74.9436 92.5503C75.1296 92.5503 75.507 92.6964 75.6109 92.5503C75.7859 92.2968 76.0758 92.1078 76.2618 92.314C76.4477 92.5202 76.6665 92.8038 76.8525 92.7308C77.5909 92.43 77.6018 92.7608 77.9683 92.3785C78.1707 92.314 78.3129 92.6062 78.3785 92.7222C75.775 93.2721 74.342 93.0831 71.7604 92.8081V92.7952Z" fill="#82B52F"/>
<path id="Vector_95" d="M71.7996 92.778C71.9035 92.6319 71.8488 92.5675 72.095 92.7222C72.5763 93.0143 72.5216 92.155 73.0412 92.8639C73.3748 92.851 73.4022 92.705 73.6319 92.5202C73.9327 92.2839 74.0476 92.5847 74.2664 92.8253C74.3867 92.9585 74.7258 92.8167 74.9337 92.8124C75.136 92.8124 75.4916 92.9542 75.6338 92.8124C75.8908 92.5632 76.033 92.3054 76.3175 92.5804C76.5527 92.8124 76.58 92.9542 76.9465 92.9628C77.5809 92.1508 77.4661 93.1518 78.0732 92.5976C78.1498 92.5374 78.3248 92.6405 78.2646 92.6964C76.9136 93.0702 74.9227 93.169 73.7413 93.0487C72.5654 92.9284 73.8233 93.0358 73.0084 92.967C72.6912 92.9112 72.1989 92.821 71.7996 92.7737V92.778Z" fill="#98CF3E"/>
</g>
<g id="Group_32">
<path id="Vector_96" d="M81.3047 93.212C79.1825 95.1754 70.8743 95.2999 69.3428 92.8554C69.9171 91.6266 71.4923 92.9499 75.2171 92.894C78.9309 92.8382 80.5663 91.5536 81.3047 93.212Z" fill="#FFBD56"/>
<path id="Vector_97" d="M81.2336 93.9809C79.992 96.2451 67.4394 96.2923 69.3866 92.7737C70.918 95.1452 79.177 95.0421 81.2719 93.1303C81.4961 93.4611 81.2445 94.011 81.2391 93.9809H81.2336Z" fill="#FBB03B"/>
</g>
</g>
<g id="Group_33">
<g id="Group_34">
<path id="Vector_98" d="M75.1296 102.397C72.991 104.348 64.6664 104.468 63.1513 102.015C63.7092 100.846 65.3227 102.088 69.0475 102.049C72.7613 102.14 74.4076 100.735 75.1296 102.397Z" fill="#FFBD56"/>
<path id="Vector_99" d="M75.053 103.166C73.795 105.426 61.2424 105.413 63.2115 101.903C64.7211 104.279 72.9637 104.189 75.0749 102.286C75.3156 102.604 75.0585 103.201 75.053 103.166Z" fill="#EBA434"/>
</g>
<g id="Group_35">
<path id="Vector_100" d="M65.6126 102.552C65.7165 102.483 65.5141 101.921 65.9134 102.187C66.34 102.47 66.0447 101.848 66.9362 102.148C67.1823 102.234 67.3082 101.942 67.516 101.732C67.7512 101.495 67.8934 101.65 68.1942 101.968C68.3638 102.148 68.5169 101.951 68.856 101.946C69.2061 101.938 69.3647 102.11 69.5397 101.925C69.8296 101.607 69.9937 101.465 70.2234 101.714C70.4477 101.959 70.5078 102.277 70.7704 102.187C71.815 101.839 71.2736 102.565 71.8861 102.075C72.0666 101.998 72.1378 102.363 72.1706 102.483L65.6017 102.556L65.6126 102.552Z" fill="#82B52F"/>
<path id="Vector_101" d="M65.6465 102.535C65.6465 102.397 65.6848 102.29 65.9036 102.436C66.3357 102.724 66.3576 101.783 66.9264 102.41C67.1999 102.393 67.2819 102.221 67.4788 101.998C67.7304 101.706 67.8343 101.951 68.168 102.247C68.354 102.415 68.5126 102.221 68.8626 102.213C69.2127 102.204 69.3822 102.372 69.5682 102.2C69.8964 101.886 70.0167 101.671 70.2519 101.994C70.4488 102.26 70.5035 102.432 70.7879 102.436C71.4442 101.693 71.3075 102.81 71.9146 102.32C72.0076 102.281 72.0732 102.359 72.117 102.462L67.4898 102.513C67.3147 102.501 67.1342 102.501 66.9592 102.518L65.6465 102.531V102.535Z" fill="#98CF3E"/>
</g>
<g id="Group_36">
<g id="Group_37">
<path id="Vector_102" d="M75.0093 103.433C72.805 104.61 65.3993 104.649 63.2169 103.433C63.1458 103.257 63.0911 102.93 63.1677 102.78C63.5779 101.959 68.1012 102.428 69.0912 102.406C70.1797 102.458 74.2654 101.959 74.9217 102.621C75.0858 102.788 75.0858 103.205 75.0038 103.433H75.0093Z" fill="#A62D28"/>
<path id="Vector_103" d="M74.9227 102.617C72.5763 103.901 65.6081 103.919 63.1687 102.771C63.5789 101.981 68.1022 102.415 69.0976 102.411C70.1861 102.441 74.2773 101.989 74.9227 102.617Z" fill="#B53C37"/>
</g>
<path id="Vector_104" d="M73.445 102.771C73.3301 102.982 72.6738 103.046 72.3182 102.986C72.001 102.93 71.7549 102.655 71.3939 102.638C71.0165 102.621 70.7704 102.892 70.3875 102.913C70.0484 102.93 69.8405 102.668 69.5069 102.66C69.135 102.651 68.856 102.904 68.506 102.866C68.227 102.836 68.1887 102.621 67.9207 102.608C67.5488 102.591 67.341 102.917 66.9909 102.904C66.6737 102.896 66.608 102.582 66.3182 102.599C66.0064 102.617 65.8587 102.913 65.6017 102.952C65.3336 102.995 64.9398 102.664 65.0109 102.617C65.082 102.565 65.2789 102.84 65.5196 102.793C65.7603 102.745 65.8697 102.526 66.1486 102.492C66.4276 102.458 66.6135 102.698 66.9198 102.698C67.1714 102.698 67.341 102.531 67.6199 102.513C67.9371 102.496 68.1778 102.698 68.506 102.707C68.8341 102.711 69.0803 102.505 69.4139 102.518C69.764 102.531 69.9554 102.776 70.3 102.776C70.6993 102.776 70.8469 102.449 71.2517 102.453C71.6783 102.458 71.8533 102.806 72.2909 102.818C72.6409 102.831 72.9691 102.814 73.2918 102.694C73.3903 102.66 73.4887 102.685 73.445 102.767V102.771Z" fill="#FFD799"/>
</g>
<g id="Group_38">
<path id="Vector_105" d="M65.6454 103.334C65.7712 103.154 65.7001 102.793 66.0173 103.012C66.3564 103.244 66.3236 102.861 67.0073 103.145C67.1988 103.222 67.3847 102.969 67.5871 102.797C67.8168 102.604 68.0465 102.827 68.1997 103.085C68.2872 103.231 68.6482 103.085 68.8287 103.085C69.0146 103.085 69.392 103.231 69.496 103.085C69.671 102.831 69.9609 102.642 70.1468 102.849C70.3328 103.055 70.5516 103.338 70.7375 103.265C71.4759 102.965 71.4869 103.295 71.8533 102.913C72.0557 102.849 72.1979 103.141 72.2635 103.257C69.66 103.807 68.227 103.618 65.6454 103.343V103.334Z" fill="#82B52F"/>
<path id="Vector_106" d="M65.6791 103.321C65.783 103.175 65.7283 103.111 65.9744 103.265C66.4557 103.557 66.401 102.698 66.9206 103.407C67.2543 103.394 67.2816 103.248 67.5114 103.063C67.8122 102.827 67.927 103.128 68.1458 103.368C68.2662 103.502 68.6053 103.36 68.8131 103.355C69.0155 103.355 69.371 103.497 69.5132 103.355C69.7703 103.106 69.9125 102.849 70.1969 103.123C70.4321 103.355 70.4594 103.497 70.8259 103.506C71.4604 102.694 71.3455 103.695 71.9526 103.141C72.0292 103.081 72.2042 103.184 72.1441 103.239C70.7931 103.613 68.8022 103.712 67.6208 103.592C66.4448 103.471 67.7028 103.579 66.8878 103.51C66.5706 103.454 66.0783 103.364 65.6791 103.317V103.321Z" fill="#98CF3E"/>
</g>
<g id="Group_39">
<path id="Vector_107" d="M75.1843 103.755C73.0621 105.718 64.7539 105.843 63.2224 103.398C63.7967 102.17 65.3719 103.493 69.0967 103.437C72.8105 103.381 74.4459 102.097 75.1843 103.755Z" fill="#FFBD56"/>
<path id="Vector_108" d="M75.1132 104.524C73.8716 106.788 61.319 106.835 63.2662 103.317C64.7976 105.688 73.0566 105.585 75.1515 103.673C75.3757 104.004 75.1241 104.554 75.1186 104.524H75.1132Z" fill="#FBB03B"/>
</g>
</g>
<g id="Group_40">
<g id="Group_41">
<path id="Vector_109" d="M54.039 102.157C51.9005 104.107 43.5758 104.228 42.0608 101.774C42.6186 100.606 44.2322 101.847 47.9569 101.809C51.6707 101.899 53.3171 100.494 54.039 102.157Z" fill="#FFBD56"/>
<path id="Vector_110" d="M53.9625 102.926C52.7045 105.186 40.1519 105.173 42.1209 101.663C43.6305 104.039 51.8731 103.948 53.9844 102.045C54.225 102.363 53.968 102.96 53.9625 102.926Z" fill="#EBA434"/>
</g>
<g id="Group_42">
<path id="Vector_111" d="M44.522 102.312C44.626 102.243 44.4236 101.68 44.8229 101.946C45.2495 102.23 44.9541 101.607 45.8457 101.908C46.0918 101.994 46.2176 101.701 46.4254 101.491C46.6606 101.255 46.8028 101.409 47.1037 101.727C47.2732 101.908 47.4264 101.71 47.7655 101.706C48.1155 101.697 48.2742 101.869 48.4492 101.684C48.7391 101.366 48.9032 101.225 49.1329 101.474C49.3571 101.719 49.4173 102.037 49.6798 101.946C50.7245 101.598 50.183 102.324 50.7956 101.835C50.9761 101.757 51.0472 102.122 51.08 102.243L44.5111 102.316L44.522 102.312Z" fill="#82B52F"/>
<path id="Vector_112" d="M44.556 102.294C44.556 102.157 44.5943 102.049 44.8131 102.196C45.2452 102.483 45.267 101.543 45.8359 102.17C46.1093 102.153 46.1914 101.981 46.3883 101.757C46.6399 101.465 46.7438 101.71 47.0774 102.006C47.2634 102.174 47.422 101.981 47.7721 101.972C48.1221 101.964 48.2917 102.131 48.4776 101.959C48.8058 101.646 48.9261 101.431 49.1613 101.753C49.3582 102.019 49.4129 102.191 49.6974 102.196C50.3537 101.452 50.217 102.569 50.8241 102.08C50.9171 102.041 50.9827 102.118 51.0265 102.221L46.3992 102.273C46.2242 102.26 46.0437 102.26 45.8687 102.277L44.556 102.29V102.294Z" fill="#98CF3E"/>
</g>
<g id="Group_43">
<g id="Group_44">
<path id="Vector_113" d="M53.9187 103.192C51.7145 104.369 44.3087 104.408 42.1264 103.192C42.0553 103.016 42.0006 102.69 42.0772 102.539C42.4874 101.719 47.0107 102.187 48.0007 102.165C49.0891 102.217 53.1749 101.719 53.8312 102.38C53.9953 102.548 53.9953 102.965 53.9132 103.192H53.9187Z" fill="#A62D28"/>
<path id="Vector_114" d="M53.8322 102.376C51.4857 103.661 44.5175 103.678 42.0781 102.531C42.4883 101.74 47.0116 102.174 48.0071 102.17C49.0955 102.2 53.1867 101.749 53.8322 102.376Z" fill="#B53C37"/>
</g>
<path id="Vector_115" d="M52.3544 102.531C52.2396 102.741 51.5832 102.806 51.2277 102.745C50.9105 102.69 50.6643 102.415 50.3034 102.397C49.926 102.38 49.6798 102.651 49.297 102.672C48.9578 102.69 48.75 102.428 48.4164 102.419C48.0444 102.41 47.7655 102.664 47.4154 102.625C47.1365 102.595 47.0982 102.38 46.8302 102.367C46.4583 102.35 46.2504 102.677 45.9004 102.664C45.5831 102.655 45.5175 102.342 45.2276 102.359C44.9159 102.376 44.7682 102.672 44.5111 102.711C44.2431 102.754 43.8493 102.423 43.9204 102.376C43.9915 102.324 44.1884 102.599 44.4291 102.552C44.6697 102.505 44.7791 102.286 45.0581 102.251C45.337 102.217 45.523 102.458 45.8293 102.458C46.0809 102.458 46.2504 102.29 46.5294 102.273C46.8466 102.256 47.0873 102.458 47.4154 102.466C47.7436 102.47 47.9897 102.264 48.3234 102.277C48.6734 102.29 48.8649 102.535 49.2094 102.535C49.6087 102.535 49.7564 102.208 50.1611 102.213C50.5878 102.217 50.7628 102.565 51.2004 102.578C51.5504 102.591 51.8786 102.574 52.2013 102.453C52.2997 102.419 52.3982 102.445 52.3544 102.526V102.531Z" fill="#FFD799"/>
</g>
<g id="Group_45">
<path id="Vector_116" d="M44.5549 103.098C44.6807 102.917 44.6096 102.556 44.9268 102.775C45.2659 103.012 45.2331 102.625 45.9168 102.913C46.1082 102.99 46.2942 102.737 46.4966 102.565C46.7263 102.372 46.956 102.595 47.1091 102.853C47.1966 102.999 47.5576 102.853 47.7381 102.853C47.9241 102.853 48.3015 102.999 48.4054 102.853C48.5804 102.599 48.8703 102.41 49.0563 102.617C49.2423 102.823 49.461 103.106 49.647 103.033C50.3854 102.733 50.3963 103.063 50.7628 102.681C50.9652 102.617 51.1074 102.909 51.173 103.025C48.5695 103.575 47.1365 103.386 44.5549 103.111V103.098Z" fill="#82B52F"/>
<path id="Vector_117" d="M44.5885 103.08C44.6924 102.934 44.6377 102.87 44.8839 103.025C45.3652 103.317 45.3105 102.458 45.8301 103.166C46.1637 103.154 46.1911 103.007 46.4208 102.823C46.7216 102.586 46.8365 102.887 47.0553 103.128C47.1756 103.261 47.5147 103.119 47.7226 103.115C47.9249 103.115 48.2805 103.257 48.4227 103.115C48.6797 102.866 48.8219 102.608 49.1064 102.883C49.3415 103.115 49.3689 103.257 49.7354 103.265C50.3698 102.453 50.255 103.454 50.8621 102.9C50.9387 102.84 51.1137 102.943 51.0535 102.999C49.7025 103.373 47.7116 103.471 46.5302 103.351C45.3543 103.231 46.6123 103.338 45.7973 103.27C45.4801 103.214 44.9878 103.123 44.5885 103.076V103.08Z" fill="#98CF3E"/>
</g>
<g id="Group_46">
<path id="Vector_118" d="M54.0937 103.514C51.9716 105.478 43.6633 105.602 42.1319 103.158C42.7062 101.929 44.2814 103.252 48.0061 103.197C51.72 103.141 53.3554 101.856 54.0937 103.514Z" fill="#FFBD56"/>
<path id="Vector_119" d="M54.0226 104.283C52.7811 106.548 40.2285 106.595 42.1756 103.076C43.7071 105.448 51.9661 105.345 54.0609 103.433C54.2852 103.764 54.0336 104.313 54.0281 104.283H54.0226Z" fill="#FBB03B"/>
</g>
</g>
</g>
</g>
</g>
</g>
<defs>
<clipPath id="clip0_48_921">
<rect width="195" height="154" fill="white"/>
</clipPath>
</defs>
</svg>
